%TF.GenerationSoftware,KiCad,Pcbnew,9.0.2+dfsg-1*%
%TF.CreationDate,2026-09-01T09:28:48+02:00*%
%TF.ProjectId,Raspberry_Pi_SFP_Programmer,52617370-6265-4727-9279-5f50695f5346,0.2*%
%TF.SameCoordinates,Original*%
%TF.FileFunction,Soldermask,Top*%
%TF.FilePolarity,Negative*%
%FSLAX46Y46*%
G04 Gerber Fmt 4.6, Leading zero omitted, Abs format (unit mm)*
G04 Created by KiCad (PCBNEW 9.0.2+dfsg-1) date 2026-09-01 09:28:48*
%MOMM*%
%LPD*%
G01*
G04 APERTURE LIST*
G04 Aperture macros list*
%AMRoundRect*
0 Rectangle with rounded corners*
0 $1 Rounding radius*
0 $2 $3 $4 $5 $6 $7 $8 $9 X,Y pos of 4 corners*
0 Add a 4 corners polygon primitive as box body*
4,1,4,$2,$3,$4,$5,$6,$7,$8,$9,$2,$3,0*
0 Add four circle primitives for the rounded corners*
1,1,$1+$1,$2,$3*
1,1,$1+$1,$4,$5*
1,1,$1+$1,$6,$7*
1,1,$1+$1,$8,$9*
0 Add four rect primitives between the rounded corners*
20,1,$1+$1,$2,$3,$4,$5,0*
20,1,$1+$1,$4,$5,$6,$7,0*
20,1,$1+$1,$6,$7,$8,$9,0*
20,1,$1+$1,$8,$9,$2,$3,0*%
G04 Aperture macros list end*
%ADD10RoundRect,0.160000X0.160000X-0.197500X0.160000X0.197500X-0.160000X0.197500X-0.160000X-0.197500X0*%
%ADD11RoundRect,0.160000X-0.160000X0.197500X-0.160000X-0.197500X0.160000X-0.197500X0.160000X0.197500X0*%
%ADD12RoundRect,0.160000X0.197500X0.160000X-0.197500X0.160000X-0.197500X-0.160000X0.197500X-0.160000X0*%
%ADD13RoundRect,0.160000X-0.222500X-0.160000X0.222500X-0.160000X0.222500X0.160000X-0.222500X0.160000X0*%
%ADD14RoundRect,0.250001X-0.944999X0.507499X-0.944999X-0.507499X0.944999X-0.507499X0.944999X0.507499X0*%
%ADD15RoundRect,0.150000X-0.150000X0.587500X-0.150000X-0.587500X0.150000X-0.587500X0.150000X0.587500X0*%
%ADD16C,2.000000*%
%ADD17R,2.000000X0.500000*%
%ADD18R,2.000000X2.000000*%
%ADD19C,1.500000*%
%ADD20RoundRect,0.237500X0.300000X0.237500X-0.300000X0.237500X-0.300000X-0.237500X0.300000X-0.237500X0*%
%ADD21R,1.422400X0.660400*%
%ADD22RoundRect,0.160000X-0.160000X0.222500X-0.160000X-0.222500X0.160000X-0.222500X0.160000X0.222500X0*%
%ADD23C,1.000000*%
%ADD24RoundRect,0.250000X-0.350000X-0.450000X0.350000X-0.450000X0.350000X0.450000X-0.350000X0.450000X0*%
%ADD25RoundRect,0.250000X-0.275000X-0.350000X0.275000X-0.350000X0.275000X0.350000X-0.275000X0.350000X0*%
%ADD26RoundRect,0.155000X-0.155000X0.212500X-0.155000X-0.212500X0.155000X-0.212500X0.155000X0.212500X0*%
%ADD27RoundRect,0.160000X-0.197500X-0.160000X0.197500X-0.160000X0.197500X0.160000X-0.197500X0.160000X0*%
%ADD28RoundRect,0.375000X0.625000X0.375000X-0.625000X0.375000X-0.625000X-0.375000X0.625000X-0.375000X0*%
%ADD29RoundRect,0.500000X0.500000X1.400000X-0.500000X1.400000X-0.500000X-1.400000X0.500000X-1.400000X0*%
%ADD30C,1.700000*%
%ADD31O,1.700000X1.700000*%
%ADD32R,1.700000X1.700000*%
G04 APERTURE END LIST*
D10*
%TO.C,R22*%
X70000000Y-66097500D03*
X70000000Y-64902500D03*
%TD*%
D11*
%TO.C,R21*%
X67500000Y-66097500D03*
X67500000Y-64902500D03*
%TD*%
D12*
%TO.C,R20*%
X94847500Y-104250000D03*
X93652500Y-104250000D03*
%TD*%
%TO.C,R19*%
X94847500Y-96750000D03*
X93652500Y-96750000D03*
%TD*%
D13*
%TO.C,D5*%
X96177500Y-104250000D03*
X97322500Y-104250000D03*
%TD*%
%TO.C,D4*%
X96177500Y-96750000D03*
X97322500Y-96750000D03*
%TD*%
D14*
%TO.C,C8*%
X72750000Y-102372500D03*
X72750000Y-105627500D03*
%TD*%
%TO.C,C6*%
X72644000Y-97755000D03*
X72644000Y-94500000D03*
%TD*%
%TO.C,C3*%
X89476000Y-102264500D03*
X89476000Y-105519500D03*
%TD*%
%TO.C,C1*%
X89476000Y-94622500D03*
X89476000Y-97877500D03*
%TD*%
D15*
%TO.C,Q2*%
X104342400Y-95323146D03*
X102442400Y-95323146D03*
X103392400Y-97198146D03*
%TD*%
D16*
%TO.C,J2*%
X96875000Y-76950000D03*
X96875000Y-86550000D03*
D17*
X92775000Y-78350000D03*
X92775000Y-79150000D03*
X92775000Y-79950000D03*
X92775000Y-80750000D03*
X92775000Y-81550000D03*
X92775000Y-82350000D03*
X92775000Y-83150000D03*
X92775000Y-83950000D03*
X92775000Y-84750000D03*
X92775000Y-85550000D03*
X100975000Y-85150000D03*
X100975000Y-84350000D03*
X100975000Y-83550000D03*
X100975000Y-82750000D03*
X100975000Y-81950000D03*
X100975000Y-81150000D03*
X100975000Y-80350000D03*
X100975000Y-79550000D03*
X100975000Y-78750000D03*
X100975000Y-77950000D03*
D18*
X65975000Y-74625000D03*
X65975000Y-83200000D03*
X70975000Y-88875000D03*
X75975000Y-74625000D03*
X80975000Y-88875000D03*
X85975000Y-74625000D03*
X85975000Y-80300000D03*
X85975000Y-85700000D03*
D19*
X88775000Y-74625000D03*
X88775000Y-88875000D03*
D18*
X90975000Y-88875000D03*
D19*
X93475000Y-74625000D03*
X93475000Y-88875000D03*
D18*
X95975000Y-74625000D03*
D19*
X98475000Y-74625000D03*
X98475000Y-88875000D03*
D18*
X100975000Y-88875000D03*
D19*
X103075000Y-76950000D03*
X103075000Y-81750000D03*
X103075000Y-86550000D03*
%TD*%
D20*
%TO.C,C13*%
X73506500Y-100000000D03*
X71781500Y-100000000D03*
%TD*%
D21*
%TO.C,SW1*%
X110703400Y-77960000D03*
X110703400Y-80500000D03*
X110703400Y-83040000D03*
X119796600Y-83040000D03*
X119796600Y-80500000D03*
X119796600Y-77960000D03*
%TD*%
D22*
%TO.C,D2*%
X103342400Y-102688146D03*
X103342400Y-103833146D03*
%TD*%
D23*
%TO.C,TP5*%
X93654000Y-94742000D03*
%TD*%
D24*
%TO.C,R11*%
X77668000Y-94488000D03*
X79668000Y-94488000D03*
%TD*%
D23*
%TO.C,TP7*%
X93654000Y-102250000D03*
%TD*%
D25*
%TO.C,L2*%
X84630000Y-102250000D03*
X86930000Y-102250000D03*
%TD*%
D12*
%TO.C,R13*%
X86377500Y-105552000D03*
X85182500Y-105552000D03*
%TD*%
D11*
%TO.C,R9*%
X104342400Y-92063146D03*
X104342400Y-93258146D03*
%TD*%
D23*
%TO.C,TP8*%
X99750000Y-102250000D03*
%TD*%
D10*
%TO.C,R7*%
X114173000Y-100858146D03*
X114173000Y-99663146D03*
%TD*%
D26*
%TO.C,C7*%
X92130000Y-102324500D03*
X92130000Y-103459500D03*
%TD*%
D24*
%TO.C,R14*%
X77668000Y-102250000D03*
X79668000Y-102250000D03*
%TD*%
D26*
%TO.C,C5*%
X83240000Y-102190500D03*
X83240000Y-103325500D03*
%TD*%
D11*
%TO.C,R8*%
X115173000Y-92063146D03*
X115173000Y-93258146D03*
%TD*%
D23*
%TO.C,TP4*%
X81716000Y-102250000D03*
%TD*%
D11*
%TO.C,R15*%
X110236000Y-92048000D03*
X110236000Y-93243000D03*
%TD*%
D26*
%TO.C,C2*%
X83240000Y-94428500D03*
X83240000Y-95563500D03*
%TD*%
D10*
%TO.C,R16*%
X109347000Y-100990000D03*
X109347000Y-99795000D03*
%TD*%
D20*
%TO.C,C12*%
X73636500Y-92202000D03*
X71911500Y-92202000D03*
%TD*%
D27*
%TO.C,R1*%
X107969055Y-76442957D03*
X109164055Y-76442957D03*
%TD*%
D14*
%TO.C,C14*%
X59944000Y-96924500D03*
X59944000Y-100179500D03*
%TD*%
D24*
%TO.C,R17*%
X95702000Y-94742000D03*
X97702000Y-94742000D03*
%TD*%
D15*
%TO.C,Q3*%
X110297000Y-95518000D03*
X108397000Y-95518000D03*
X109347000Y-97393000D03*
%TD*%
D22*
%TO.C,D1*%
X114173000Y-102688146D03*
X114173000Y-103833146D03*
%TD*%
D27*
%TO.C,R4*%
X107969055Y-82412957D03*
X109164055Y-82412957D03*
%TD*%
D23*
%TO.C,TP3*%
X75630000Y-102250000D03*
%TD*%
D25*
%TO.C,L1*%
X84600000Y-94488000D03*
X86900000Y-94488000D03*
%TD*%
D10*
%TO.C,R10*%
X103342400Y-100858146D03*
X103342400Y-99663146D03*
%TD*%
D27*
%TO.C,R2*%
X107969055Y-78432957D03*
X109164055Y-78432957D03*
%TD*%
D28*
%TO.C,U2*%
X69698000Y-104600000D03*
X69698000Y-102300000D03*
D29*
X63398000Y-102300000D03*
D28*
X69698000Y-100000000D03*
%TD*%
D27*
%TO.C,R3*%
X107969055Y-80422957D03*
X109164055Y-80422957D03*
%TD*%
D22*
%TO.C,D3*%
X109347000Y-102741000D03*
X109347000Y-103886000D03*
%TD*%
D23*
%TO.C,TP2*%
X81750000Y-94488000D03*
%TD*%
D28*
%TO.C,U1*%
X69674000Y-96788000D03*
X69674000Y-94488000D03*
D29*
X63374000Y-94488000D03*
D28*
X69674000Y-92188000D03*
%TD*%
D15*
%TO.C,Q1*%
X115173000Y-95423146D03*
X113273000Y-95423146D03*
X114223000Y-97298146D03*
%TD*%
D23*
%TO.C,TP1*%
X75750000Y-94488000D03*
%TD*%
D24*
%TO.C,R18*%
X95702000Y-102250000D03*
X97702000Y-102250000D03*
%TD*%
D30*
%TO.C,J1*%
X64900000Y-58628000D03*
D31*
X64900000Y-56088000D03*
X67440000Y-58628000D03*
X67440000Y-56088000D03*
X69980000Y-58628000D03*
D32*
X69980000Y-56088000D03*
D31*
X72520000Y-58628000D03*
X72520000Y-56088000D03*
D32*
X75060000Y-58628000D03*
D31*
X75060000Y-56088000D03*
X77600000Y-58628000D03*
X77600000Y-56088000D03*
X80140000Y-58628000D03*
D32*
X80140000Y-56088000D03*
D31*
X82680000Y-58628000D03*
X82680000Y-56088000D03*
X85220000Y-58628000D03*
X85220000Y-56088000D03*
X87760000Y-58628000D03*
D32*
X87760000Y-56088000D03*
D31*
X90300000Y-58628000D03*
X90300000Y-56088000D03*
X92840000Y-58628000D03*
X92840000Y-56088000D03*
D32*
X95380000Y-58628000D03*
D31*
X95380000Y-56088000D03*
X97920000Y-58628000D03*
X97920000Y-56088000D03*
X100460000Y-58628000D03*
D32*
X100460000Y-56088000D03*
D31*
X103000000Y-58628000D03*
X103000000Y-56088000D03*
X105540000Y-58628000D03*
D32*
X105540000Y-56088000D03*
D31*
X108080000Y-58628000D03*
X108080000Y-56088000D03*
X110620000Y-58628000D03*
X110620000Y-56088000D03*
D32*
X113160000Y-58628000D03*
D31*
X113160000Y-56088000D03*
%TD*%
D26*
%TO.C,C4*%
X92130000Y-94682500D03*
X92130000Y-95817500D03*
%TD*%
D23*
%TO.C,TP6*%
X99750000Y-94742000D03*
%TD*%
D27*
%TO.C,R5*%
X107969055Y-84402957D03*
X109164055Y-84402957D03*
%TD*%
D12*
%TO.C,R12*%
X86377500Y-97790000D03*
X85182500Y-97790000D03*
%TD*%
D27*
%TO.C,R6*%
X107969055Y-86392957D03*
X109164055Y-86392957D03*
%TD*%
M02*
