M48
; DRILL file {KiCad 9.0.2+dfsg-1} date 2026-09-01T09:28:52+0200
; FORMAT={-:-/ absolute / metric / decimal}
; #@! TF.CreationDate,2026-09-01T09:28:52+02:00
; #@! TF.GenerationSoftware,Kicad,Pcbnew,9.0.2+dfsg-1
; #@! TF.FileFunction,Plated,1,2,PTH
FMAT,2
METRIC
; #@! TA.AperFunction,Plated,PTH,ViaDrill
T1C0.300
; #@! TA.AperFunction,Plated,PTH,ComponentDrill
T2C0.850
; #@! TA.AperFunction,Plated,PTH,ComponentDrill
T3C0.950
; #@! TA.AperFunction,Plated,PTH,ComponentDrill
T4C1.000
; #@! TA.AperFunction,Plated,PTH,ComponentDrill
T5C1.050
%
G90
G05
T1
X57.5Y-60.0
X57.5Y-61.0
X57.5Y-62.0
X57.5Y-63.0
X57.5Y-64.0
X57.5Y-65.0
X57.5Y-66.0
X57.5Y-67.0
X57.5Y-68.0
X57.5Y-69.0
X57.5Y-70.0
X57.5Y-71.0
X57.5Y-72.0
X57.5Y-91.5
X57.5Y-92.5
X57.5Y-93.5
X57.5Y-94.5
X57.5Y-95.5
X57.5Y-96.5
X57.5Y-97.5
X57.5Y-98.5
X57.5Y-99.5
X57.5Y-100.5
X57.5Y-101.5
X57.5Y-102.5
X57.5Y-103.5
X58.5Y-72.0
X58.5Y-91.5
X58.5Y-98.5
X58.5Y-101.5
X59.5Y-72.0
X59.5Y-91.5
X59.5Y-98.5
X59.5Y-101.5
X60.5Y-72.0
X60.5Y-101.5
X61.5Y-72.5
X61.5Y-101.5
X62.0Y-91.5
X62.5Y-91.0
X63.0Y-108.5
X64.0Y-108.5
X65.0Y-108.5
X66.0Y-108.5
X67.0Y-108.5
X67.5Y-72.644
X68.0Y-96.0
X68.0Y-97.0
X68.0Y-104.0
X68.0Y-105.0
X68.0Y-106.0
X68.0Y-108.5
X69.0Y-106.0
X69.0Y-108.5
X69.5Y-98.5
X70.0Y-72.75
X70.0Y-106.0
X70.0Y-108.5
X70.5Y-98.5
X71.0Y-106.0
X71.0Y-107.0
X71.0Y-108.5
X71.5Y-96.5
X72.0Y-104.0
X72.0Y-107.0
X72.0Y-108.5
X72.5Y-96.5
X73.0Y-91.0
X73.0Y-104.0
X73.0Y-107.0
X73.0Y-108.5
X73.5Y-96.5
X74.0Y-91.0
X74.0Y-104.0
X74.0Y-107.0
X74.0Y-108.5
X74.5Y-96.5
X74.5Y-97.5
X74.5Y-98.5
X75.0Y-91.0
X75.0Y-92.0
X75.0Y-93.0
X75.0Y-104.0
X75.0Y-105.0
X75.0Y-106.0
X75.0Y-107.0
X75.0Y-108.5
X76.0Y-108.5
X77.0Y-108.5
X78.0Y-108.5
X79.0Y-108.5
X80.0Y-108.5
X81.0Y-108.5
X82.0Y-96.5
X82.0Y-108.5
X82.25Y-103.75
X82.5Y-96.0
X82.5Y-97.0
X82.75Y-104.25
X83.0Y-96.5
X83.0Y-108.5
X83.5Y-97.0
X83.5Y-104.25
X84.0Y-96.5
X84.0Y-97.5
X84.0Y-98.5
X84.0Y-99.5
X84.0Y-105.0
X84.0Y-105.75
X84.0Y-108.5
X84.25Y-103.75
X84.5Y-96.0
X84.5Y-97.0
X84.5Y-99.0
X84.5Y-104.5
X84.5Y-106.5
X85.0Y-96.5
X85.0Y-99.5
X85.0Y-108.5
X85.25Y-104.5
X85.25Y-106.5
X85.5Y-99.0
X86.0Y-96.5
X86.0Y-99.5
X86.0Y-108.5
X87.0Y-108.5
X88.0Y-108.5
X88.95Y-78.35
X89.0Y-108.5
X90.0Y-108.5
X91.0Y-80.75
X91.0Y-108.5
X91.25Y-96.0
X91.25Y-96.75
X91.25Y-104.0
X92.0Y-96.75
X92.0Y-104.5
X92.0Y-108.5
X92.75Y-96.5
X92.75Y-97.25
X92.75Y-104.75
X93.0Y-108.5
X93.25Y-97.75
X93.25Y-105.25
X94.0Y-97.75
X94.0Y-105.25
X94.0Y-108.5
X94.5Y-82.35
X94.5Y-79.148
X94.5Y-79.948
X94.5Y-83.95
X94.5Y-84.75
X94.5Y-83.15
X94.996Y-86.106
X95.0Y-108.5
X95.504Y-90.678
X96.0Y-108.5
X97.0Y-108.5
X98.0Y-108.5
X99.0Y-108.5
X99.364Y-81.95
X100.0Y-108.5
X101.0Y-108.5
X102.0Y-108.5
X102.25Y-96.75
X103.0Y-108.5
X103.25Y-94.0
X103.25Y-94.75
X103.25Y-95.5
X104.0Y-108.5
X104.949Y-82.162
X105.0Y-108.5
X106.0Y-108.5
X107.0Y-108.5
X107.061Y-76.4
X107.061Y-78.45
X107.061Y-80.43
X107.061Y-82.42
X107.061Y-84.4
X107.061Y-86.4
X107.5Y-94.5
X107.5Y-95.25
X107.5Y-96.0
X107.5Y-96.75
X108.0Y-108.5
X108.25Y-94.25
X108.25Y-97.0
X109.0Y-94.25
X109.0Y-108.5
X109.093Y-75.057
X110.0Y-108.5
X110.75Y-76.25
X110.75Y-79.0
X110.75Y-81.33
X111.0Y-108.5
X112.0Y-108.5
X112.5Y-94.5
X112.5Y-95.25
X112.5Y-96.0
X112.5Y-96.75
X113.0Y-108.5
X113.25Y-94.0
X113.25Y-97.0
X114.0Y-94.0
X114.0Y-108.5
X115.0Y-108.5
X119.0Y-77.0
X119.0Y-79.25
X119.0Y-81.75
X119.0Y-84.0
X119.75Y-77.0
X119.75Y-79.25
X119.75Y-81.75
X119.75Y-84.0
X120.5Y-60.5
X120.5Y-61.5
X120.5Y-62.5
X120.5Y-63.5
X120.5Y-64.5
X120.5Y-65.5
X120.5Y-66.5
X120.5Y-67.5
X120.5Y-68.5
X120.5Y-69.5
X120.5Y-70.5
X120.5Y-71.5
X120.5Y-72.5
X120.5Y-73.5
X120.5Y-74.5
X120.5Y-75.5
X120.5Y-76.25
X120.5Y-77.0
X120.5Y-79.25
X120.5Y-81.75
X120.5Y-84.0
X120.5Y-85.0
X120.5Y-86.0
X120.5Y-87.0
X120.5Y-88.0
X120.5Y-89.0
X120.5Y-90.0
X120.5Y-91.0
X120.5Y-92.0
X120.5Y-93.0
X120.5Y-94.0
X120.5Y-95.0
X120.5Y-96.0
X120.5Y-97.0
X120.5Y-98.0
X120.5Y-99.0
X120.5Y-100.0
X120.5Y-101.0
X120.5Y-102.0
X120.5Y-103.0
T2
X95.975Y-74.625
T3
X88.775Y-74.625
X88.775Y-88.875
X93.475Y-74.625
X93.475Y-88.875
X98.475Y-74.625
X98.475Y-88.875
X103.075Y-76.95
X103.075Y-81.75
X103.075Y-86.55
T4
X64.9Y-56.088
X64.9Y-58.628
X67.44Y-56.088
X67.44Y-58.628
X69.98Y-56.088
X69.98Y-58.628
X72.52Y-56.088
X72.52Y-58.628
X75.06Y-56.088
X75.06Y-58.628
X77.6Y-56.088
X77.6Y-58.628
X80.14Y-56.088
X80.14Y-58.628
X82.68Y-56.088
X82.68Y-58.628
X85.22Y-56.088
X85.22Y-58.628
X87.76Y-56.088
X87.76Y-58.628
X90.3Y-56.088
X90.3Y-58.628
X92.84Y-56.088
X92.84Y-58.628
X95.38Y-56.088
X95.38Y-58.628
X97.92Y-56.088
X97.92Y-58.628
X100.46Y-56.088
X100.46Y-58.628
X103.0Y-56.088
X103.0Y-58.628
X105.54Y-56.088
X105.54Y-58.628
X108.08Y-56.088
X108.08Y-58.628
X110.62Y-56.088
X110.62Y-58.628
X113.16Y-56.088
X113.16Y-58.628
T5
X65.975Y-74.625
X65.975Y-83.2
X70.975Y-88.875
X75.975Y-74.625
X80.975Y-88.875
X85.975Y-74.625
X85.975Y-80.3
X85.975Y-85.7
X90.975Y-88.875
X100.975Y-88.875
M30
