%TF.GenerationSoftware,KiCad,Pcbnew,9.0.2+dfsg-1*%
%TF.CreationDate,2026-09-01T09:28:49+02:00*%
%TF.ProjectId,Raspberry_Pi_SFP_Programmer,52617370-6265-4727-9279-5f50695f5346,0.2*%
%TF.SameCoordinates,Original*%
%TF.FileFunction,Profile,NP*%
%FSLAX46Y46*%
G04 Gerber Fmt 4.6, Leading zero omitted, Abs format (unit mm)*
G04 Created by KiCad (PCBNEW 9.0.2+dfsg-1) date 2026-09-01 09:28:49*
%MOMM*%
%LPD*%
G01*
G04 APERTURE LIST*
%TA.AperFunction,Profile*%
%ADD10C,0.100000*%
%TD*%
%TA.AperFunction,Profile*%
%ADD11C,0.050000*%
%TD*%
G04 APERTURE END LIST*
D10*
%TO.C,J1*%
X56500000Y-56750000D02*
X56500000Y-72250000D01*
X56500000Y-91250000D02*
X56500000Y-106750000D01*
X57500000Y-73250000D02*
X60500000Y-73250000D01*
X57500000Y-90250000D02*
X60500000Y-90250000D01*
X59500000Y-53750000D02*
X118500000Y-53750000D01*
X59500000Y-109750000D02*
X118500000Y-109750000D01*
X61500000Y-74250000D02*
X61500000Y-89250000D01*
X121500000Y-56750000D02*
X121500000Y-106750000D01*
X56500000Y-56750000D02*
G75*
G02*
X59500000Y-53750000I3000001J-1D01*
G01*
X56500000Y-91250000D02*
G75*
G02*
X57500000Y-90250000I999999J1D01*
G01*
X57500000Y-73250000D02*
G75*
G02*
X56500000Y-72250000I-1J999999D01*
G01*
X59500000Y-109750000D02*
G75*
G02*
X56500000Y-106750000I1J3000001D01*
G01*
X60500000Y-73250000D02*
G75*
G02*
X61500000Y-74250000I1J-999999D01*
G01*
X61500000Y-89250000D02*
G75*
G02*
X60500000Y-90250000I-999999J-1D01*
G01*
X118500000Y-53750000D02*
G75*
G02*
X121500000Y-56750000I0J-3000000D01*
G01*
X121500000Y-106750000D02*
G75*
G02*
X118500000Y-109750000I-3000000J0D01*
G01*
D11*
X61500001Y-57250000D02*
G75*
G02*
X58499999Y-57250000I-1500001J0D01*
G01*
X58499999Y-57250000D02*
G75*
G02*
X61500001Y-57250000I1500001J0D01*
G01*
X61500001Y-106250000D02*
G75*
G02*
X58499999Y-106250000I-1500001J0D01*
G01*
X58499999Y-106250000D02*
G75*
G02*
X61500001Y-106250000I1500001J0D01*
G01*
X119500001Y-57250000D02*
G75*
G02*
X116499999Y-57250000I-1500001J0D01*
G01*
X116499999Y-57250000D02*
G75*
G02*
X119500001Y-57250000I1500001J0D01*
G01*
X119500001Y-106250000D02*
G75*
G02*
X116499999Y-106250000I-1500001J0D01*
G01*
X116499999Y-106250000D02*
G75*
G02*
X119500001Y-106250000I1500001J0D01*
G01*
%TD*%
M02*
