%TF.GenerationSoftware,KiCad,Pcbnew,9.0.2+dfsg-1*%
%TF.CreationDate,2026-09-01T09:28:47+02:00*%
%TF.ProjectId,Raspberry_Pi_SFP_Programmer,52617370-6265-4727-9279-5f50695f5346,0.2*%
%TF.SameCoordinates,Original*%
%TF.FileFunction,Legend,Top*%
%TF.FilePolarity,Positive*%
%FSLAX46Y46*%
G04 Gerber Fmt 4.6, Leading zero omitted, Abs format (unit mm)*
G04 Created by KiCad (PCBNEW 9.0.2+dfsg-1) date 2026-09-01 09:28:47*
%MOMM*%
%LPD*%
G01*
G04 APERTURE LIST*
%ADD10C,0.100000*%
%ADD11C,0.200000*%
%ADD12C,0.150000*%
%ADD13C,0.120000*%
%ADD14C,0.152400*%
G04 APERTURE END LIST*
D10*
G36*
X72283530Y-66851586D02*
G01*
X70961308Y-66851586D01*
X70961308Y-66261904D01*
X71072419Y-66261904D01*
X71072419Y-66499999D01*
X71072907Y-66502455D01*
X71072545Y-66503544D01*
X71074661Y-66511271D01*
X71076225Y-66519133D01*
X71077036Y-66519944D01*
X71077698Y-66522360D01*
X71125316Y-66617597D01*
X71130231Y-66623930D01*
X71134683Y-66630592D01*
X71182301Y-66678211D01*
X71188967Y-66682665D01*
X71195296Y-66687577D01*
X71290534Y-66735196D01*
X71292949Y-66735857D01*
X71293761Y-66736669D01*
X71301622Y-66738232D01*
X71309350Y-66740349D01*
X71310438Y-66739986D01*
X71312895Y-66740475D01*
X71408133Y-66740475D01*
X71410589Y-66739986D01*
X71411678Y-66740349D01*
X71419405Y-66738232D01*
X71427267Y-66736669D01*
X71428078Y-66735857D01*
X71430494Y-66735196D01*
X71525731Y-66687578D01*
X71532064Y-66682662D01*
X71538726Y-66678211D01*
X71586345Y-66630593D01*
X71590799Y-66623926D01*
X71595711Y-66617598D01*
X71643330Y-66522360D01*
X71644776Y-66517078D01*
X71647116Y-66512126D01*
X71693404Y-66326974D01*
X71734939Y-66243902D01*
X71771084Y-66207758D01*
X71848508Y-66169047D01*
X71920139Y-66169047D01*
X71997561Y-66207758D01*
X72033708Y-66243904D01*
X72072419Y-66321326D01*
X72072419Y-66539505D01*
X72027366Y-66674664D01*
X72024926Y-66694019D01*
X72042040Y-66728248D01*
X72078344Y-66740349D01*
X72112573Y-66723235D01*
X72122234Y-66706286D01*
X72169853Y-66563430D01*
X72170855Y-66555479D01*
X72172419Y-66547618D01*
X72172419Y-66309523D01*
X72171930Y-66307066D01*
X72172293Y-66305978D01*
X72170176Y-66298250D01*
X72168613Y-66290389D01*
X72167801Y-66289577D01*
X72167140Y-66287162D01*
X72119521Y-66191924D01*
X72114609Y-66185595D01*
X72110155Y-66178929D01*
X72062535Y-66131310D01*
X72055868Y-66126855D01*
X72049540Y-66121944D01*
X71954303Y-66074326D01*
X71951887Y-66073664D01*
X71951076Y-66072853D01*
X71943214Y-66071289D01*
X71935487Y-66069173D01*
X71934398Y-66069535D01*
X71931942Y-66069047D01*
X71836704Y-66069047D01*
X71834247Y-66069535D01*
X71833159Y-66069173D01*
X71825431Y-66071289D01*
X71817570Y-66072853D01*
X71816758Y-66073664D01*
X71814343Y-66074326D01*
X71719105Y-66121945D01*
X71712776Y-66126856D01*
X71706110Y-66131311D01*
X71658492Y-66178930D01*
X71654040Y-66185591D01*
X71649125Y-66191925D01*
X71601507Y-66287162D01*
X71600060Y-66292443D01*
X71597721Y-66297396D01*
X71551433Y-66482546D01*
X71509897Y-66565618D01*
X71473753Y-66601763D01*
X71396330Y-66640475D01*
X71324699Y-66640475D01*
X71247275Y-66601763D01*
X71211130Y-66565619D01*
X71172419Y-66488196D01*
X71172419Y-66270017D01*
X71217472Y-66134859D01*
X71219912Y-66115503D01*
X71202798Y-66081275D01*
X71166494Y-66069173D01*
X71132265Y-66086288D01*
X71122604Y-66103236D01*
X71074985Y-66246093D01*
X71073982Y-66254041D01*
X71072419Y-66261904D01*
X70961308Y-66261904D01*
X70961308Y-65309523D01*
X71072419Y-65309523D01*
X71072419Y-65404761D01*
X71073982Y-65412623D01*
X71074985Y-65420572D01*
X71122604Y-65563429D01*
X71123844Y-65565604D01*
X71123844Y-65566752D01*
X71128297Y-65573416D01*
X71132265Y-65580377D01*
X71133291Y-65580890D01*
X71134683Y-65582973D01*
X71229921Y-65678211D01*
X71236580Y-65682661D01*
X71242915Y-65687577D01*
X71338153Y-65735196D01*
X71343434Y-65736642D01*
X71348387Y-65738982D01*
X71538863Y-65786601D01*
X71544980Y-65786898D01*
X71550990Y-65788094D01*
X71693847Y-65788094D01*
X71699856Y-65786898D01*
X71705974Y-65786601D01*
X71896450Y-65738982D01*
X71901402Y-65736642D01*
X71906684Y-65735196D01*
X72001921Y-65687578D01*
X72008249Y-65682666D01*
X72014916Y-65678212D01*
X72110155Y-65582973D01*
X72111545Y-65580891D01*
X72112573Y-65580378D01*
X72116543Y-65573412D01*
X72120994Y-65566752D01*
X72120994Y-65565604D01*
X72122234Y-65563429D01*
X72169853Y-65420573D01*
X72170855Y-65412622D01*
X72172419Y-65404761D01*
X72172419Y-65309523D01*
X72170855Y-65301661D01*
X72169853Y-65293711D01*
X72122234Y-65150855D01*
X72120994Y-65148679D01*
X72120994Y-65147531D01*
X72116539Y-65140864D01*
X72112573Y-65133906D01*
X72111546Y-65133392D01*
X72110155Y-65131310D01*
X72062535Y-65083691D01*
X72046314Y-65072853D01*
X72008045Y-65072853D01*
X71980986Y-65099913D01*
X71980986Y-65138182D01*
X71991825Y-65154403D01*
X72031099Y-65193676D01*
X72072419Y-65317636D01*
X72072419Y-65396648D01*
X72031099Y-65520607D01*
X71949942Y-65601763D01*
X71866872Y-65643299D01*
X71687692Y-65688094D01*
X71557145Y-65688094D01*
X71377966Y-65643299D01*
X71294892Y-65601762D01*
X71213739Y-65520609D01*
X71172419Y-65396647D01*
X71172419Y-65317636D01*
X71213739Y-65193674D01*
X71253012Y-65154403D01*
X71263851Y-65138182D01*
X71263851Y-65099913D01*
X71236791Y-65072853D01*
X71198522Y-65072853D01*
X71182301Y-65083692D01*
X71134683Y-65131311D01*
X71133291Y-65133393D01*
X71132265Y-65133907D01*
X71128297Y-65140867D01*
X71123844Y-65147532D01*
X71123844Y-65148679D01*
X71122604Y-65150855D01*
X71074985Y-65293712D01*
X71073982Y-65301660D01*
X71072419Y-65309523D01*
X70961308Y-65309523D01*
X70961308Y-64671341D01*
X71076225Y-64671341D01*
X71076225Y-64709609D01*
X71103285Y-64736669D01*
X71122419Y-64740475D01*
X72122419Y-64740475D01*
X72141553Y-64736669D01*
X72168613Y-64709609D01*
X72172419Y-64690475D01*
X72172419Y-64214285D01*
X72168613Y-64195151D01*
X72141553Y-64168091D01*
X72103285Y-64168091D01*
X72076225Y-64195151D01*
X72072419Y-64214285D01*
X72072419Y-64640475D01*
X71122419Y-64640475D01*
X71103285Y-64644281D01*
X71076225Y-64671341D01*
X70961308Y-64671341D01*
X70961308Y-64056980D01*
X72283530Y-64056980D01*
X72283530Y-66851586D01*
G37*
G36*
X66116872Y-65237652D02*
G01*
X66199942Y-65279187D01*
X66281099Y-65360343D01*
X66322419Y-65484303D01*
X66322419Y-65664285D01*
X65422419Y-65664285D01*
X65422419Y-65484303D01*
X65463739Y-65360341D01*
X65544892Y-65279188D01*
X65627966Y-65237651D01*
X65807145Y-65192857D01*
X65937692Y-65192857D01*
X66116872Y-65237652D01*
G37*
G36*
X66036704Y-64692532D02*
G01*
X65530532Y-64523809D01*
X66036704Y-64355085D01*
X66036704Y-64692532D01*
G37*
G36*
X66533530Y-66875396D02*
G01*
X65211308Y-66875396D01*
X65211308Y-66285714D01*
X65322419Y-66285714D01*
X65322419Y-66523809D01*
X65322907Y-66526265D01*
X65322545Y-66527354D01*
X65324661Y-66535081D01*
X65326225Y-66542943D01*
X65327036Y-66543754D01*
X65327698Y-66546170D01*
X65375316Y-66641407D01*
X65380231Y-66647740D01*
X65384683Y-66654402D01*
X65432301Y-66702021D01*
X65438967Y-66706475D01*
X65445296Y-66711387D01*
X65540534Y-66759006D01*
X65542949Y-66759667D01*
X65543761Y-66760479D01*
X65551622Y-66762042D01*
X65559350Y-66764159D01*
X65560438Y-66763796D01*
X65562895Y-66764285D01*
X65658133Y-66764285D01*
X65660589Y-66763796D01*
X65661678Y-66764159D01*
X65669405Y-66762042D01*
X65677267Y-66760479D01*
X65678078Y-66759667D01*
X65680494Y-66759006D01*
X65775731Y-66711388D01*
X65782064Y-66706472D01*
X65788726Y-66702021D01*
X65836345Y-66654403D01*
X65840799Y-66647736D01*
X65845711Y-66641408D01*
X65893330Y-66546170D01*
X65894776Y-66540888D01*
X65897116Y-66535936D01*
X65943404Y-66350784D01*
X65984939Y-66267712D01*
X66021084Y-66231568D01*
X66098508Y-66192857D01*
X66170139Y-66192857D01*
X66247561Y-66231568D01*
X66283708Y-66267714D01*
X66322419Y-66345136D01*
X66322419Y-66563315D01*
X66277366Y-66698474D01*
X66274926Y-66717829D01*
X66292040Y-66752058D01*
X66328344Y-66764159D01*
X66362573Y-66747045D01*
X66372234Y-66730096D01*
X66419853Y-66587240D01*
X66420855Y-66579289D01*
X66422419Y-66571428D01*
X66422419Y-66333333D01*
X66421930Y-66330876D01*
X66422293Y-66329788D01*
X66420176Y-66322060D01*
X66418613Y-66314199D01*
X66417801Y-66313387D01*
X66417140Y-66310972D01*
X66369521Y-66215734D01*
X66364609Y-66209405D01*
X66360155Y-66202739D01*
X66312535Y-66155120D01*
X66305868Y-66150665D01*
X66299540Y-66145754D01*
X66204303Y-66098136D01*
X66201887Y-66097474D01*
X66201076Y-66096663D01*
X66193214Y-66095099D01*
X66185487Y-66092983D01*
X66184398Y-66093345D01*
X66181942Y-66092857D01*
X66086704Y-66092857D01*
X66084247Y-66093345D01*
X66083159Y-66092983D01*
X66075431Y-66095099D01*
X66067570Y-66096663D01*
X66066758Y-66097474D01*
X66064343Y-66098136D01*
X65969105Y-66145755D01*
X65962776Y-66150666D01*
X65956110Y-66155121D01*
X65908492Y-66202740D01*
X65904040Y-66209401D01*
X65899125Y-66215735D01*
X65851507Y-66310972D01*
X65850060Y-66316253D01*
X65847721Y-66321206D01*
X65801433Y-66506356D01*
X65759897Y-66589428D01*
X65723753Y-66625573D01*
X65646330Y-66664285D01*
X65574699Y-66664285D01*
X65497275Y-66625573D01*
X65461130Y-66589429D01*
X65422419Y-66512006D01*
X65422419Y-66293827D01*
X65467472Y-66158669D01*
X65469912Y-66139313D01*
X65452798Y-66105085D01*
X65416494Y-66092983D01*
X65382265Y-66110098D01*
X65372604Y-66127046D01*
X65324985Y-66269903D01*
X65323982Y-66277851D01*
X65322419Y-66285714D01*
X65211308Y-66285714D01*
X65211308Y-65476190D01*
X65322419Y-65476190D01*
X65322419Y-65714285D01*
X65326225Y-65733419D01*
X65353285Y-65760479D01*
X65372419Y-65764285D01*
X66372419Y-65764285D01*
X66391553Y-65760479D01*
X66418613Y-65733419D01*
X66422419Y-65714285D01*
X66422419Y-65476190D01*
X66420855Y-65468328D01*
X66419853Y-65460378D01*
X66372234Y-65317522D01*
X66370994Y-65315346D01*
X66370994Y-65314199D01*
X66366543Y-65307538D01*
X66362573Y-65300573D01*
X66361545Y-65300059D01*
X66360155Y-65297978D01*
X66264916Y-65202739D01*
X66258249Y-65198284D01*
X66251921Y-65193373D01*
X66156684Y-65145755D01*
X66151402Y-65144308D01*
X66146450Y-65141969D01*
X65955974Y-65094350D01*
X65949856Y-65094052D01*
X65943847Y-65092857D01*
X65800990Y-65092857D01*
X65794980Y-65094052D01*
X65788863Y-65094350D01*
X65598387Y-65141969D01*
X65593434Y-65144308D01*
X65588153Y-65145755D01*
X65492915Y-65193374D01*
X65486580Y-65198289D01*
X65479921Y-65202740D01*
X65384683Y-65297978D01*
X65383291Y-65300060D01*
X65382265Y-65300574D01*
X65378297Y-65307534D01*
X65373844Y-65314199D01*
X65373844Y-65315346D01*
X65372604Y-65317522D01*
X65324985Y-65460379D01*
X65323982Y-65468327D01*
X65322419Y-65476190D01*
X65211308Y-65476190D01*
X65211308Y-64520265D01*
X65322545Y-64520265D01*
X65323726Y-64523809D01*
X65322545Y-64527353D01*
X65329632Y-64541529D01*
X65334646Y-64556569D01*
X65337988Y-64558239D01*
X65339659Y-64561582D01*
X65356608Y-64571243D01*
X66356607Y-64904576D01*
X66375963Y-64907016D01*
X66410191Y-64889902D01*
X66422293Y-64853598D01*
X66405178Y-64819369D01*
X66388230Y-64809708D01*
X66136704Y-64725866D01*
X66136704Y-64321751D01*
X66388230Y-64237910D01*
X66405178Y-64228249D01*
X66422293Y-64194020D01*
X66410191Y-64157716D01*
X66375963Y-64140602D01*
X66356607Y-64143042D01*
X65356608Y-64476375D01*
X65339659Y-64486036D01*
X65337988Y-64489378D01*
X65334646Y-64491049D01*
X65329632Y-64506088D01*
X65322545Y-64520265D01*
X65211308Y-64520265D01*
X65211308Y-64029491D01*
X66533530Y-64029491D01*
X66533530Y-66875396D01*
G37*
G36*
X98317885Y-105387130D02*
G01*
X98354029Y-105423275D01*
X98392741Y-105500698D01*
X98392741Y-105619948D01*
X98354029Y-105697371D01*
X98317885Y-105733516D01*
X98240462Y-105772228D01*
X97921313Y-105772228D01*
X97921313Y-105348419D01*
X98240462Y-105348419D01*
X98317885Y-105387130D01*
G37*
G36*
X98603852Y-106459530D02*
G01*
X94996042Y-106459530D01*
X94996042Y-105294875D01*
X95107153Y-105294875D01*
X95109593Y-105314230D01*
X95442926Y-106314230D01*
X95452587Y-106331178D01*
X95455928Y-106332848D01*
X95457600Y-106336192D01*
X95472642Y-106341205D01*
X95486816Y-106348293D01*
X95490359Y-106347111D01*
X95493904Y-106348293D01*
X95508083Y-106341203D01*
X95523120Y-106336191D01*
X95524790Y-106332850D01*
X95528133Y-106331179D01*
X95537794Y-106314230D01*
X95701795Y-105822228D01*
X96059408Y-105822228D01*
X96059408Y-106107942D01*
X96059896Y-106110398D01*
X96059534Y-106111487D01*
X96061650Y-106119214D01*
X96063214Y-106127076D01*
X96064025Y-106127887D01*
X96064687Y-106130303D01*
X96112305Y-106225540D01*
X96117216Y-106231868D01*
X96121671Y-106238535D01*
X96169290Y-106286155D01*
X96175956Y-106290609D01*
X96182285Y-106295521D01*
X96277523Y-106343140D01*
X96279938Y-106343801D01*
X96280750Y-106344613D01*
X96288611Y-106346176D01*
X96296339Y-106348293D01*
X96297427Y-106347930D01*
X96299884Y-106348419D01*
X96490360Y-106348419D01*
X96492816Y-106347930D01*
X96493905Y-106348293D01*
X96501632Y-106346176D01*
X96509494Y-106344613D01*
X96510305Y-106343801D01*
X96512721Y-106343140D01*
X96607958Y-106295522D01*
X96623370Y-106283560D01*
X96635472Y-106247256D01*
X96618358Y-106213028D01*
X96582053Y-106200926D01*
X96563237Y-106206079D01*
X96478557Y-106248419D01*
X96311688Y-106248419D01*
X96234265Y-106209708D01*
X96198119Y-106173561D01*
X96159408Y-106096139D01*
X96159408Y-105834031D01*
X96165309Y-105822228D01*
X96916551Y-105822228D01*
X96916551Y-106107942D01*
X96917039Y-106110398D01*
X96916677Y-106111487D01*
X96918793Y-106119214D01*
X96920357Y-106127076D01*
X96921168Y-106127887D01*
X96921830Y-106130303D01*
X96969448Y-106225540D01*
X96974359Y-106231868D01*
X96978814Y-106238535D01*
X97026433Y-106286155D01*
X97033099Y-106290609D01*
X97039428Y-106295521D01*
X97134666Y-106343140D01*
X97137081Y-106343801D01*
X97137893Y-106344613D01*
X97145754Y-106346176D01*
X97153482Y-106348293D01*
X97154570Y-106347930D01*
X97157027Y-106348419D01*
X97347503Y-106348419D01*
X97349959Y-106347930D01*
X97351048Y-106348293D01*
X97358775Y-106346176D01*
X97366637Y-106344613D01*
X97367448Y-106343801D01*
X97369864Y-106343140D01*
X97465101Y-106295522D01*
X97480513Y-106283560D01*
X97492615Y-106247256D01*
X97475501Y-106213028D01*
X97439196Y-106200926D01*
X97420380Y-106206079D01*
X97335700Y-106248419D01*
X97168831Y-106248419D01*
X97091408Y-106209708D01*
X97055262Y-106173561D01*
X97016551Y-106096139D01*
X97016551Y-105834031D01*
X97055262Y-105756607D01*
X97091407Y-105720463D01*
X97168831Y-105681752D01*
X97335700Y-105681752D01*
X97420380Y-105724092D01*
X97439196Y-105729245D01*
X97475501Y-105717143D01*
X97492615Y-105682915D01*
X97480513Y-105646611D01*
X97465101Y-105634649D01*
X97369864Y-105587031D01*
X97367448Y-105586369D01*
X97366637Y-105585558D01*
X97358775Y-105583994D01*
X97351048Y-105581878D01*
X97349959Y-105582240D01*
X97347503Y-105581752D01*
X97157027Y-105581752D01*
X97154570Y-105582240D01*
X97153482Y-105581878D01*
X97145754Y-105583994D01*
X97137893Y-105585558D01*
X97137081Y-105586369D01*
X97134666Y-105587031D01*
X97039428Y-105634650D01*
X97033099Y-105639561D01*
X97026433Y-105644016D01*
X96978815Y-105691635D01*
X96974363Y-105698296D01*
X96969448Y-105704630D01*
X96921830Y-105799867D01*
X96921168Y-105802282D01*
X96920357Y-105803094D01*
X96918793Y-105810955D01*
X96916677Y-105818683D01*
X96917039Y-105819771D01*
X96916551Y-105822228D01*
X96165309Y-105822228D01*
X96198119Y-105756607D01*
X96234264Y-105720463D01*
X96311688Y-105681752D01*
X96478557Y-105681752D01*
X96563237Y-105724092D01*
X96582053Y-105729245D01*
X96618358Y-105717143D01*
X96635472Y-105682915D01*
X96623370Y-105646611D01*
X96607958Y-105634649D01*
X96512721Y-105587031D01*
X96510305Y-105586369D01*
X96509494Y-105585558D01*
X96501632Y-105583994D01*
X96493905Y-105581878D01*
X96492816Y-105582240D01*
X96490360Y-105581752D01*
X96299884Y-105581752D01*
X96297427Y-105582240D01*
X96296339Y-105581878D01*
X96288611Y-105583994D01*
X96280750Y-105585558D01*
X96279938Y-105586369D01*
X96277523Y-105587031D01*
X96182285Y-105634650D01*
X96175956Y-105639561D01*
X96169290Y-105644016D01*
X96121672Y-105691635D01*
X96117220Y-105698296D01*
X96112305Y-105704630D01*
X96064687Y-105799867D01*
X96064025Y-105802282D01*
X96063214Y-105803094D01*
X96061650Y-105810955D01*
X96059534Y-105818683D01*
X96059896Y-105819771D01*
X96059408Y-105822228D01*
X95701795Y-105822228D01*
X95871127Y-105314231D01*
X95873120Y-105298419D01*
X97821313Y-105298419D01*
X97821313Y-106298419D01*
X97825119Y-106317553D01*
X97852179Y-106344613D01*
X97890447Y-106344613D01*
X97917507Y-106317553D01*
X97921313Y-106298419D01*
X97921313Y-105872228D01*
X98083375Y-105872228D01*
X98401779Y-106327092D01*
X98415870Y-106340585D01*
X98453556Y-106347235D01*
X98484907Y-106325290D01*
X98491557Y-106287604D01*
X98483703Y-106269746D01*
X98205441Y-105872228D01*
X98252265Y-105872228D01*
X98254721Y-105871739D01*
X98255810Y-105872102D01*
X98263537Y-105869985D01*
X98271399Y-105868422D01*
X98272210Y-105867610D01*
X98274626Y-105866949D01*
X98369863Y-105819331D01*
X98376196Y-105814415D01*
X98382858Y-105809964D01*
X98430477Y-105762346D01*
X98434931Y-105755679D01*
X98439843Y-105749351D01*
X98487462Y-105654113D01*
X98488123Y-105651697D01*
X98488935Y-105650886D01*
X98490498Y-105643024D01*
X98492615Y-105635297D01*
X98492252Y-105634208D01*
X98492741Y-105631752D01*
X98492741Y-105488895D01*
X98492252Y-105486438D01*
X98492615Y-105485350D01*
X98490498Y-105477622D01*
X98488935Y-105469761D01*
X98488123Y-105468949D01*
X98487462Y-105466534D01*
X98439843Y-105371296D01*
X98434931Y-105364967D01*
X98430477Y-105358301D01*
X98382858Y-105310683D01*
X98376196Y-105306231D01*
X98369863Y-105301316D01*
X98274626Y-105253698D01*
X98272210Y-105253036D01*
X98271399Y-105252225D01*
X98263537Y-105250661D01*
X98255810Y-105248545D01*
X98254721Y-105248907D01*
X98252265Y-105248419D01*
X97871313Y-105248419D01*
X97852179Y-105252225D01*
X97825119Y-105279285D01*
X97821313Y-105298419D01*
X95873120Y-105298419D01*
X95873567Y-105294875D01*
X95856453Y-105260647D01*
X95820149Y-105248545D01*
X95785920Y-105265660D01*
X95776259Y-105282608D01*
X95490360Y-106140305D01*
X95204461Y-105282608D01*
X95194800Y-105265659D01*
X95160571Y-105248545D01*
X95124267Y-105260646D01*
X95107153Y-105294875D01*
X94996042Y-105294875D01*
X94996042Y-105137308D01*
X98603852Y-105137308D01*
X98603852Y-106459530D01*
G37*
G36*
X98457189Y-99093530D02*
G01*
X94996042Y-99093530D01*
X94996042Y-97928875D01*
X95107153Y-97928875D01*
X95109593Y-97948230D01*
X95442926Y-98948230D01*
X95452587Y-98965178D01*
X95455928Y-98966848D01*
X95457600Y-98970192D01*
X95472642Y-98975205D01*
X95486816Y-98982293D01*
X95490359Y-98981111D01*
X95493904Y-98982293D01*
X95508083Y-98975203D01*
X95523120Y-98970191D01*
X95524790Y-98966850D01*
X95528133Y-98965179D01*
X95537794Y-98948230D01*
X95701795Y-98456228D01*
X96059408Y-98456228D01*
X96059408Y-98741942D01*
X96059896Y-98744398D01*
X96059534Y-98745487D01*
X96061650Y-98753214D01*
X96063214Y-98761076D01*
X96064025Y-98761887D01*
X96064687Y-98764303D01*
X96112305Y-98859540D01*
X96117216Y-98865868D01*
X96121671Y-98872535D01*
X96169290Y-98920155D01*
X96175956Y-98924609D01*
X96182285Y-98929521D01*
X96277523Y-98977140D01*
X96279938Y-98977801D01*
X96280750Y-98978613D01*
X96288611Y-98980176D01*
X96296339Y-98982293D01*
X96297427Y-98981930D01*
X96299884Y-98982419D01*
X96490360Y-98982419D01*
X96492816Y-98981930D01*
X96493905Y-98982293D01*
X96501632Y-98980176D01*
X96509494Y-98978613D01*
X96510305Y-98977801D01*
X96512721Y-98977140D01*
X96607958Y-98929522D01*
X96623370Y-98917560D01*
X96635472Y-98881256D01*
X96618358Y-98847028D01*
X96582053Y-98834926D01*
X96563237Y-98840079D01*
X96478557Y-98882419D01*
X96311688Y-98882419D01*
X96234265Y-98843708D01*
X96198119Y-98807561D01*
X96159408Y-98730139D01*
X96159408Y-98468031D01*
X96165309Y-98456228D01*
X96916551Y-98456228D01*
X96916551Y-98741942D01*
X96917039Y-98744398D01*
X96916677Y-98745487D01*
X96918793Y-98753214D01*
X96920357Y-98761076D01*
X96921168Y-98761887D01*
X96921830Y-98764303D01*
X96969448Y-98859540D01*
X96974359Y-98865868D01*
X96978814Y-98872535D01*
X97026433Y-98920155D01*
X97033099Y-98924609D01*
X97039428Y-98929521D01*
X97134666Y-98977140D01*
X97137081Y-98977801D01*
X97137893Y-98978613D01*
X97145754Y-98980176D01*
X97153482Y-98982293D01*
X97154570Y-98981930D01*
X97157027Y-98982419D01*
X97347503Y-98982419D01*
X97349959Y-98981930D01*
X97351048Y-98982293D01*
X97358775Y-98980176D01*
X97366637Y-98978613D01*
X97367448Y-98977801D01*
X97369864Y-98977140D01*
X97465101Y-98929522D01*
X97480513Y-98917560D01*
X97492615Y-98881256D01*
X97475501Y-98847028D01*
X97439196Y-98834926D01*
X97420380Y-98840079D01*
X97335700Y-98882419D01*
X97168831Y-98882419D01*
X97091408Y-98843708D01*
X97055262Y-98807561D01*
X97016551Y-98730139D01*
X97016551Y-98468031D01*
X97055262Y-98390607D01*
X97091407Y-98354463D01*
X97168831Y-98315752D01*
X97335700Y-98315752D01*
X97420380Y-98358092D01*
X97439196Y-98363245D01*
X97475501Y-98351143D01*
X97492615Y-98316915D01*
X97480513Y-98280611D01*
X97465101Y-98268649D01*
X97369864Y-98221031D01*
X97367448Y-98220369D01*
X97366637Y-98219558D01*
X97358775Y-98217994D01*
X97351048Y-98215878D01*
X97349959Y-98216240D01*
X97347503Y-98215752D01*
X97157027Y-98215752D01*
X97154570Y-98216240D01*
X97153482Y-98215878D01*
X97145754Y-98217994D01*
X97137893Y-98219558D01*
X97137081Y-98220369D01*
X97134666Y-98221031D01*
X97039428Y-98268650D01*
X97033099Y-98273561D01*
X97026433Y-98278016D01*
X96978815Y-98325635D01*
X96974363Y-98332296D01*
X96969448Y-98338630D01*
X96921830Y-98433867D01*
X96921168Y-98436282D01*
X96920357Y-98437094D01*
X96918793Y-98444955D01*
X96916677Y-98452683D01*
X96917039Y-98453771D01*
X96916551Y-98456228D01*
X96165309Y-98456228D01*
X96198119Y-98390607D01*
X96234264Y-98354463D01*
X96311688Y-98315752D01*
X96478557Y-98315752D01*
X96563237Y-98358092D01*
X96582053Y-98363245D01*
X96618358Y-98351143D01*
X96635472Y-98316915D01*
X96623370Y-98280611D01*
X96607958Y-98268649D01*
X96512721Y-98221031D01*
X96510305Y-98220369D01*
X96509494Y-98219558D01*
X96501632Y-98217994D01*
X96493905Y-98215878D01*
X96492816Y-98216240D01*
X96490360Y-98215752D01*
X96299884Y-98215752D01*
X96297427Y-98216240D01*
X96296339Y-98215878D01*
X96288611Y-98217994D01*
X96280750Y-98219558D01*
X96279938Y-98220369D01*
X96277523Y-98221031D01*
X96182285Y-98268650D01*
X96175956Y-98273561D01*
X96169290Y-98278016D01*
X96121672Y-98325635D01*
X96117220Y-98332296D01*
X96112305Y-98338630D01*
X96064687Y-98433867D01*
X96064025Y-98436282D01*
X96063214Y-98437094D01*
X96061650Y-98444955D01*
X96059534Y-98452683D01*
X96059896Y-98453771D01*
X96059408Y-98456228D01*
X95701795Y-98456228D01*
X95871127Y-97948231D01*
X95873567Y-97928875D01*
X95865772Y-97913285D01*
X97682262Y-97913285D01*
X97682262Y-97951553D01*
X97709322Y-97978613D01*
X97728456Y-97982419D01*
X97964170Y-97982419D01*
X97964170Y-98932419D01*
X97967976Y-98951553D01*
X97995036Y-98978613D01*
X98033304Y-98978613D01*
X98060364Y-98951553D01*
X98064170Y-98932419D01*
X98064170Y-97982419D01*
X98299884Y-97982419D01*
X98319018Y-97978613D01*
X98346078Y-97951553D01*
X98346078Y-97913285D01*
X98319018Y-97886225D01*
X98299884Y-97882419D01*
X97728456Y-97882419D01*
X97709322Y-97886225D01*
X97682262Y-97913285D01*
X95865772Y-97913285D01*
X95856453Y-97894647D01*
X95820149Y-97882545D01*
X95785920Y-97899660D01*
X95776259Y-97916608D01*
X95490360Y-98774305D01*
X95204461Y-97916608D01*
X95194800Y-97899659D01*
X95160571Y-97882545D01*
X95124267Y-97894646D01*
X95107153Y-97928875D01*
X94996042Y-97928875D01*
X94996042Y-97771308D01*
X98457189Y-97771308D01*
X98457189Y-99093530D01*
G37*
G36*
X111920372Y-103963398D02*
G01*
X111956516Y-103999543D01*
X111995228Y-104076966D01*
X111995228Y-104396115D01*
X111571419Y-104396115D01*
X111571419Y-104076966D01*
X111610130Y-103999542D01*
X111646275Y-103963398D01*
X111723699Y-103924687D01*
X111842949Y-103924687D01*
X111920372Y-103963398D01*
G37*
G36*
X112352998Y-100396025D02*
G01*
X112432707Y-100475734D01*
X112471419Y-100553156D01*
X112471419Y-100720025D01*
X112432707Y-100797447D01*
X112352998Y-100877156D01*
X112181930Y-100919924D01*
X111860907Y-100919924D01*
X111689837Y-100877156D01*
X111610131Y-100797450D01*
X111571419Y-100720026D01*
X111571419Y-100553156D01*
X111610131Y-100475732D01*
X111689837Y-100396025D01*
X111860907Y-100353258D01*
X112181930Y-100353258D01*
X112352998Y-100396025D01*
G37*
G36*
X112777768Y-104607226D02*
G01*
X111360308Y-104607226D01*
X111360308Y-104065163D01*
X111471419Y-104065163D01*
X111471419Y-104446115D01*
X111475225Y-104465249D01*
X111502285Y-104492309D01*
X111521419Y-104496115D01*
X112521419Y-104496115D01*
X112540553Y-104492309D01*
X112567613Y-104465249D01*
X112567613Y-104426981D01*
X112540553Y-104399921D01*
X112521419Y-104396115D01*
X112095228Y-104396115D01*
X112095228Y-104234053D01*
X112550092Y-103915649D01*
X112563585Y-103901558D01*
X112570235Y-103863872D01*
X112548290Y-103832521D01*
X112510604Y-103825871D01*
X112492746Y-103833725D01*
X112095228Y-104111987D01*
X112095228Y-104065163D01*
X112094739Y-104062706D01*
X112095102Y-104061618D01*
X112092985Y-104053890D01*
X112091422Y-104046029D01*
X112090610Y-104045217D01*
X112089949Y-104042802D01*
X112042330Y-103947564D01*
X112037418Y-103941235D01*
X112032964Y-103934569D01*
X111985345Y-103886951D01*
X111978683Y-103882499D01*
X111972350Y-103877584D01*
X111877113Y-103829966D01*
X111874697Y-103829304D01*
X111873886Y-103828493D01*
X111866024Y-103826929D01*
X111858297Y-103824813D01*
X111857208Y-103825175D01*
X111854752Y-103824687D01*
X111711895Y-103824687D01*
X111709438Y-103825175D01*
X111708350Y-103824813D01*
X111700622Y-103826929D01*
X111692761Y-103828493D01*
X111691949Y-103829304D01*
X111689534Y-103829966D01*
X111594296Y-103877585D01*
X111587967Y-103882496D01*
X111581301Y-103886951D01*
X111533683Y-103934570D01*
X111529231Y-103941231D01*
X111524316Y-103947565D01*
X111476698Y-104042802D01*
X111476036Y-104045217D01*
X111475225Y-104046029D01*
X111473661Y-104053890D01*
X111471545Y-104061618D01*
X111471907Y-104062706D01*
X111471419Y-104065163D01*
X111360308Y-104065163D01*
X111360308Y-102864984D01*
X111472370Y-102864984D01*
X111479875Y-102902509D01*
X111493684Y-102916290D01*
X111931280Y-103208020D01*
X111493684Y-103499750D01*
X111479875Y-103513531D01*
X111472370Y-103551056D01*
X111493597Y-103582897D01*
X111531122Y-103590402D01*
X111549154Y-103582956D01*
X112021419Y-103268112D01*
X112493684Y-103582955D01*
X112511716Y-103590402D01*
X112549241Y-103582897D01*
X112570468Y-103551056D01*
X112562963Y-103513531D01*
X112549154Y-103499750D01*
X112111558Y-103208020D01*
X112549154Y-102916290D01*
X112562963Y-102902509D01*
X112570468Y-102864984D01*
X112549241Y-102833143D01*
X112511716Y-102825638D01*
X112493684Y-102833085D01*
X112021419Y-103147927D01*
X111549154Y-102833084D01*
X111531122Y-102825638D01*
X111493597Y-102833143D01*
X111472370Y-102864984D01*
X111360308Y-102864984D01*
X111360308Y-101969925D01*
X112566657Y-101969925D01*
X112566657Y-102731830D01*
X112570463Y-102750964D01*
X112597523Y-102778024D01*
X112635791Y-102778024D01*
X112662851Y-102750964D01*
X112666657Y-102731830D01*
X112666657Y-101969925D01*
X112662851Y-101950791D01*
X112635791Y-101923731D01*
X112597523Y-101923731D01*
X112570463Y-101950791D01*
X112566657Y-101969925D01*
X111360308Y-101969925D01*
X111360308Y-101712695D01*
X111475225Y-101712695D01*
X111475225Y-101750963D01*
X111502285Y-101778023D01*
X111521419Y-101781829D01*
X112521419Y-101781829D01*
X112540553Y-101778023D01*
X112567613Y-101750963D01*
X112571419Y-101731829D01*
X112571419Y-101255639D01*
X112567613Y-101236505D01*
X112540553Y-101209445D01*
X112502285Y-101209445D01*
X112475225Y-101236505D01*
X112471419Y-101255639D01*
X112471419Y-101681829D01*
X111521419Y-101681829D01*
X111502285Y-101685635D01*
X111475225Y-101712695D01*
X111360308Y-101712695D01*
X111360308Y-100541353D01*
X111471419Y-100541353D01*
X111471419Y-100731829D01*
X111471907Y-100734285D01*
X111471545Y-100735374D01*
X111473661Y-100743101D01*
X111475225Y-100750963D01*
X111476036Y-100751774D01*
X111476698Y-100754190D01*
X111524316Y-100849427D01*
X111529231Y-100855760D01*
X111533683Y-100862422D01*
X111628921Y-100957660D01*
X111633423Y-100960668D01*
X111634510Y-100962479D01*
X111640048Y-100965095D01*
X111645142Y-100968499D01*
X111647253Y-100968499D01*
X111652149Y-100970812D01*
X111842625Y-101018431D01*
X111848742Y-101018728D01*
X111854752Y-101019924D01*
X112188085Y-101019924D01*
X112194094Y-101018728D01*
X112200212Y-101018431D01*
X112390688Y-100970812D01*
X112395584Y-100968499D01*
X112397695Y-100968499D01*
X112402790Y-100965094D01*
X112408327Y-100962479D01*
X112409412Y-100960670D01*
X112413916Y-100957661D01*
X112509155Y-100862422D01*
X112513605Y-100855762D01*
X112518521Y-100849428D01*
X112566140Y-100754190D01*
X112566801Y-100751774D01*
X112567613Y-100750963D01*
X112569176Y-100743101D01*
X112571293Y-100735374D01*
X112570930Y-100734285D01*
X112571419Y-100731829D01*
X112571419Y-100541353D01*
X112570930Y-100538896D01*
X112571293Y-100537808D01*
X112569176Y-100530080D01*
X112567613Y-100522219D01*
X112566801Y-100521407D01*
X112566140Y-100518992D01*
X112518521Y-100423754D01*
X112513605Y-100417419D01*
X112509155Y-100410760D01*
X112413916Y-100315521D01*
X112409412Y-100312511D01*
X112408327Y-100310703D01*
X112402790Y-100308087D01*
X112397695Y-100304683D01*
X112395584Y-100304683D01*
X112390688Y-100302370D01*
X112200212Y-100254751D01*
X112194094Y-100254453D01*
X112188085Y-100253258D01*
X111854752Y-100253258D01*
X111848742Y-100254453D01*
X111842625Y-100254751D01*
X111652149Y-100302370D01*
X111647253Y-100304683D01*
X111645142Y-100304683D01*
X111640048Y-100308086D01*
X111634510Y-100310703D01*
X111633423Y-100312513D01*
X111628921Y-100315522D01*
X111533683Y-100410760D01*
X111529231Y-100417421D01*
X111524316Y-100423755D01*
X111476698Y-100518992D01*
X111476036Y-100521407D01*
X111475225Y-100522219D01*
X111473661Y-100530080D01*
X111471545Y-100537808D01*
X111471907Y-100538896D01*
X111471419Y-100541353D01*
X111360308Y-100541353D01*
X111360308Y-99493734D01*
X111471419Y-99493734D01*
X111471419Y-99731829D01*
X111471907Y-99734285D01*
X111471545Y-99735374D01*
X111473661Y-99743101D01*
X111475225Y-99750963D01*
X111476036Y-99751774D01*
X111476698Y-99754190D01*
X111524316Y-99849427D01*
X111529231Y-99855760D01*
X111533683Y-99862422D01*
X111581301Y-99910041D01*
X111587967Y-99914495D01*
X111594296Y-99919407D01*
X111689534Y-99967026D01*
X111691949Y-99967687D01*
X111692761Y-99968499D01*
X111700622Y-99970062D01*
X111708350Y-99972179D01*
X111709438Y-99971816D01*
X111711895Y-99972305D01*
X111807133Y-99972305D01*
X111809589Y-99971816D01*
X111810678Y-99972179D01*
X111818405Y-99970062D01*
X111826267Y-99968499D01*
X111827078Y-99967687D01*
X111829494Y-99967026D01*
X111924731Y-99919408D01*
X111931064Y-99914492D01*
X111937726Y-99910041D01*
X111985345Y-99862423D01*
X111989799Y-99855756D01*
X111994711Y-99849428D01*
X112042330Y-99754190D01*
X112043776Y-99748908D01*
X112046116Y-99743956D01*
X112092404Y-99558804D01*
X112133939Y-99475732D01*
X112170084Y-99439588D01*
X112247508Y-99400877D01*
X112319139Y-99400877D01*
X112396561Y-99439588D01*
X112432708Y-99475734D01*
X112471419Y-99553156D01*
X112471419Y-99771335D01*
X112426366Y-99906494D01*
X112423926Y-99925849D01*
X112441040Y-99960078D01*
X112477344Y-99972179D01*
X112511573Y-99955065D01*
X112521234Y-99938116D01*
X112568853Y-99795260D01*
X112569855Y-99787309D01*
X112571419Y-99779448D01*
X112571419Y-99541353D01*
X112570930Y-99538896D01*
X112571293Y-99537808D01*
X112569176Y-99530080D01*
X112567613Y-99522219D01*
X112566801Y-99521407D01*
X112566140Y-99518992D01*
X112518521Y-99423754D01*
X112513609Y-99417425D01*
X112509155Y-99410759D01*
X112461535Y-99363140D01*
X112454868Y-99358685D01*
X112448540Y-99353774D01*
X112353303Y-99306156D01*
X112350887Y-99305494D01*
X112350076Y-99304683D01*
X112342214Y-99303119D01*
X112334487Y-99301003D01*
X112333398Y-99301365D01*
X112330942Y-99300877D01*
X112235704Y-99300877D01*
X112233247Y-99301365D01*
X112232159Y-99301003D01*
X112224431Y-99303119D01*
X112216570Y-99304683D01*
X112215758Y-99305494D01*
X112213343Y-99306156D01*
X112118105Y-99353775D01*
X112111776Y-99358686D01*
X112105110Y-99363141D01*
X112057492Y-99410760D01*
X112053040Y-99417421D01*
X112048125Y-99423755D01*
X112000507Y-99518992D01*
X111999060Y-99524273D01*
X111996721Y-99529226D01*
X111950433Y-99714376D01*
X111908897Y-99797448D01*
X111872753Y-99833593D01*
X111795330Y-99872305D01*
X111723699Y-99872305D01*
X111646275Y-99833593D01*
X111610130Y-99797449D01*
X111571419Y-99720026D01*
X111571419Y-99501847D01*
X111616472Y-99366689D01*
X111618912Y-99347333D01*
X111601798Y-99313105D01*
X111565494Y-99301003D01*
X111531265Y-99318118D01*
X111521604Y-99335066D01*
X111473985Y-99477923D01*
X111472982Y-99485871D01*
X111471419Y-99493734D01*
X111360308Y-99493734D01*
X111360308Y-99189766D01*
X112777768Y-99189766D01*
X112777768Y-104607226D01*
G37*
D11*
X110976816Y-85397331D02*
X111548244Y-85397331D01*
X111262530Y-86397331D02*
X111262530Y-85397331D01*
X111786340Y-85397331D02*
X112453006Y-86397331D01*
X112453006Y-85397331D02*
X111786340Y-86397331D01*
X112595864Y-86492569D02*
X113357768Y-86492569D01*
X113595864Y-86397331D02*
X113595864Y-85397331D01*
X113595864Y-85397331D02*
X113833959Y-85397331D01*
X113833959Y-85397331D02*
X113976816Y-85444950D01*
X113976816Y-85444950D02*
X114072054Y-85540188D01*
X114072054Y-85540188D02*
X114119673Y-85635426D01*
X114119673Y-85635426D02*
X114167292Y-85825902D01*
X114167292Y-85825902D02*
X114167292Y-85968759D01*
X114167292Y-85968759D02*
X114119673Y-86159235D01*
X114119673Y-86159235D02*
X114072054Y-86254473D01*
X114072054Y-86254473D02*
X113976816Y-86349712D01*
X113976816Y-86349712D02*
X113833959Y-86397331D01*
X113833959Y-86397331D02*
X113595864Y-86397331D01*
X114595864Y-86397331D02*
X114595864Y-85397331D01*
X115024435Y-86349712D02*
X115167292Y-86397331D01*
X115167292Y-86397331D02*
X115405387Y-86397331D01*
X115405387Y-86397331D02*
X115500625Y-86349712D01*
X115500625Y-86349712D02*
X115548244Y-86302092D01*
X115548244Y-86302092D02*
X115595863Y-86206854D01*
X115595863Y-86206854D02*
X115595863Y-86111616D01*
X115595863Y-86111616D02*
X115548244Y-86016378D01*
X115548244Y-86016378D02*
X115500625Y-85968759D01*
X115500625Y-85968759D02*
X115405387Y-85921140D01*
X115405387Y-85921140D02*
X115214911Y-85873521D01*
X115214911Y-85873521D02*
X115119673Y-85825902D01*
X115119673Y-85825902D02*
X115072054Y-85778283D01*
X115072054Y-85778283D02*
X115024435Y-85683045D01*
X115024435Y-85683045D02*
X115024435Y-85587807D01*
X115024435Y-85587807D02*
X115072054Y-85492569D01*
X115072054Y-85492569D02*
X115119673Y-85444950D01*
X115119673Y-85444950D02*
X115214911Y-85397331D01*
X115214911Y-85397331D02*
X115453006Y-85397331D01*
X115453006Y-85397331D02*
X115595863Y-85444950D01*
X115976816Y-86111616D02*
X116453006Y-86111616D01*
X115881578Y-86397331D02*
X116214911Y-85397331D01*
X116214911Y-85397331D02*
X116548244Y-86397331D01*
X117214911Y-85873521D02*
X117357768Y-85921140D01*
X117357768Y-85921140D02*
X117405387Y-85968759D01*
X117405387Y-85968759D02*
X117453006Y-86063997D01*
X117453006Y-86063997D02*
X117453006Y-86206854D01*
X117453006Y-86206854D02*
X117405387Y-86302092D01*
X117405387Y-86302092D02*
X117357768Y-86349712D01*
X117357768Y-86349712D02*
X117262530Y-86397331D01*
X117262530Y-86397331D02*
X116881578Y-86397331D01*
X116881578Y-86397331D02*
X116881578Y-85397331D01*
X116881578Y-85397331D02*
X117214911Y-85397331D01*
X117214911Y-85397331D02*
X117310149Y-85444950D01*
X117310149Y-85444950D02*
X117357768Y-85492569D01*
X117357768Y-85492569D02*
X117405387Y-85587807D01*
X117405387Y-85587807D02*
X117405387Y-85683045D01*
X117405387Y-85683045D02*
X117357768Y-85778283D01*
X117357768Y-85778283D02*
X117310149Y-85825902D01*
X117310149Y-85825902D02*
X117214911Y-85873521D01*
X117214911Y-85873521D02*
X116881578Y-85873521D01*
X118357768Y-86397331D02*
X117881578Y-86397331D01*
X117881578Y-86397331D02*
X117881578Y-85397331D01*
X118691102Y-85873521D02*
X119024435Y-85873521D01*
X119167292Y-86397331D02*
X118691102Y-86397331D01*
X118691102Y-86397331D02*
X118691102Y-85397331D01*
X118691102Y-85397331D02*
X119167292Y-85397331D01*
X111691101Y-88007275D02*
X111357768Y-87531084D01*
X111119673Y-88007275D02*
X111119673Y-87007275D01*
X111119673Y-87007275D02*
X111500625Y-87007275D01*
X111500625Y-87007275D02*
X111595863Y-87054894D01*
X111595863Y-87054894D02*
X111643482Y-87102513D01*
X111643482Y-87102513D02*
X111691101Y-87197751D01*
X111691101Y-87197751D02*
X111691101Y-87340608D01*
X111691101Y-87340608D02*
X111643482Y-87435846D01*
X111643482Y-87435846D02*
X111595863Y-87483465D01*
X111595863Y-87483465D02*
X111500625Y-87531084D01*
X111500625Y-87531084D02*
X111119673Y-87531084D01*
X112072054Y-87959656D02*
X112214911Y-88007275D01*
X112214911Y-88007275D02*
X112453006Y-88007275D01*
X112453006Y-88007275D02*
X112548244Y-87959656D01*
X112548244Y-87959656D02*
X112595863Y-87912036D01*
X112595863Y-87912036D02*
X112643482Y-87816798D01*
X112643482Y-87816798D02*
X112643482Y-87721560D01*
X112643482Y-87721560D02*
X112595863Y-87626322D01*
X112595863Y-87626322D02*
X112548244Y-87578703D01*
X112548244Y-87578703D02*
X112453006Y-87531084D01*
X112453006Y-87531084D02*
X112262530Y-87483465D01*
X112262530Y-87483465D02*
X112167292Y-87435846D01*
X112167292Y-87435846D02*
X112119673Y-87388227D01*
X112119673Y-87388227D02*
X112072054Y-87292989D01*
X112072054Y-87292989D02*
X112072054Y-87197751D01*
X112072054Y-87197751D02*
X112119673Y-87102513D01*
X112119673Y-87102513D02*
X112167292Y-87054894D01*
X112167292Y-87054894D02*
X112262530Y-87007275D01*
X112262530Y-87007275D02*
X112500625Y-87007275D01*
X112500625Y-87007275D02*
X112643482Y-87054894D01*
X113262530Y-87007275D02*
X113357768Y-87007275D01*
X113357768Y-87007275D02*
X113453006Y-87054894D01*
X113453006Y-87054894D02*
X113500625Y-87102513D01*
X113500625Y-87102513D02*
X113548244Y-87197751D01*
X113548244Y-87197751D02*
X113595863Y-87388227D01*
X113595863Y-87388227D02*
X113595863Y-87626322D01*
X113595863Y-87626322D02*
X113548244Y-87816798D01*
X113548244Y-87816798D02*
X113500625Y-87912036D01*
X113500625Y-87912036D02*
X113453006Y-87959656D01*
X113453006Y-87959656D02*
X113357768Y-88007275D01*
X113357768Y-88007275D02*
X113262530Y-88007275D01*
X113262530Y-88007275D02*
X113167292Y-87959656D01*
X113167292Y-87959656D02*
X113119673Y-87912036D01*
X113119673Y-87912036D02*
X113072054Y-87816798D01*
X113072054Y-87816798D02*
X113024435Y-87626322D01*
X113024435Y-87626322D02*
X113024435Y-87388227D01*
X113024435Y-87388227D02*
X113072054Y-87197751D01*
X113072054Y-87197751D02*
X113119673Y-87102513D01*
X113119673Y-87102513D02*
X113167292Y-87054894D01*
X113167292Y-87054894D02*
X113262530Y-87007275D01*
X111691101Y-89617219D02*
X111357768Y-89141028D01*
X111119673Y-89617219D02*
X111119673Y-88617219D01*
X111119673Y-88617219D02*
X111500625Y-88617219D01*
X111500625Y-88617219D02*
X111595863Y-88664838D01*
X111595863Y-88664838D02*
X111643482Y-88712457D01*
X111643482Y-88712457D02*
X111691101Y-88807695D01*
X111691101Y-88807695D02*
X111691101Y-88950552D01*
X111691101Y-88950552D02*
X111643482Y-89045790D01*
X111643482Y-89045790D02*
X111595863Y-89093409D01*
X111595863Y-89093409D02*
X111500625Y-89141028D01*
X111500625Y-89141028D02*
X111119673Y-89141028D01*
X112072054Y-89569600D02*
X112214911Y-89617219D01*
X112214911Y-89617219D02*
X112453006Y-89617219D01*
X112453006Y-89617219D02*
X112548244Y-89569600D01*
X112548244Y-89569600D02*
X112595863Y-89521980D01*
X112595863Y-89521980D02*
X112643482Y-89426742D01*
X112643482Y-89426742D02*
X112643482Y-89331504D01*
X112643482Y-89331504D02*
X112595863Y-89236266D01*
X112595863Y-89236266D02*
X112548244Y-89188647D01*
X112548244Y-89188647D02*
X112453006Y-89141028D01*
X112453006Y-89141028D02*
X112262530Y-89093409D01*
X112262530Y-89093409D02*
X112167292Y-89045790D01*
X112167292Y-89045790D02*
X112119673Y-88998171D01*
X112119673Y-88998171D02*
X112072054Y-88902933D01*
X112072054Y-88902933D02*
X112072054Y-88807695D01*
X112072054Y-88807695D02*
X112119673Y-88712457D01*
X112119673Y-88712457D02*
X112167292Y-88664838D01*
X112167292Y-88664838D02*
X112262530Y-88617219D01*
X112262530Y-88617219D02*
X112500625Y-88617219D01*
X112500625Y-88617219D02*
X112643482Y-88664838D01*
X113595863Y-89617219D02*
X113024435Y-89617219D01*
X113310149Y-89617219D02*
X113310149Y-88617219D01*
X113310149Y-88617219D02*
X113214911Y-88760076D01*
X113214911Y-88760076D02*
X113119673Y-88855314D01*
X113119673Y-88855314D02*
X113024435Y-88902933D01*
D10*
G36*
X107272998Y-102776978D02*
G01*
X107352707Y-102856687D01*
X107391419Y-102934109D01*
X107391419Y-103100978D01*
X107352707Y-103178400D01*
X107272998Y-103258109D01*
X107101930Y-103300877D01*
X106780907Y-103300877D01*
X106609837Y-103258109D01*
X106530131Y-103178403D01*
X106491419Y-103100979D01*
X106491419Y-102934109D01*
X106530131Y-102856685D01*
X106609837Y-102776978D01*
X106780907Y-102734211D01*
X107101930Y-102734211D01*
X107272998Y-102776978D01*
G37*
G36*
X107185872Y-101779006D02*
G01*
X107268942Y-101820541D01*
X107350099Y-101901697D01*
X107391419Y-102025657D01*
X107391419Y-102205639D01*
X106491419Y-102205639D01*
X106491419Y-102025657D01*
X106532739Y-101901695D01*
X106613892Y-101820542D01*
X106696966Y-101779005D01*
X106876145Y-101734211D01*
X107006692Y-101734211D01*
X107185872Y-101779006D01*
G37*
G36*
X107105704Y-100471981D02*
G01*
X106599532Y-100303258D01*
X107105704Y-100134534D01*
X107105704Y-100471981D01*
G37*
G36*
X106792753Y-99201493D02*
G01*
X106828897Y-99237638D01*
X106867609Y-99315061D01*
X106867609Y-99586591D01*
X106491419Y-99586591D01*
X106491419Y-99315061D01*
X106530130Y-99237637D01*
X106566275Y-99201493D01*
X106643699Y-99162782D01*
X106715330Y-99162782D01*
X106792753Y-99201493D01*
G37*
G36*
X107316561Y-99153874D02*
G01*
X107352708Y-99190020D01*
X107391419Y-99267442D01*
X107391419Y-99586591D01*
X106967609Y-99586591D01*
X106967609Y-99311371D01*
X107008929Y-99187409D01*
X107042465Y-99153874D01*
X107119889Y-99115163D01*
X107239139Y-99115163D01*
X107316561Y-99153874D01*
G37*
G36*
X107697768Y-104607226D02*
G01*
X106280308Y-104607226D01*
X106280308Y-103777253D01*
X106391467Y-103777253D01*
X106395225Y-103787587D01*
X106395225Y-103798583D01*
X106401507Y-103804865D01*
X106404545Y-103813218D01*
X106420275Y-103824758D01*
X107037469Y-104112782D01*
X106420275Y-104400806D01*
X106404545Y-104412346D01*
X106401507Y-104420698D01*
X106395225Y-104426981D01*
X106395225Y-104437976D01*
X106391467Y-104448311D01*
X106395225Y-104456363D01*
X106395225Y-104465249D01*
X106402999Y-104473023D01*
X106407650Y-104482989D01*
X106416002Y-104486026D01*
X106422285Y-104492309D01*
X106441419Y-104496115D01*
X107441419Y-104496115D01*
X107460553Y-104492309D01*
X107487613Y-104465249D01*
X107487613Y-104426981D01*
X107460553Y-104399921D01*
X107441419Y-104396115D01*
X106666797Y-104396115D01*
X107176849Y-104158091D01*
X107187238Y-104150468D01*
X107189473Y-104149656D01*
X107190059Y-104148398D01*
X107192578Y-104146551D01*
X107198422Y-104130478D01*
X107205656Y-104114978D01*
X107204857Y-104112782D01*
X107205656Y-104110586D01*
X107198422Y-104095085D01*
X107192578Y-104079013D01*
X107190059Y-104077165D01*
X107189473Y-104075908D01*
X107187238Y-104075095D01*
X107176849Y-104067473D01*
X106666797Y-103829449D01*
X107441419Y-103829449D01*
X107460553Y-103825643D01*
X107487613Y-103798583D01*
X107487613Y-103760315D01*
X107460553Y-103733255D01*
X107441419Y-103729449D01*
X106441419Y-103729449D01*
X106422285Y-103733255D01*
X106416002Y-103739537D01*
X106407650Y-103742575D01*
X106402999Y-103752540D01*
X106395225Y-103760315D01*
X106395225Y-103769200D01*
X106391467Y-103777253D01*
X106280308Y-103777253D01*
X106280308Y-102922306D01*
X106391419Y-102922306D01*
X106391419Y-103112782D01*
X106391907Y-103115238D01*
X106391545Y-103116327D01*
X106393661Y-103124054D01*
X106395225Y-103131916D01*
X106396036Y-103132727D01*
X106396698Y-103135143D01*
X106444316Y-103230380D01*
X106449231Y-103236713D01*
X106453683Y-103243375D01*
X106548921Y-103338613D01*
X106553423Y-103341621D01*
X106554510Y-103343432D01*
X106560048Y-103346048D01*
X106565142Y-103349452D01*
X106567253Y-103349452D01*
X106572149Y-103351765D01*
X106762625Y-103399384D01*
X106768742Y-103399681D01*
X106774752Y-103400877D01*
X107108085Y-103400877D01*
X107114094Y-103399681D01*
X107120212Y-103399384D01*
X107310688Y-103351765D01*
X107315584Y-103349452D01*
X107317695Y-103349452D01*
X107322790Y-103346047D01*
X107328327Y-103343432D01*
X107329412Y-103341623D01*
X107333916Y-103338614D01*
X107429155Y-103243375D01*
X107433605Y-103236715D01*
X107438521Y-103230381D01*
X107486140Y-103135143D01*
X107486801Y-103132727D01*
X107487613Y-103131916D01*
X107489176Y-103124054D01*
X107491293Y-103116327D01*
X107490930Y-103115238D01*
X107491419Y-103112782D01*
X107491419Y-102922306D01*
X107490930Y-102919849D01*
X107491293Y-102918761D01*
X107489176Y-102911033D01*
X107487613Y-102903172D01*
X107486801Y-102902360D01*
X107486140Y-102899945D01*
X107438521Y-102804707D01*
X107433605Y-102798372D01*
X107429155Y-102791713D01*
X107333916Y-102696474D01*
X107329412Y-102693464D01*
X107328327Y-102691656D01*
X107322790Y-102689040D01*
X107317695Y-102685636D01*
X107315584Y-102685636D01*
X107310688Y-102683323D01*
X107120212Y-102635704D01*
X107114094Y-102635406D01*
X107108085Y-102634211D01*
X106774752Y-102634211D01*
X106768742Y-102635406D01*
X106762625Y-102635704D01*
X106572149Y-102683323D01*
X106567253Y-102685636D01*
X106565142Y-102685636D01*
X106560048Y-102689039D01*
X106554510Y-102691656D01*
X106553423Y-102693466D01*
X106548921Y-102696475D01*
X106453683Y-102791713D01*
X106449231Y-102798374D01*
X106444316Y-102804708D01*
X106396698Y-102899945D01*
X106396036Y-102902360D01*
X106395225Y-102903172D01*
X106393661Y-102911033D01*
X106391545Y-102918761D01*
X106391907Y-102919849D01*
X106391419Y-102922306D01*
X106280308Y-102922306D01*
X106280308Y-102017544D01*
X106391419Y-102017544D01*
X106391419Y-102255639D01*
X106395225Y-102274773D01*
X106422285Y-102301833D01*
X106441419Y-102305639D01*
X107441419Y-102305639D01*
X107460553Y-102301833D01*
X107487613Y-102274773D01*
X107491419Y-102255639D01*
X107491419Y-102017544D01*
X107489855Y-102009682D01*
X107488853Y-102001732D01*
X107441234Y-101858876D01*
X107439994Y-101856700D01*
X107439994Y-101855553D01*
X107435543Y-101848892D01*
X107431573Y-101841927D01*
X107430545Y-101841413D01*
X107429155Y-101839332D01*
X107333916Y-101744093D01*
X107327249Y-101739638D01*
X107320921Y-101734727D01*
X107225684Y-101687109D01*
X107220402Y-101685662D01*
X107215450Y-101683323D01*
X107024974Y-101635704D01*
X107018856Y-101635406D01*
X107012847Y-101634211D01*
X106869990Y-101634211D01*
X106863980Y-101635406D01*
X106857863Y-101635704D01*
X106667387Y-101683323D01*
X106662434Y-101685662D01*
X106657153Y-101687109D01*
X106561915Y-101734728D01*
X106555580Y-101739643D01*
X106548921Y-101744094D01*
X106453683Y-101839332D01*
X106452291Y-101841414D01*
X106451265Y-101841928D01*
X106447297Y-101848888D01*
X106442844Y-101855553D01*
X106442844Y-101856700D01*
X106441604Y-101858876D01*
X106393985Y-102001733D01*
X106392982Y-102009681D01*
X106391419Y-102017544D01*
X106280308Y-102017544D01*
X106280308Y-100731830D01*
X107486657Y-100731830D01*
X107486657Y-101493735D01*
X107490463Y-101512869D01*
X107517523Y-101539929D01*
X107555791Y-101539929D01*
X107582851Y-101512869D01*
X107586657Y-101493735D01*
X107586657Y-100731830D01*
X107582851Y-100712696D01*
X107555791Y-100685636D01*
X107517523Y-100685636D01*
X107490463Y-100712696D01*
X107486657Y-100731830D01*
X106280308Y-100731830D01*
X106280308Y-100299714D01*
X106391545Y-100299714D01*
X106392726Y-100303258D01*
X106391545Y-100306802D01*
X106398632Y-100320978D01*
X106403646Y-100336018D01*
X106406988Y-100337688D01*
X106408659Y-100341031D01*
X106425608Y-100350692D01*
X107425607Y-100684025D01*
X107444963Y-100686465D01*
X107479191Y-100669351D01*
X107491293Y-100633047D01*
X107474178Y-100598818D01*
X107457230Y-100589157D01*
X107205704Y-100505315D01*
X107205704Y-100101200D01*
X107457230Y-100017359D01*
X107474178Y-100007698D01*
X107491293Y-99973469D01*
X107479191Y-99937165D01*
X107444963Y-99920051D01*
X107425607Y-99922491D01*
X106425608Y-100255824D01*
X106408659Y-100265485D01*
X106406988Y-100268827D01*
X106403646Y-100270498D01*
X106398632Y-100285537D01*
X106391545Y-100299714D01*
X106280308Y-100299714D01*
X106280308Y-99303258D01*
X106391419Y-99303258D01*
X106391419Y-99636591D01*
X106395225Y-99655725D01*
X106422285Y-99682785D01*
X106441419Y-99686591D01*
X107441419Y-99686591D01*
X107460553Y-99682785D01*
X107487613Y-99655725D01*
X107491419Y-99636591D01*
X107491419Y-99255639D01*
X107490930Y-99253182D01*
X107491293Y-99252094D01*
X107489176Y-99244366D01*
X107487613Y-99236505D01*
X107486801Y-99235693D01*
X107486140Y-99233278D01*
X107438521Y-99138040D01*
X107433609Y-99131711D01*
X107429155Y-99125045D01*
X107381535Y-99077426D01*
X107374868Y-99072971D01*
X107368540Y-99068060D01*
X107273303Y-99020442D01*
X107270887Y-99019780D01*
X107270076Y-99018969D01*
X107262214Y-99017405D01*
X107254487Y-99015289D01*
X107253398Y-99015651D01*
X107250942Y-99015163D01*
X107108085Y-99015163D01*
X107105628Y-99015651D01*
X107104540Y-99015289D01*
X107096812Y-99017405D01*
X107088951Y-99018969D01*
X107088139Y-99019780D01*
X107085724Y-99020442D01*
X106990486Y-99068061D01*
X106984157Y-99072972D01*
X106977491Y-99077427D01*
X106929873Y-99125046D01*
X106928481Y-99127128D01*
X106927455Y-99127642D01*
X106923487Y-99134602D01*
X106919034Y-99141267D01*
X106919034Y-99142414D01*
X106917794Y-99144590D01*
X106907407Y-99175750D01*
X106905345Y-99172664D01*
X106857726Y-99125046D01*
X106851064Y-99120594D01*
X106844731Y-99115679D01*
X106749494Y-99068061D01*
X106747078Y-99067399D01*
X106746267Y-99066588D01*
X106738405Y-99065024D01*
X106730678Y-99062908D01*
X106729589Y-99063270D01*
X106727133Y-99062782D01*
X106631895Y-99062782D01*
X106629438Y-99063270D01*
X106628350Y-99062908D01*
X106620622Y-99065024D01*
X106612761Y-99066588D01*
X106611949Y-99067399D01*
X106609534Y-99068061D01*
X106514296Y-99115680D01*
X106507967Y-99120591D01*
X106501301Y-99125046D01*
X106453683Y-99172665D01*
X106449231Y-99179326D01*
X106444316Y-99185660D01*
X106396698Y-99280897D01*
X106396036Y-99283312D01*
X106395225Y-99284124D01*
X106393661Y-99291985D01*
X106391545Y-99299713D01*
X106391907Y-99300801D01*
X106391419Y-99303258D01*
X106280308Y-99303258D01*
X106280308Y-98255639D01*
X106391419Y-98255639D01*
X106391419Y-98493734D01*
X106391907Y-98496190D01*
X106391545Y-98497279D01*
X106393661Y-98505006D01*
X106395225Y-98512868D01*
X106396036Y-98513679D01*
X106396698Y-98516095D01*
X106444316Y-98611332D01*
X106449231Y-98617665D01*
X106453683Y-98624327D01*
X106501301Y-98671946D01*
X106507967Y-98676400D01*
X106514296Y-98681312D01*
X106609534Y-98728931D01*
X106611949Y-98729592D01*
X106612761Y-98730404D01*
X106620622Y-98731967D01*
X106628350Y-98734084D01*
X106629438Y-98733721D01*
X106631895Y-98734210D01*
X106727133Y-98734210D01*
X106729589Y-98733721D01*
X106730678Y-98734084D01*
X106738405Y-98731967D01*
X106746267Y-98730404D01*
X106747078Y-98729592D01*
X106749494Y-98728931D01*
X106844731Y-98681313D01*
X106851064Y-98676397D01*
X106857726Y-98671946D01*
X106905345Y-98624328D01*
X106909799Y-98617661D01*
X106914711Y-98611333D01*
X106962330Y-98516095D01*
X106963776Y-98510813D01*
X106966116Y-98505861D01*
X107012404Y-98320709D01*
X107053939Y-98237637D01*
X107090084Y-98201493D01*
X107167508Y-98162782D01*
X107239139Y-98162782D01*
X107316561Y-98201493D01*
X107352708Y-98237639D01*
X107391419Y-98315061D01*
X107391419Y-98533240D01*
X107346366Y-98668399D01*
X107343926Y-98687754D01*
X107361040Y-98721983D01*
X107397344Y-98734084D01*
X107431573Y-98716970D01*
X107441234Y-98700021D01*
X107488853Y-98557165D01*
X107489855Y-98549214D01*
X107491419Y-98541353D01*
X107491419Y-98303258D01*
X107490930Y-98300801D01*
X107491293Y-98299713D01*
X107489176Y-98291985D01*
X107487613Y-98284124D01*
X107486801Y-98283312D01*
X107486140Y-98280897D01*
X107438521Y-98185659D01*
X107433609Y-98179330D01*
X107429155Y-98172664D01*
X107381535Y-98125045D01*
X107374868Y-98120590D01*
X107368540Y-98115679D01*
X107273303Y-98068061D01*
X107270887Y-98067399D01*
X107270076Y-98066588D01*
X107262214Y-98065024D01*
X107254487Y-98062908D01*
X107253398Y-98063270D01*
X107250942Y-98062782D01*
X107155704Y-98062782D01*
X107153247Y-98063270D01*
X107152159Y-98062908D01*
X107144431Y-98065024D01*
X107136570Y-98066588D01*
X107135758Y-98067399D01*
X107133343Y-98068061D01*
X107038105Y-98115680D01*
X107031776Y-98120591D01*
X107025110Y-98125046D01*
X106977492Y-98172665D01*
X106973040Y-98179326D01*
X106968125Y-98185660D01*
X106920507Y-98280897D01*
X106919060Y-98286178D01*
X106916721Y-98291131D01*
X106870433Y-98476281D01*
X106828897Y-98559353D01*
X106792753Y-98595498D01*
X106715330Y-98634210D01*
X106643699Y-98634210D01*
X106566275Y-98595498D01*
X106530130Y-98559354D01*
X106491419Y-98481931D01*
X106491419Y-98263752D01*
X106536472Y-98128594D01*
X106538912Y-98109238D01*
X106521798Y-98075010D01*
X106485494Y-98062908D01*
X106451265Y-98080023D01*
X106441604Y-98096971D01*
X106393985Y-98239828D01*
X106392982Y-98247776D01*
X106391419Y-98255639D01*
X106280308Y-98255639D01*
X106280308Y-97951671D01*
X107697768Y-97951671D01*
X107697768Y-104607226D01*
G37*
G36*
X102025704Y-101091028D02*
G01*
X101519532Y-100922305D01*
X102025704Y-100753581D01*
X102025704Y-101091028D01*
G37*
G36*
X102617768Y-104746277D02*
G01*
X101200308Y-104746277D01*
X101200308Y-104017544D01*
X101311419Y-104017544D01*
X101311419Y-104588972D01*
X101315225Y-104608106D01*
X101342285Y-104635166D01*
X101380553Y-104635166D01*
X101407613Y-104608106D01*
X101411419Y-104588972D01*
X101411419Y-104353258D01*
X102361419Y-104353258D01*
X102380553Y-104349452D01*
X102407613Y-104322392D01*
X102407613Y-104284124D01*
X102380553Y-104257064D01*
X102361419Y-104253258D01*
X101411419Y-104253258D01*
X101411419Y-104017544D01*
X101407613Y-103998410D01*
X101380553Y-103971350D01*
X101342285Y-103971350D01*
X101315225Y-103998410D01*
X101311419Y-104017544D01*
X101200308Y-104017544D01*
X101200308Y-103103079D01*
X101312370Y-103103079D01*
X101319875Y-103140604D01*
X101333684Y-103154385D01*
X101771280Y-103446115D01*
X101333684Y-103737845D01*
X101319875Y-103751626D01*
X101312370Y-103789151D01*
X101333597Y-103820992D01*
X101371122Y-103828497D01*
X101389154Y-103821051D01*
X101861419Y-103506207D01*
X102333684Y-103821050D01*
X102351716Y-103828497D01*
X102389241Y-103820992D01*
X102410468Y-103789151D01*
X102402963Y-103751626D01*
X102389154Y-103737845D01*
X101951558Y-103446115D01*
X102389154Y-103154385D01*
X102402963Y-103140604D01*
X102410468Y-103103079D01*
X102389241Y-103071238D01*
X102351716Y-103063733D01*
X102333684Y-103071180D01*
X101861419Y-103386022D01*
X101389154Y-103071179D01*
X101371122Y-103063733D01*
X101333597Y-103071238D01*
X101312370Y-103103079D01*
X101200308Y-103103079D01*
X101200308Y-102208020D01*
X102406657Y-102208020D01*
X102406657Y-102969925D01*
X102410463Y-102989059D01*
X102437523Y-103016119D01*
X102475791Y-103016119D01*
X102502851Y-102989059D01*
X102506657Y-102969925D01*
X102506657Y-102208020D01*
X102502851Y-102188886D01*
X102475791Y-102161826D01*
X102437523Y-102161826D01*
X102410463Y-102188886D01*
X102406657Y-102208020D01*
X101200308Y-102208020D01*
X101200308Y-101493734D01*
X101311419Y-101493734D01*
X101311419Y-101969924D01*
X101315225Y-101989058D01*
X101342285Y-102016118D01*
X101361419Y-102019924D01*
X102361419Y-102019924D01*
X102380553Y-102016118D01*
X102407613Y-101989058D01*
X102407613Y-101950790D01*
X102380553Y-101923730D01*
X102361419Y-101919924D01*
X101887609Y-101919924D01*
X101887609Y-101636591D01*
X101883803Y-101617457D01*
X101856743Y-101590397D01*
X101818475Y-101590397D01*
X101791415Y-101617457D01*
X101787609Y-101636591D01*
X101787609Y-101919924D01*
X101411419Y-101919924D01*
X101411419Y-101493734D01*
X101407613Y-101474600D01*
X101380553Y-101447540D01*
X101342285Y-101447540D01*
X101315225Y-101474600D01*
X101311419Y-101493734D01*
X101200308Y-101493734D01*
X101200308Y-100918761D01*
X101311545Y-100918761D01*
X101312726Y-100922305D01*
X101311545Y-100925849D01*
X101318632Y-100940025D01*
X101323646Y-100955065D01*
X101326988Y-100956735D01*
X101328659Y-100960078D01*
X101345608Y-100969739D01*
X102345607Y-101303072D01*
X102364963Y-101305512D01*
X102399191Y-101288398D01*
X102411293Y-101252094D01*
X102394178Y-101217865D01*
X102377230Y-101208204D01*
X102125704Y-101124362D01*
X102125704Y-100720247D01*
X102377230Y-100636406D01*
X102394178Y-100626745D01*
X102411293Y-100592516D01*
X102399191Y-100556212D01*
X102364963Y-100539098D01*
X102345607Y-100541538D01*
X101345608Y-100874871D01*
X101328659Y-100884532D01*
X101326988Y-100887874D01*
X101323646Y-100889545D01*
X101318632Y-100904584D01*
X101311545Y-100918761D01*
X101200308Y-100918761D01*
X101200308Y-99665076D01*
X101315225Y-99665076D01*
X101315225Y-99703344D01*
X101342285Y-99730404D01*
X101361419Y-99734210D01*
X102159139Y-99734210D01*
X102236561Y-99772921D01*
X102272708Y-99809067D01*
X102311419Y-99886489D01*
X102311419Y-100053358D01*
X102272708Y-100130780D01*
X102236561Y-100166926D01*
X102159139Y-100205638D01*
X101361419Y-100205638D01*
X101342285Y-100209444D01*
X101315225Y-100236504D01*
X101315225Y-100274772D01*
X101342285Y-100301832D01*
X101361419Y-100305638D01*
X102170942Y-100305638D01*
X102173398Y-100305149D01*
X102174487Y-100305512D01*
X102182214Y-100303395D01*
X102190076Y-100301832D01*
X102190887Y-100301020D01*
X102193303Y-100300359D01*
X102288540Y-100252741D01*
X102294868Y-100247829D01*
X102301535Y-100243375D01*
X102349155Y-100195756D01*
X102353609Y-100189089D01*
X102358521Y-100182761D01*
X102406140Y-100087523D01*
X102406801Y-100085107D01*
X102407613Y-100084296D01*
X102409176Y-100076434D01*
X102411293Y-100068707D01*
X102410930Y-100067618D01*
X102411419Y-100065162D01*
X102411419Y-99874686D01*
X102410930Y-99872229D01*
X102411293Y-99871141D01*
X102409176Y-99863413D01*
X102407613Y-99855552D01*
X102406801Y-99854740D01*
X102406140Y-99852325D01*
X102358521Y-99757087D01*
X102353609Y-99750758D01*
X102349155Y-99744092D01*
X102301535Y-99696473D01*
X102294868Y-99692018D01*
X102288540Y-99687107D01*
X102193303Y-99639489D01*
X102190887Y-99638827D01*
X102190076Y-99638016D01*
X102182214Y-99636452D01*
X102174487Y-99634336D01*
X102173398Y-99634698D01*
X102170942Y-99634210D01*
X101361419Y-99634210D01*
X101342285Y-99638016D01*
X101315225Y-99665076D01*
X101200308Y-99665076D01*
X101200308Y-99188885D01*
X101315225Y-99188885D01*
X101315225Y-99227153D01*
X101342285Y-99254213D01*
X101361419Y-99258019D01*
X102361419Y-99258019D01*
X102380553Y-99254213D01*
X102407613Y-99227153D01*
X102411419Y-99208019D01*
X102411419Y-98731829D01*
X102407613Y-98712695D01*
X102380553Y-98685635D01*
X102342285Y-98685635D01*
X102315225Y-98712695D01*
X102311419Y-98731829D01*
X102311419Y-99158019D01*
X101361419Y-99158019D01*
X101342285Y-99161825D01*
X101315225Y-99188885D01*
X101200308Y-99188885D01*
X101200308Y-97969924D01*
X101311419Y-97969924D01*
X101311419Y-98541352D01*
X101315225Y-98560486D01*
X101342285Y-98587546D01*
X101380553Y-98587546D01*
X101407613Y-98560486D01*
X101411419Y-98541352D01*
X101411419Y-98305638D01*
X102361419Y-98305638D01*
X102380553Y-98301832D01*
X102407613Y-98274772D01*
X102407613Y-98236504D01*
X102380553Y-98209444D01*
X102361419Y-98205638D01*
X101411419Y-98205638D01*
X101411419Y-97969924D01*
X101407613Y-97950790D01*
X101380553Y-97923730D01*
X101342285Y-97923730D01*
X101315225Y-97950790D01*
X101311419Y-97969924D01*
X101200308Y-97969924D01*
X101200308Y-97812619D01*
X102617768Y-97812619D01*
X102617768Y-104746277D01*
G37*
X73427217Y-62870210D02*
X73027217Y-62298782D01*
X72741503Y-62870210D02*
X72741503Y-61670210D01*
X72741503Y-61670210D02*
X73198646Y-61670210D01*
X73198646Y-61670210D02*
X73312931Y-61727353D01*
X73312931Y-61727353D02*
X73370074Y-61784496D01*
X73370074Y-61784496D02*
X73427217Y-61898782D01*
X73427217Y-61898782D02*
X73427217Y-62070210D01*
X73427217Y-62070210D02*
X73370074Y-62184496D01*
X73370074Y-62184496D02*
X73312931Y-62241639D01*
X73312931Y-62241639D02*
X73198646Y-62298782D01*
X73198646Y-62298782D02*
X72741503Y-62298782D01*
X74455789Y-62870210D02*
X74455789Y-62241639D01*
X74455789Y-62241639D02*
X74398646Y-62127353D01*
X74398646Y-62127353D02*
X74284360Y-62070210D01*
X74284360Y-62070210D02*
X74055789Y-62070210D01*
X74055789Y-62070210D02*
X73941503Y-62127353D01*
X74455789Y-62813068D02*
X74341503Y-62870210D01*
X74341503Y-62870210D02*
X74055789Y-62870210D01*
X74055789Y-62870210D02*
X73941503Y-62813068D01*
X73941503Y-62813068D02*
X73884360Y-62698782D01*
X73884360Y-62698782D02*
X73884360Y-62584496D01*
X73884360Y-62584496D02*
X73941503Y-62470210D01*
X73941503Y-62470210D02*
X74055789Y-62413068D01*
X74055789Y-62413068D02*
X74341503Y-62413068D01*
X74341503Y-62413068D02*
X74455789Y-62355925D01*
X74970074Y-62813068D02*
X75084360Y-62870210D01*
X75084360Y-62870210D02*
X75312931Y-62870210D01*
X75312931Y-62870210D02*
X75427217Y-62813068D01*
X75427217Y-62813068D02*
X75484360Y-62698782D01*
X75484360Y-62698782D02*
X75484360Y-62641639D01*
X75484360Y-62641639D02*
X75427217Y-62527353D01*
X75427217Y-62527353D02*
X75312931Y-62470210D01*
X75312931Y-62470210D02*
X75141503Y-62470210D01*
X75141503Y-62470210D02*
X75027217Y-62413068D01*
X75027217Y-62413068D02*
X74970074Y-62298782D01*
X74970074Y-62298782D02*
X74970074Y-62241639D01*
X74970074Y-62241639D02*
X75027217Y-62127353D01*
X75027217Y-62127353D02*
X75141503Y-62070210D01*
X75141503Y-62070210D02*
X75312931Y-62070210D01*
X75312931Y-62070210D02*
X75427217Y-62127353D01*
X75998646Y-62070210D02*
X75998646Y-63270210D01*
X75998646Y-62127353D02*
X76112932Y-62070210D01*
X76112932Y-62070210D02*
X76341503Y-62070210D01*
X76341503Y-62070210D02*
X76455789Y-62127353D01*
X76455789Y-62127353D02*
X76512932Y-62184496D01*
X76512932Y-62184496D02*
X76570074Y-62298782D01*
X76570074Y-62298782D02*
X76570074Y-62641639D01*
X76570074Y-62641639D02*
X76512932Y-62755925D01*
X76512932Y-62755925D02*
X76455789Y-62813068D01*
X76455789Y-62813068D02*
X76341503Y-62870210D01*
X76341503Y-62870210D02*
X76112932Y-62870210D01*
X76112932Y-62870210D02*
X75998646Y-62813068D01*
X77084360Y-62870210D02*
X77084360Y-61670210D01*
X77084360Y-62127353D02*
X77198646Y-62070210D01*
X77198646Y-62070210D02*
X77427217Y-62070210D01*
X77427217Y-62070210D02*
X77541503Y-62127353D01*
X77541503Y-62127353D02*
X77598646Y-62184496D01*
X77598646Y-62184496D02*
X77655788Y-62298782D01*
X77655788Y-62298782D02*
X77655788Y-62641639D01*
X77655788Y-62641639D02*
X77598646Y-62755925D01*
X77598646Y-62755925D02*
X77541503Y-62813068D01*
X77541503Y-62813068D02*
X77427217Y-62870210D01*
X77427217Y-62870210D02*
X77198646Y-62870210D01*
X77198646Y-62870210D02*
X77084360Y-62813068D01*
X78627217Y-62813068D02*
X78512931Y-62870210D01*
X78512931Y-62870210D02*
X78284360Y-62870210D01*
X78284360Y-62870210D02*
X78170074Y-62813068D01*
X78170074Y-62813068D02*
X78112931Y-62698782D01*
X78112931Y-62698782D02*
X78112931Y-62241639D01*
X78112931Y-62241639D02*
X78170074Y-62127353D01*
X78170074Y-62127353D02*
X78284360Y-62070210D01*
X78284360Y-62070210D02*
X78512931Y-62070210D01*
X78512931Y-62070210D02*
X78627217Y-62127353D01*
X78627217Y-62127353D02*
X78684360Y-62241639D01*
X78684360Y-62241639D02*
X78684360Y-62355925D01*
X78684360Y-62355925D02*
X78112931Y-62470210D01*
X79198645Y-62870210D02*
X79198645Y-62070210D01*
X79198645Y-62298782D02*
X79255788Y-62184496D01*
X79255788Y-62184496D02*
X79312931Y-62127353D01*
X79312931Y-62127353D02*
X79427216Y-62070210D01*
X79427216Y-62070210D02*
X79541502Y-62070210D01*
X79941502Y-62870210D02*
X79941502Y-62070210D01*
X79941502Y-62298782D02*
X79998645Y-62184496D01*
X79998645Y-62184496D02*
X80055788Y-62127353D01*
X80055788Y-62127353D02*
X80170073Y-62070210D01*
X80170073Y-62070210D02*
X80284359Y-62070210D01*
X80570073Y-62070210D02*
X80855787Y-62870210D01*
X81141502Y-62070210D02*
X80855787Y-62870210D01*
X80855787Y-62870210D02*
X80741502Y-63155925D01*
X80741502Y-63155925D02*
X80684359Y-63213068D01*
X80684359Y-63213068D02*
X80570073Y-63270210D01*
X82512931Y-62870210D02*
X82512931Y-61670210D01*
X82512931Y-61670210D02*
X82970074Y-61670210D01*
X82970074Y-61670210D02*
X83084359Y-61727353D01*
X83084359Y-61727353D02*
X83141502Y-61784496D01*
X83141502Y-61784496D02*
X83198645Y-61898782D01*
X83198645Y-61898782D02*
X83198645Y-62070210D01*
X83198645Y-62070210D02*
X83141502Y-62184496D01*
X83141502Y-62184496D02*
X83084359Y-62241639D01*
X83084359Y-62241639D02*
X82970074Y-62298782D01*
X82970074Y-62298782D02*
X82512931Y-62298782D01*
X83712931Y-62870210D02*
X83712931Y-62070210D01*
X83712931Y-61670210D02*
X83655788Y-61727353D01*
X83655788Y-61727353D02*
X83712931Y-61784496D01*
X83712931Y-61784496D02*
X83770074Y-61727353D01*
X83770074Y-61727353D02*
X83712931Y-61670210D01*
X83712931Y-61670210D02*
X83712931Y-61784496D01*
X85141503Y-62813068D02*
X85312932Y-62870210D01*
X85312932Y-62870210D02*
X85598646Y-62870210D01*
X85598646Y-62870210D02*
X85712932Y-62813068D01*
X85712932Y-62813068D02*
X85770074Y-62755925D01*
X85770074Y-62755925D02*
X85827217Y-62641639D01*
X85827217Y-62641639D02*
X85827217Y-62527353D01*
X85827217Y-62527353D02*
X85770074Y-62413068D01*
X85770074Y-62413068D02*
X85712932Y-62355925D01*
X85712932Y-62355925D02*
X85598646Y-62298782D01*
X85598646Y-62298782D02*
X85370074Y-62241639D01*
X85370074Y-62241639D02*
X85255789Y-62184496D01*
X85255789Y-62184496D02*
X85198646Y-62127353D01*
X85198646Y-62127353D02*
X85141503Y-62013068D01*
X85141503Y-62013068D02*
X85141503Y-61898782D01*
X85141503Y-61898782D02*
X85198646Y-61784496D01*
X85198646Y-61784496D02*
X85255789Y-61727353D01*
X85255789Y-61727353D02*
X85370074Y-61670210D01*
X85370074Y-61670210D02*
X85655789Y-61670210D01*
X85655789Y-61670210D02*
X85827217Y-61727353D01*
X86741503Y-62241639D02*
X86341503Y-62241639D01*
X86341503Y-62870210D02*
X86341503Y-61670210D01*
X86341503Y-61670210D02*
X86912931Y-61670210D01*
X87370074Y-62870210D02*
X87370074Y-61670210D01*
X87370074Y-61670210D02*
X87827217Y-61670210D01*
X87827217Y-61670210D02*
X87941502Y-61727353D01*
X87941502Y-61727353D02*
X87998645Y-61784496D01*
X87998645Y-61784496D02*
X88055788Y-61898782D01*
X88055788Y-61898782D02*
X88055788Y-62070210D01*
X88055788Y-62070210D02*
X87998645Y-62184496D01*
X87998645Y-62184496D02*
X87941502Y-62241639D01*
X87941502Y-62241639D02*
X87827217Y-62298782D01*
X87827217Y-62298782D02*
X87370074Y-62298782D01*
X89484360Y-62870210D02*
X89484360Y-61670210D01*
X89484360Y-61670210D02*
X89941503Y-61670210D01*
X89941503Y-61670210D02*
X90055788Y-61727353D01*
X90055788Y-61727353D02*
X90112931Y-61784496D01*
X90112931Y-61784496D02*
X90170074Y-61898782D01*
X90170074Y-61898782D02*
X90170074Y-62070210D01*
X90170074Y-62070210D02*
X90112931Y-62184496D01*
X90112931Y-62184496D02*
X90055788Y-62241639D01*
X90055788Y-62241639D02*
X89941503Y-62298782D01*
X89941503Y-62298782D02*
X89484360Y-62298782D01*
X90684360Y-62870210D02*
X90684360Y-62070210D01*
X90684360Y-62298782D02*
X90741503Y-62184496D01*
X90741503Y-62184496D02*
X90798646Y-62127353D01*
X90798646Y-62127353D02*
X90912931Y-62070210D01*
X90912931Y-62070210D02*
X91027217Y-62070210D01*
X91598645Y-62870210D02*
X91484360Y-62813068D01*
X91484360Y-62813068D02*
X91427217Y-62755925D01*
X91427217Y-62755925D02*
X91370074Y-62641639D01*
X91370074Y-62641639D02*
X91370074Y-62298782D01*
X91370074Y-62298782D02*
X91427217Y-62184496D01*
X91427217Y-62184496D02*
X91484360Y-62127353D01*
X91484360Y-62127353D02*
X91598645Y-62070210D01*
X91598645Y-62070210D02*
X91770074Y-62070210D01*
X91770074Y-62070210D02*
X91884360Y-62127353D01*
X91884360Y-62127353D02*
X91941503Y-62184496D01*
X91941503Y-62184496D02*
X91998645Y-62298782D01*
X91998645Y-62298782D02*
X91998645Y-62641639D01*
X91998645Y-62641639D02*
X91941503Y-62755925D01*
X91941503Y-62755925D02*
X91884360Y-62813068D01*
X91884360Y-62813068D02*
X91770074Y-62870210D01*
X91770074Y-62870210D02*
X91598645Y-62870210D01*
X93027217Y-62070210D02*
X93027217Y-63041639D01*
X93027217Y-63041639D02*
X92970074Y-63155925D01*
X92970074Y-63155925D02*
X92912931Y-63213068D01*
X92912931Y-63213068D02*
X92798645Y-63270210D01*
X92798645Y-63270210D02*
X92627217Y-63270210D01*
X92627217Y-63270210D02*
X92512931Y-63213068D01*
X93027217Y-62813068D02*
X92912931Y-62870210D01*
X92912931Y-62870210D02*
X92684359Y-62870210D01*
X92684359Y-62870210D02*
X92570074Y-62813068D01*
X92570074Y-62813068D02*
X92512931Y-62755925D01*
X92512931Y-62755925D02*
X92455788Y-62641639D01*
X92455788Y-62641639D02*
X92455788Y-62298782D01*
X92455788Y-62298782D02*
X92512931Y-62184496D01*
X92512931Y-62184496D02*
X92570074Y-62127353D01*
X92570074Y-62127353D02*
X92684359Y-62070210D01*
X92684359Y-62070210D02*
X92912931Y-62070210D01*
X92912931Y-62070210D02*
X93027217Y-62127353D01*
X93598645Y-62870210D02*
X93598645Y-62070210D01*
X93598645Y-62298782D02*
X93655788Y-62184496D01*
X93655788Y-62184496D02*
X93712931Y-62127353D01*
X93712931Y-62127353D02*
X93827216Y-62070210D01*
X93827216Y-62070210D02*
X93941502Y-62070210D01*
X94855788Y-62870210D02*
X94855788Y-62241639D01*
X94855788Y-62241639D02*
X94798645Y-62127353D01*
X94798645Y-62127353D02*
X94684359Y-62070210D01*
X94684359Y-62070210D02*
X94455788Y-62070210D01*
X94455788Y-62070210D02*
X94341502Y-62127353D01*
X94855788Y-62813068D02*
X94741502Y-62870210D01*
X94741502Y-62870210D02*
X94455788Y-62870210D01*
X94455788Y-62870210D02*
X94341502Y-62813068D01*
X94341502Y-62813068D02*
X94284359Y-62698782D01*
X94284359Y-62698782D02*
X94284359Y-62584496D01*
X94284359Y-62584496D02*
X94341502Y-62470210D01*
X94341502Y-62470210D02*
X94455788Y-62413068D01*
X94455788Y-62413068D02*
X94741502Y-62413068D01*
X94741502Y-62413068D02*
X94855788Y-62355925D01*
X95427216Y-62870210D02*
X95427216Y-62070210D01*
X95427216Y-62184496D02*
X95484359Y-62127353D01*
X95484359Y-62127353D02*
X95598644Y-62070210D01*
X95598644Y-62070210D02*
X95770073Y-62070210D01*
X95770073Y-62070210D02*
X95884359Y-62127353D01*
X95884359Y-62127353D02*
X95941502Y-62241639D01*
X95941502Y-62241639D02*
X95941502Y-62870210D01*
X95941502Y-62241639D02*
X95998644Y-62127353D01*
X95998644Y-62127353D02*
X96112930Y-62070210D01*
X96112930Y-62070210D02*
X96284359Y-62070210D01*
X96284359Y-62070210D02*
X96398644Y-62127353D01*
X96398644Y-62127353D02*
X96455787Y-62241639D01*
X96455787Y-62241639D02*
X96455787Y-62870210D01*
X97027216Y-62870210D02*
X97027216Y-62070210D01*
X97027216Y-62184496D02*
X97084359Y-62127353D01*
X97084359Y-62127353D02*
X97198644Y-62070210D01*
X97198644Y-62070210D02*
X97370073Y-62070210D01*
X97370073Y-62070210D02*
X97484359Y-62127353D01*
X97484359Y-62127353D02*
X97541502Y-62241639D01*
X97541502Y-62241639D02*
X97541502Y-62870210D01*
X97541502Y-62241639D02*
X97598644Y-62127353D01*
X97598644Y-62127353D02*
X97712930Y-62070210D01*
X97712930Y-62070210D02*
X97884359Y-62070210D01*
X97884359Y-62070210D02*
X97998644Y-62127353D01*
X97998644Y-62127353D02*
X98055787Y-62241639D01*
X98055787Y-62241639D02*
X98055787Y-62870210D01*
X99084359Y-62813068D02*
X98970073Y-62870210D01*
X98970073Y-62870210D02*
X98741502Y-62870210D01*
X98741502Y-62870210D02*
X98627216Y-62813068D01*
X98627216Y-62813068D02*
X98570073Y-62698782D01*
X98570073Y-62698782D02*
X98570073Y-62241639D01*
X98570073Y-62241639D02*
X98627216Y-62127353D01*
X98627216Y-62127353D02*
X98741502Y-62070210D01*
X98741502Y-62070210D02*
X98970073Y-62070210D01*
X98970073Y-62070210D02*
X99084359Y-62127353D01*
X99084359Y-62127353D02*
X99141502Y-62241639D01*
X99141502Y-62241639D02*
X99141502Y-62355925D01*
X99141502Y-62355925D02*
X98570073Y-62470210D01*
X99655787Y-62870210D02*
X99655787Y-62070210D01*
X99655787Y-62298782D02*
X99712930Y-62184496D01*
X99712930Y-62184496D02*
X99770073Y-62127353D01*
X99770073Y-62127353D02*
X99884358Y-62070210D01*
X99884358Y-62070210D02*
X99998644Y-62070210D01*
X72684360Y-64459286D02*
X73255789Y-64459286D01*
X72570074Y-64802143D02*
X72970074Y-63602143D01*
X72970074Y-63602143D02*
X73370074Y-64802143D01*
X74284360Y-64002143D02*
X74284360Y-64802143D01*
X73770074Y-64002143D02*
X73770074Y-64630715D01*
X73770074Y-64630715D02*
X73827217Y-64745001D01*
X73827217Y-64745001D02*
X73941502Y-64802143D01*
X73941502Y-64802143D02*
X74112931Y-64802143D01*
X74112931Y-64802143D02*
X74227217Y-64745001D01*
X74227217Y-64745001D02*
X74284360Y-64687858D01*
X74684359Y-64002143D02*
X75141502Y-64002143D01*
X74855788Y-63602143D02*
X74855788Y-64630715D01*
X74855788Y-64630715D02*
X74912931Y-64745001D01*
X74912931Y-64745001D02*
X75027216Y-64802143D01*
X75027216Y-64802143D02*
X75141502Y-64802143D01*
X75541502Y-64802143D02*
X75541502Y-63602143D01*
X76055788Y-64802143D02*
X76055788Y-64173572D01*
X76055788Y-64173572D02*
X75998645Y-64059286D01*
X75998645Y-64059286D02*
X75884359Y-64002143D01*
X75884359Y-64002143D02*
X75712930Y-64002143D01*
X75712930Y-64002143D02*
X75598645Y-64059286D01*
X75598645Y-64059286D02*
X75541502Y-64116429D01*
X76798644Y-64802143D02*
X76684359Y-64745001D01*
X76684359Y-64745001D02*
X76627216Y-64687858D01*
X76627216Y-64687858D02*
X76570073Y-64573572D01*
X76570073Y-64573572D02*
X76570073Y-64230715D01*
X76570073Y-64230715D02*
X76627216Y-64116429D01*
X76627216Y-64116429D02*
X76684359Y-64059286D01*
X76684359Y-64059286D02*
X76798644Y-64002143D01*
X76798644Y-64002143D02*
X76970073Y-64002143D01*
X76970073Y-64002143D02*
X77084359Y-64059286D01*
X77084359Y-64059286D02*
X77141502Y-64116429D01*
X77141502Y-64116429D02*
X77198644Y-64230715D01*
X77198644Y-64230715D02*
X77198644Y-64573572D01*
X77198644Y-64573572D02*
X77141502Y-64687858D01*
X77141502Y-64687858D02*
X77084359Y-64745001D01*
X77084359Y-64745001D02*
X76970073Y-64802143D01*
X76970073Y-64802143D02*
X76798644Y-64802143D01*
X77712930Y-64802143D02*
X77712930Y-64002143D01*
X77712930Y-64230715D02*
X77770073Y-64116429D01*
X77770073Y-64116429D02*
X77827216Y-64059286D01*
X77827216Y-64059286D02*
X77941501Y-64002143D01*
X77941501Y-64002143D02*
X78055787Y-64002143D01*
X78455787Y-64687858D02*
X78512930Y-64745001D01*
X78512930Y-64745001D02*
X78455787Y-64802143D01*
X78455787Y-64802143D02*
X78398644Y-64745001D01*
X78398644Y-64745001D02*
X78455787Y-64687858D01*
X78455787Y-64687858D02*
X78455787Y-64802143D01*
X78455787Y-64059286D02*
X78512930Y-64116429D01*
X78512930Y-64116429D02*
X78455787Y-64173572D01*
X78455787Y-64173572D02*
X78398644Y-64116429D01*
X78398644Y-64116429D02*
X78455787Y-64059286D01*
X78455787Y-64059286D02*
X78455787Y-64173572D01*
X79884359Y-64459286D02*
X80455788Y-64459286D01*
X79770073Y-64802143D02*
X80170073Y-63602143D01*
X80170073Y-63602143D02*
X80570073Y-64802143D01*
X81141501Y-64802143D02*
X81027216Y-64745001D01*
X81027216Y-64745001D02*
X80970073Y-64630715D01*
X80970073Y-64630715D02*
X80970073Y-63602143D01*
X82055787Y-64745001D02*
X81941501Y-64802143D01*
X81941501Y-64802143D02*
X81712930Y-64802143D01*
X81712930Y-64802143D02*
X81598644Y-64745001D01*
X81598644Y-64745001D02*
X81541501Y-64630715D01*
X81541501Y-64630715D02*
X81541501Y-64173572D01*
X81541501Y-64173572D02*
X81598644Y-64059286D01*
X81598644Y-64059286D02*
X81712930Y-64002143D01*
X81712930Y-64002143D02*
X81941501Y-64002143D01*
X81941501Y-64002143D02*
X82055787Y-64059286D01*
X82055787Y-64059286D02*
X82112930Y-64173572D01*
X82112930Y-64173572D02*
X82112930Y-64287858D01*
X82112930Y-64287858D02*
X81541501Y-64402143D01*
X82512929Y-64802143D02*
X83141501Y-64002143D01*
X82512929Y-64002143D02*
X83141501Y-64802143D01*
X84112930Y-64802143D02*
X84112930Y-64173572D01*
X84112930Y-64173572D02*
X84055787Y-64059286D01*
X84055787Y-64059286D02*
X83941501Y-64002143D01*
X83941501Y-64002143D02*
X83712930Y-64002143D01*
X83712930Y-64002143D02*
X83598644Y-64059286D01*
X84112930Y-64745001D02*
X83998644Y-64802143D01*
X83998644Y-64802143D02*
X83712930Y-64802143D01*
X83712930Y-64802143D02*
X83598644Y-64745001D01*
X83598644Y-64745001D02*
X83541501Y-64630715D01*
X83541501Y-64630715D02*
X83541501Y-64516429D01*
X83541501Y-64516429D02*
X83598644Y-64402143D01*
X83598644Y-64402143D02*
X83712930Y-64345001D01*
X83712930Y-64345001D02*
X83998644Y-64345001D01*
X83998644Y-64345001D02*
X84112930Y-64287858D01*
X84684358Y-64002143D02*
X84684358Y-64802143D01*
X84684358Y-64116429D02*
X84741501Y-64059286D01*
X84741501Y-64059286D02*
X84855786Y-64002143D01*
X84855786Y-64002143D02*
X85027215Y-64002143D01*
X85027215Y-64002143D02*
X85141501Y-64059286D01*
X85141501Y-64059286D02*
X85198644Y-64173572D01*
X85198644Y-64173572D02*
X85198644Y-64802143D01*
X86284358Y-64802143D02*
X86284358Y-63602143D01*
X86284358Y-64745001D02*
X86170072Y-64802143D01*
X86170072Y-64802143D02*
X85941500Y-64802143D01*
X85941500Y-64802143D02*
X85827215Y-64745001D01*
X85827215Y-64745001D02*
X85770072Y-64687858D01*
X85770072Y-64687858D02*
X85712929Y-64573572D01*
X85712929Y-64573572D02*
X85712929Y-64230715D01*
X85712929Y-64230715D02*
X85770072Y-64116429D01*
X85770072Y-64116429D02*
X85827215Y-64059286D01*
X85827215Y-64059286D02*
X85941500Y-64002143D01*
X85941500Y-64002143D02*
X86170072Y-64002143D01*
X86170072Y-64002143D02*
X86284358Y-64059286D01*
X87312929Y-64745001D02*
X87198643Y-64802143D01*
X87198643Y-64802143D02*
X86970072Y-64802143D01*
X86970072Y-64802143D02*
X86855786Y-64745001D01*
X86855786Y-64745001D02*
X86798643Y-64630715D01*
X86798643Y-64630715D02*
X86798643Y-64173572D01*
X86798643Y-64173572D02*
X86855786Y-64059286D01*
X86855786Y-64059286D02*
X86970072Y-64002143D01*
X86970072Y-64002143D02*
X87198643Y-64002143D01*
X87198643Y-64002143D02*
X87312929Y-64059286D01*
X87312929Y-64059286D02*
X87370072Y-64173572D01*
X87370072Y-64173572D02*
X87370072Y-64287858D01*
X87370072Y-64287858D02*
X86798643Y-64402143D01*
X87884357Y-64802143D02*
X87884357Y-64002143D01*
X87884357Y-64230715D02*
X87941500Y-64116429D01*
X87941500Y-64116429D02*
X87998643Y-64059286D01*
X87998643Y-64059286D02*
X88112928Y-64002143D01*
X88112928Y-64002143D02*
X88227214Y-64002143D01*
X89541500Y-64802143D02*
X89541500Y-63602143D01*
X89541500Y-64173572D02*
X90227214Y-64173572D01*
X90227214Y-64802143D02*
X90227214Y-63602143D01*
X91312929Y-64002143D02*
X91312929Y-64802143D01*
X90798643Y-64002143D02*
X90798643Y-64630715D01*
X90798643Y-64630715D02*
X90855786Y-64745001D01*
X90855786Y-64745001D02*
X90970071Y-64802143D01*
X90970071Y-64802143D02*
X91141500Y-64802143D01*
X91141500Y-64802143D02*
X91255786Y-64745001D01*
X91255786Y-64745001D02*
X91312929Y-64687858D01*
X92341500Y-64745001D02*
X92227214Y-64802143D01*
X92227214Y-64802143D02*
X91998643Y-64802143D01*
X91998643Y-64802143D02*
X91884357Y-64745001D01*
X91884357Y-64745001D02*
X91827214Y-64630715D01*
X91827214Y-64630715D02*
X91827214Y-64173572D01*
X91827214Y-64173572D02*
X91884357Y-64059286D01*
X91884357Y-64059286D02*
X91998643Y-64002143D01*
X91998643Y-64002143D02*
X92227214Y-64002143D01*
X92227214Y-64002143D02*
X92341500Y-64059286D01*
X92341500Y-64059286D02*
X92398643Y-64173572D01*
X92398643Y-64173572D02*
X92398643Y-64287858D01*
X92398643Y-64287858D02*
X91827214Y-64402143D01*
X92912928Y-64802143D02*
X92912928Y-64002143D01*
X92912928Y-64116429D02*
X92970071Y-64059286D01*
X92970071Y-64059286D02*
X93084356Y-64002143D01*
X93084356Y-64002143D02*
X93255785Y-64002143D01*
X93255785Y-64002143D02*
X93370071Y-64059286D01*
X93370071Y-64059286D02*
X93427214Y-64173572D01*
X93427214Y-64173572D02*
X93427214Y-64802143D01*
X93427214Y-64173572D02*
X93484356Y-64059286D01*
X93484356Y-64059286D02*
X93598642Y-64002143D01*
X93598642Y-64002143D02*
X93770071Y-64002143D01*
X93770071Y-64002143D02*
X93884356Y-64059286D01*
X93884356Y-64059286D02*
X93941499Y-64173572D01*
X93941499Y-64173572D02*
X93941499Y-64802143D01*
X94970071Y-64745001D02*
X94855785Y-64802143D01*
X94855785Y-64802143D02*
X94627214Y-64802143D01*
X94627214Y-64802143D02*
X94512928Y-64745001D01*
X94512928Y-64745001D02*
X94455785Y-64630715D01*
X94455785Y-64630715D02*
X94455785Y-64173572D01*
X94455785Y-64173572D02*
X94512928Y-64059286D01*
X94512928Y-64059286D02*
X94627214Y-64002143D01*
X94627214Y-64002143D02*
X94855785Y-64002143D01*
X94855785Y-64002143D02*
X94970071Y-64059286D01*
X94970071Y-64059286D02*
X95027214Y-64173572D01*
X95027214Y-64173572D02*
X95027214Y-64287858D01*
X95027214Y-64287858D02*
X94455785Y-64402143D01*
X95541499Y-64802143D02*
X95541499Y-64002143D01*
X95541499Y-64230715D02*
X95598642Y-64116429D01*
X95598642Y-64116429D02*
X95655785Y-64059286D01*
X95655785Y-64059286D02*
X95770070Y-64002143D01*
X95770070Y-64002143D02*
X95884356Y-64002143D01*
X97198642Y-64345001D02*
X98112928Y-64345001D01*
X99941499Y-63602143D02*
X99941499Y-64459286D01*
X99941499Y-64459286D02*
X99884356Y-64630715D01*
X99884356Y-64630715D02*
X99770070Y-64745001D01*
X99770070Y-64745001D02*
X99598642Y-64802143D01*
X99598642Y-64802143D02*
X99484356Y-64802143D01*
X101027214Y-64002143D02*
X101027214Y-64802143D01*
X100512928Y-64002143D02*
X100512928Y-64630715D01*
X100512928Y-64630715D02*
X100570071Y-64745001D01*
X100570071Y-64745001D02*
X100684356Y-64802143D01*
X100684356Y-64802143D02*
X100855785Y-64802143D01*
X100855785Y-64802143D02*
X100970071Y-64745001D01*
X100970071Y-64745001D02*
X101027214Y-64687858D01*
X101770070Y-64802143D02*
X101655785Y-64745001D01*
X101655785Y-64745001D02*
X101598642Y-64630715D01*
X101598642Y-64630715D02*
X101598642Y-63602143D01*
X102112927Y-64002143D02*
X102398641Y-64802143D01*
X102684356Y-64002143D02*
X102398641Y-64802143D01*
X102398641Y-64802143D02*
X102284356Y-65087858D01*
X102284356Y-65087858D02*
X102227213Y-65145001D01*
X102227213Y-65145001D02*
X102112927Y-65202143D01*
X103998642Y-63716429D02*
X104055785Y-63659286D01*
X104055785Y-63659286D02*
X104170071Y-63602143D01*
X104170071Y-63602143D02*
X104455785Y-63602143D01*
X104455785Y-63602143D02*
X104570071Y-63659286D01*
X104570071Y-63659286D02*
X104627213Y-63716429D01*
X104627213Y-63716429D02*
X104684356Y-63830715D01*
X104684356Y-63830715D02*
X104684356Y-63945001D01*
X104684356Y-63945001D02*
X104627213Y-64116429D01*
X104627213Y-64116429D02*
X103941499Y-64802143D01*
X103941499Y-64802143D02*
X104684356Y-64802143D01*
X105427213Y-63602143D02*
X105541499Y-63602143D01*
X105541499Y-63602143D02*
X105655785Y-63659286D01*
X105655785Y-63659286D02*
X105712928Y-63716429D01*
X105712928Y-63716429D02*
X105770070Y-63830715D01*
X105770070Y-63830715D02*
X105827213Y-64059286D01*
X105827213Y-64059286D02*
X105827213Y-64345001D01*
X105827213Y-64345001D02*
X105770070Y-64573572D01*
X105770070Y-64573572D02*
X105712928Y-64687858D01*
X105712928Y-64687858D02*
X105655785Y-64745001D01*
X105655785Y-64745001D02*
X105541499Y-64802143D01*
X105541499Y-64802143D02*
X105427213Y-64802143D01*
X105427213Y-64802143D02*
X105312928Y-64745001D01*
X105312928Y-64745001D02*
X105255785Y-64687858D01*
X105255785Y-64687858D02*
X105198642Y-64573572D01*
X105198642Y-64573572D02*
X105141499Y-64345001D01*
X105141499Y-64345001D02*
X105141499Y-64059286D01*
X105141499Y-64059286D02*
X105198642Y-63830715D01*
X105198642Y-63830715D02*
X105255785Y-63716429D01*
X105255785Y-63716429D02*
X105312928Y-63659286D01*
X105312928Y-63659286D02*
X105427213Y-63602143D01*
X106284356Y-63716429D02*
X106341499Y-63659286D01*
X106341499Y-63659286D02*
X106455785Y-63602143D01*
X106455785Y-63602143D02*
X106741499Y-63602143D01*
X106741499Y-63602143D02*
X106855785Y-63659286D01*
X106855785Y-63659286D02*
X106912927Y-63716429D01*
X106912927Y-63716429D02*
X106970070Y-63830715D01*
X106970070Y-63830715D02*
X106970070Y-63945001D01*
X106970070Y-63945001D02*
X106912927Y-64116429D01*
X106912927Y-64116429D02*
X106227213Y-64802143D01*
X106227213Y-64802143D02*
X106970070Y-64802143D01*
X107998642Y-63602143D02*
X107770070Y-63602143D01*
X107770070Y-63602143D02*
X107655784Y-63659286D01*
X107655784Y-63659286D02*
X107598642Y-63716429D01*
X107598642Y-63716429D02*
X107484356Y-63887858D01*
X107484356Y-63887858D02*
X107427213Y-64116429D01*
X107427213Y-64116429D02*
X107427213Y-64573572D01*
X107427213Y-64573572D02*
X107484356Y-64687858D01*
X107484356Y-64687858D02*
X107541499Y-64745001D01*
X107541499Y-64745001D02*
X107655784Y-64802143D01*
X107655784Y-64802143D02*
X107884356Y-64802143D01*
X107884356Y-64802143D02*
X107998642Y-64745001D01*
X107998642Y-64745001D02*
X108055784Y-64687858D01*
X108055784Y-64687858D02*
X108112927Y-64573572D01*
X108112927Y-64573572D02*
X108112927Y-64287858D01*
X108112927Y-64287858D02*
X108055784Y-64173572D01*
X108055784Y-64173572D02*
X107998642Y-64116429D01*
X107998642Y-64116429D02*
X107884356Y-64059286D01*
X107884356Y-64059286D02*
X107655784Y-64059286D01*
X107655784Y-64059286D02*
X107541499Y-64116429D01*
X107541499Y-64116429D02*
X107484356Y-64173572D01*
X107484356Y-64173572D02*
X107427213Y-64287858D01*
X72741503Y-65534076D02*
X72741503Y-66505505D01*
X72741503Y-66505505D02*
X72798646Y-66619791D01*
X72798646Y-66619791D02*
X72855789Y-66676934D01*
X72855789Y-66676934D02*
X72970074Y-66734076D01*
X72970074Y-66734076D02*
X73198646Y-66734076D01*
X73198646Y-66734076D02*
X73312931Y-66676934D01*
X73312931Y-66676934D02*
X73370074Y-66619791D01*
X73370074Y-66619791D02*
X73427217Y-66505505D01*
X73427217Y-66505505D02*
X73427217Y-65534076D01*
X74684360Y-66734076D02*
X74284360Y-66162648D01*
X73998646Y-66734076D02*
X73998646Y-65534076D01*
X73998646Y-65534076D02*
X74455789Y-65534076D01*
X74455789Y-65534076D02*
X74570074Y-65591219D01*
X74570074Y-65591219D02*
X74627217Y-65648362D01*
X74627217Y-65648362D02*
X74684360Y-65762648D01*
X74684360Y-65762648D02*
X74684360Y-65934076D01*
X74684360Y-65934076D02*
X74627217Y-66048362D01*
X74627217Y-66048362D02*
X74570074Y-66105505D01*
X74570074Y-66105505D02*
X74455789Y-66162648D01*
X74455789Y-66162648D02*
X73998646Y-66162648D01*
X75770074Y-66734076D02*
X75198646Y-66734076D01*
X75198646Y-66734076D02*
X75198646Y-65534076D01*
X76170075Y-66619791D02*
X76227218Y-66676934D01*
X76227218Y-66676934D02*
X76170075Y-66734076D01*
X76170075Y-66734076D02*
X76112932Y-66676934D01*
X76112932Y-66676934D02*
X76170075Y-66619791D01*
X76170075Y-66619791D02*
X76170075Y-66734076D01*
X76170075Y-65991219D02*
X76227218Y-66048362D01*
X76227218Y-66048362D02*
X76170075Y-66105505D01*
X76170075Y-66105505D02*
X76112932Y-66048362D01*
X76112932Y-66048362D02*
X76170075Y-65991219D01*
X76170075Y-65991219D02*
X76170075Y-66105505D01*
X77655790Y-66734076D02*
X77655790Y-65534076D01*
X78170076Y-66734076D02*
X78170076Y-66105505D01*
X78170076Y-66105505D02*
X78112933Y-65991219D01*
X78112933Y-65991219D02*
X77998647Y-65934076D01*
X77998647Y-65934076D02*
X77827218Y-65934076D01*
X77827218Y-65934076D02*
X77712933Y-65991219D01*
X77712933Y-65991219D02*
X77655790Y-66048362D01*
X78570075Y-65934076D02*
X79027218Y-65934076D01*
X78741504Y-65534076D02*
X78741504Y-66562648D01*
X78741504Y-66562648D02*
X78798647Y-66676934D01*
X78798647Y-66676934D02*
X78912932Y-66734076D01*
X78912932Y-66734076D02*
X79027218Y-66734076D01*
X79255789Y-65934076D02*
X79712932Y-65934076D01*
X79427218Y-65534076D02*
X79427218Y-66562648D01*
X79427218Y-66562648D02*
X79484361Y-66676934D01*
X79484361Y-66676934D02*
X79598646Y-66734076D01*
X79598646Y-66734076D02*
X79712932Y-66734076D01*
X80112932Y-65934076D02*
X80112932Y-67134076D01*
X80112932Y-65991219D02*
X80227218Y-65934076D01*
X80227218Y-65934076D02*
X80455789Y-65934076D01*
X80455789Y-65934076D02*
X80570075Y-65991219D01*
X80570075Y-65991219D02*
X80627218Y-66048362D01*
X80627218Y-66048362D02*
X80684360Y-66162648D01*
X80684360Y-66162648D02*
X80684360Y-66505505D01*
X80684360Y-66505505D02*
X80627218Y-66619791D01*
X80627218Y-66619791D02*
X80570075Y-66676934D01*
X80570075Y-66676934D02*
X80455789Y-66734076D01*
X80455789Y-66734076D02*
X80227218Y-66734076D01*
X80227218Y-66734076D02*
X80112932Y-66676934D01*
X81141503Y-66676934D02*
X81255789Y-66734076D01*
X81255789Y-66734076D02*
X81484360Y-66734076D01*
X81484360Y-66734076D02*
X81598646Y-66676934D01*
X81598646Y-66676934D02*
X81655789Y-66562648D01*
X81655789Y-66562648D02*
X81655789Y-66505505D01*
X81655789Y-66505505D02*
X81598646Y-66391219D01*
X81598646Y-66391219D02*
X81484360Y-66334076D01*
X81484360Y-66334076D02*
X81312932Y-66334076D01*
X81312932Y-66334076D02*
X81198646Y-66276934D01*
X81198646Y-66276934D02*
X81141503Y-66162648D01*
X81141503Y-66162648D02*
X81141503Y-66105505D01*
X81141503Y-66105505D02*
X81198646Y-65991219D01*
X81198646Y-65991219D02*
X81312932Y-65934076D01*
X81312932Y-65934076D02*
X81484360Y-65934076D01*
X81484360Y-65934076D02*
X81598646Y-65991219D01*
X82170075Y-66619791D02*
X82227218Y-66676934D01*
X82227218Y-66676934D02*
X82170075Y-66734076D01*
X82170075Y-66734076D02*
X82112932Y-66676934D01*
X82112932Y-66676934D02*
X82170075Y-66619791D01*
X82170075Y-66619791D02*
X82170075Y-66734076D01*
X82170075Y-65991219D02*
X82227218Y-66048362D01*
X82227218Y-66048362D02*
X82170075Y-66105505D01*
X82170075Y-66105505D02*
X82112932Y-66048362D01*
X82112932Y-66048362D02*
X82170075Y-65991219D01*
X82170075Y-65991219D02*
X82170075Y-66105505D01*
X83598647Y-65476934D02*
X82570075Y-67019791D01*
X84855790Y-65476934D02*
X83827218Y-67019791D01*
X85770076Y-65934076D02*
X85770076Y-66905505D01*
X85770076Y-66905505D02*
X85712933Y-67019791D01*
X85712933Y-67019791D02*
X85655790Y-67076934D01*
X85655790Y-67076934D02*
X85541504Y-67134076D01*
X85541504Y-67134076D02*
X85370076Y-67134076D01*
X85370076Y-67134076D02*
X85255790Y-67076934D01*
X85770076Y-66676934D02*
X85655790Y-66734076D01*
X85655790Y-66734076D02*
X85427218Y-66734076D01*
X85427218Y-66734076D02*
X85312933Y-66676934D01*
X85312933Y-66676934D02*
X85255790Y-66619791D01*
X85255790Y-66619791D02*
X85198647Y-66505505D01*
X85198647Y-66505505D02*
X85198647Y-66162648D01*
X85198647Y-66162648D02*
X85255790Y-66048362D01*
X85255790Y-66048362D02*
X85312933Y-65991219D01*
X85312933Y-65991219D02*
X85427218Y-65934076D01*
X85427218Y-65934076D02*
X85655790Y-65934076D01*
X85655790Y-65934076D02*
X85770076Y-65991219D01*
X86341504Y-66734076D02*
X86341504Y-65934076D01*
X86341504Y-65534076D02*
X86284361Y-65591219D01*
X86284361Y-65591219D02*
X86341504Y-65648362D01*
X86341504Y-65648362D02*
X86398647Y-65591219D01*
X86398647Y-65591219D02*
X86341504Y-65534076D01*
X86341504Y-65534076D02*
X86341504Y-65648362D01*
X86741504Y-65934076D02*
X87198647Y-65934076D01*
X86912933Y-65534076D02*
X86912933Y-66562648D01*
X86912933Y-66562648D02*
X86970076Y-66676934D01*
X86970076Y-66676934D02*
X87084361Y-66734076D01*
X87084361Y-66734076D02*
X87198647Y-66734076D01*
X87598647Y-66734076D02*
X87598647Y-65534076D01*
X88112933Y-66734076D02*
X88112933Y-66105505D01*
X88112933Y-66105505D02*
X88055790Y-65991219D01*
X88055790Y-65991219D02*
X87941504Y-65934076D01*
X87941504Y-65934076D02*
X87770075Y-65934076D01*
X87770075Y-65934076D02*
X87655790Y-65991219D01*
X87655790Y-65991219D02*
X87598647Y-66048362D01*
X89198647Y-65934076D02*
X89198647Y-66734076D01*
X88684361Y-65934076D02*
X88684361Y-66562648D01*
X88684361Y-66562648D02*
X88741504Y-66676934D01*
X88741504Y-66676934D02*
X88855789Y-66734076D01*
X88855789Y-66734076D02*
X89027218Y-66734076D01*
X89027218Y-66734076D02*
X89141504Y-66676934D01*
X89141504Y-66676934D02*
X89198647Y-66619791D01*
X89770075Y-66734076D02*
X89770075Y-65534076D01*
X89770075Y-65991219D02*
X89884361Y-65934076D01*
X89884361Y-65934076D02*
X90112932Y-65934076D01*
X90112932Y-65934076D02*
X90227218Y-65991219D01*
X90227218Y-65991219D02*
X90284361Y-66048362D01*
X90284361Y-66048362D02*
X90341503Y-66162648D01*
X90341503Y-66162648D02*
X90341503Y-66505505D01*
X90341503Y-66505505D02*
X90284361Y-66619791D01*
X90284361Y-66619791D02*
X90227218Y-66676934D01*
X90227218Y-66676934D02*
X90112932Y-66734076D01*
X90112932Y-66734076D02*
X89884361Y-66734076D01*
X89884361Y-66734076D02*
X89770075Y-66676934D01*
X90855789Y-66619791D02*
X90912932Y-66676934D01*
X90912932Y-66676934D02*
X90855789Y-66734076D01*
X90855789Y-66734076D02*
X90798646Y-66676934D01*
X90798646Y-66676934D02*
X90855789Y-66619791D01*
X90855789Y-66619791D02*
X90855789Y-66734076D01*
X91941504Y-66676934D02*
X91827218Y-66734076D01*
X91827218Y-66734076D02*
X91598646Y-66734076D01*
X91598646Y-66734076D02*
X91484361Y-66676934D01*
X91484361Y-66676934D02*
X91427218Y-66619791D01*
X91427218Y-66619791D02*
X91370075Y-66505505D01*
X91370075Y-66505505D02*
X91370075Y-66162648D01*
X91370075Y-66162648D02*
X91427218Y-66048362D01*
X91427218Y-66048362D02*
X91484361Y-65991219D01*
X91484361Y-65991219D02*
X91598646Y-65934076D01*
X91598646Y-65934076D02*
X91827218Y-65934076D01*
X91827218Y-65934076D02*
X91941504Y-65991219D01*
X92627217Y-66734076D02*
X92512932Y-66676934D01*
X92512932Y-66676934D02*
X92455789Y-66619791D01*
X92455789Y-66619791D02*
X92398646Y-66505505D01*
X92398646Y-66505505D02*
X92398646Y-66162648D01*
X92398646Y-66162648D02*
X92455789Y-66048362D01*
X92455789Y-66048362D02*
X92512932Y-65991219D01*
X92512932Y-65991219D02*
X92627217Y-65934076D01*
X92627217Y-65934076D02*
X92798646Y-65934076D01*
X92798646Y-65934076D02*
X92912932Y-65991219D01*
X92912932Y-65991219D02*
X92970075Y-66048362D01*
X92970075Y-66048362D02*
X93027217Y-66162648D01*
X93027217Y-66162648D02*
X93027217Y-66505505D01*
X93027217Y-66505505D02*
X92970075Y-66619791D01*
X92970075Y-66619791D02*
X92912932Y-66676934D01*
X92912932Y-66676934D02*
X92798646Y-66734076D01*
X92798646Y-66734076D02*
X92627217Y-66734076D01*
X93541503Y-66734076D02*
X93541503Y-65934076D01*
X93541503Y-66048362D02*
X93598646Y-65991219D01*
X93598646Y-65991219D02*
X93712931Y-65934076D01*
X93712931Y-65934076D02*
X93884360Y-65934076D01*
X93884360Y-65934076D02*
X93998646Y-65991219D01*
X93998646Y-65991219D02*
X94055789Y-66105505D01*
X94055789Y-66105505D02*
X94055789Y-66734076D01*
X94055789Y-66105505D02*
X94112931Y-65991219D01*
X94112931Y-65991219D02*
X94227217Y-65934076D01*
X94227217Y-65934076D02*
X94398646Y-65934076D01*
X94398646Y-65934076D02*
X94512931Y-65991219D01*
X94512931Y-65991219D02*
X94570074Y-66105505D01*
X94570074Y-66105505D02*
X94570074Y-66734076D01*
X95998646Y-65476934D02*
X94970074Y-67019791D01*
X96398646Y-66734076D02*
X96398646Y-65534076D01*
X96398646Y-65991219D02*
X96512932Y-65934076D01*
X96512932Y-65934076D02*
X96741503Y-65934076D01*
X96741503Y-65934076D02*
X96855789Y-65991219D01*
X96855789Y-65991219D02*
X96912932Y-66048362D01*
X96912932Y-66048362D02*
X96970074Y-66162648D01*
X96970074Y-66162648D02*
X96970074Y-66505505D01*
X96970074Y-66505505D02*
X96912932Y-66619791D01*
X96912932Y-66619791D02*
X96855789Y-66676934D01*
X96855789Y-66676934D02*
X96741503Y-66734076D01*
X96741503Y-66734076D02*
X96512932Y-66734076D01*
X96512932Y-66734076D02*
X96398646Y-66676934D01*
X97655788Y-66734076D02*
X97541503Y-66676934D01*
X97541503Y-66676934D02*
X97484360Y-66562648D01*
X97484360Y-66562648D02*
X97484360Y-65534076D01*
X98627217Y-66734076D02*
X98627217Y-66105505D01*
X98627217Y-66105505D02*
X98570074Y-65991219D01*
X98570074Y-65991219D02*
X98455788Y-65934076D01*
X98455788Y-65934076D02*
X98227217Y-65934076D01*
X98227217Y-65934076D02*
X98112931Y-65991219D01*
X98627217Y-66676934D02*
X98512931Y-66734076D01*
X98512931Y-66734076D02*
X98227217Y-66734076D01*
X98227217Y-66734076D02*
X98112931Y-66676934D01*
X98112931Y-66676934D02*
X98055788Y-66562648D01*
X98055788Y-66562648D02*
X98055788Y-66448362D01*
X98055788Y-66448362D02*
X98112931Y-66334076D01*
X98112931Y-66334076D02*
X98227217Y-66276934D01*
X98227217Y-66276934D02*
X98512931Y-66276934D01*
X98512931Y-66276934D02*
X98627217Y-66219791D01*
X99712931Y-66676934D02*
X99598645Y-66734076D01*
X99598645Y-66734076D02*
X99370073Y-66734076D01*
X99370073Y-66734076D02*
X99255788Y-66676934D01*
X99255788Y-66676934D02*
X99198645Y-66619791D01*
X99198645Y-66619791D02*
X99141502Y-66505505D01*
X99141502Y-66505505D02*
X99141502Y-66162648D01*
X99141502Y-66162648D02*
X99198645Y-66048362D01*
X99198645Y-66048362D02*
X99255788Y-65991219D01*
X99255788Y-65991219D02*
X99370073Y-65934076D01*
X99370073Y-65934076D02*
X99598645Y-65934076D01*
X99598645Y-65934076D02*
X99712931Y-65991219D01*
X100227216Y-66734076D02*
X100227216Y-65534076D01*
X100341502Y-66276934D02*
X100684359Y-66734076D01*
X100684359Y-65934076D02*
X100227216Y-66391219D01*
X101198645Y-66734076D02*
X101198645Y-65534076D01*
X101198645Y-65991219D02*
X101312931Y-65934076D01*
X101312931Y-65934076D02*
X101541502Y-65934076D01*
X101541502Y-65934076D02*
X101655788Y-65991219D01*
X101655788Y-65991219D02*
X101712931Y-66048362D01*
X101712931Y-66048362D02*
X101770073Y-66162648D01*
X101770073Y-66162648D02*
X101770073Y-66505505D01*
X101770073Y-66505505D02*
X101712931Y-66619791D01*
X101712931Y-66619791D02*
X101655788Y-66676934D01*
X101655788Y-66676934D02*
X101541502Y-66734076D01*
X101541502Y-66734076D02*
X101312931Y-66734076D01*
X101312931Y-66734076D02*
X101198645Y-66676934D01*
X102284359Y-66734076D02*
X102284359Y-65934076D01*
X102284359Y-65534076D02*
X102227216Y-65591219D01*
X102227216Y-65591219D02*
X102284359Y-65648362D01*
X102284359Y-65648362D02*
X102341502Y-65591219D01*
X102341502Y-65591219D02*
X102284359Y-65534076D01*
X102284359Y-65534076D02*
X102284359Y-65648362D01*
X102684359Y-65934076D02*
X103141502Y-65934076D01*
X102855788Y-65534076D02*
X102855788Y-66562648D01*
X102855788Y-66562648D02*
X102912931Y-66676934D01*
X102912931Y-66676934D02*
X103027216Y-66734076D01*
X103027216Y-66734076D02*
X103141502Y-66734076D01*
X104055788Y-65934076D02*
X104055788Y-66734076D01*
X103770073Y-65476934D02*
X103484359Y-66334076D01*
X103484359Y-66334076D02*
X104227216Y-66334076D01*
X104627216Y-65648362D02*
X104684359Y-65591219D01*
X104684359Y-65591219D02*
X104798645Y-65534076D01*
X104798645Y-65534076D02*
X105084359Y-65534076D01*
X105084359Y-65534076D02*
X105198645Y-65591219D01*
X105198645Y-65591219D02*
X105255787Y-65648362D01*
X105255787Y-65648362D02*
X105312930Y-65762648D01*
X105312930Y-65762648D02*
X105312930Y-65876934D01*
X105312930Y-65876934D02*
X105255787Y-66048362D01*
X105255787Y-66048362D02*
X104570073Y-66734076D01*
X104570073Y-66734076D02*
X105312930Y-66734076D01*
X106684359Y-65476934D02*
X105655787Y-67019791D01*
X107084359Y-65934076D02*
X107084359Y-67134076D01*
X107084359Y-65991219D02*
X107198645Y-65934076D01*
X107198645Y-65934076D02*
X107427216Y-65934076D01*
X107427216Y-65934076D02*
X107541502Y-65991219D01*
X107541502Y-65991219D02*
X107598645Y-66048362D01*
X107598645Y-66048362D02*
X107655787Y-66162648D01*
X107655787Y-66162648D02*
X107655787Y-66505505D01*
X107655787Y-66505505D02*
X107598645Y-66619791D01*
X107598645Y-66619791D02*
X107541502Y-66676934D01*
X107541502Y-66676934D02*
X107427216Y-66734076D01*
X107427216Y-66734076D02*
X107198645Y-66734076D01*
X107198645Y-66734076D02*
X107084359Y-66676934D01*
X108170073Y-66734076D02*
X108170073Y-65934076D01*
X108170073Y-65534076D02*
X108112930Y-65591219D01*
X108112930Y-65591219D02*
X108170073Y-65648362D01*
X108170073Y-65648362D02*
X108227216Y-65591219D01*
X108227216Y-65591219D02*
X108170073Y-65534076D01*
X108170073Y-65534076D02*
X108170073Y-65648362D01*
X108741502Y-66276934D02*
X109655788Y-66276934D01*
X110170073Y-66676934D02*
X110284359Y-66734076D01*
X110284359Y-66734076D02*
X110512930Y-66734076D01*
X110512930Y-66734076D02*
X110627216Y-66676934D01*
X110627216Y-66676934D02*
X110684359Y-66562648D01*
X110684359Y-66562648D02*
X110684359Y-66505505D01*
X110684359Y-66505505D02*
X110627216Y-66391219D01*
X110627216Y-66391219D02*
X110512930Y-66334076D01*
X110512930Y-66334076D02*
X110341502Y-66334076D01*
X110341502Y-66334076D02*
X110227216Y-66276934D01*
X110227216Y-66276934D02*
X110170073Y-66162648D01*
X110170073Y-66162648D02*
X110170073Y-66105505D01*
X110170073Y-66105505D02*
X110227216Y-65991219D01*
X110227216Y-65991219D02*
X110341502Y-65934076D01*
X110341502Y-65934076D02*
X110512930Y-65934076D01*
X110512930Y-65934076D02*
X110627216Y-65991219D01*
X111027216Y-65934076D02*
X111484359Y-65934076D01*
X111198645Y-66734076D02*
X111198645Y-65705505D01*
X111198645Y-65705505D02*
X111255788Y-65591219D01*
X111255788Y-65591219D02*
X111370073Y-65534076D01*
X111370073Y-65534076D02*
X111484359Y-65534076D01*
X111884359Y-65934076D02*
X111884359Y-67134076D01*
X111884359Y-65991219D02*
X111998645Y-65934076D01*
X111998645Y-65934076D02*
X112227216Y-65934076D01*
X112227216Y-65934076D02*
X112341502Y-65991219D01*
X112341502Y-65991219D02*
X112398645Y-66048362D01*
X112398645Y-66048362D02*
X112455787Y-66162648D01*
X112455787Y-66162648D02*
X112455787Y-66505505D01*
X112455787Y-66505505D02*
X112398645Y-66619791D01*
X112398645Y-66619791D02*
X112341502Y-66676934D01*
X112341502Y-66676934D02*
X112227216Y-66734076D01*
X112227216Y-66734076D02*
X111998645Y-66734076D01*
X111998645Y-66734076D02*
X111884359Y-66676934D01*
X72684360Y-68608867D02*
X72855789Y-68666009D01*
X72855789Y-68666009D02*
X73141503Y-68666009D01*
X73141503Y-68666009D02*
X73255789Y-68608867D01*
X73255789Y-68608867D02*
X73312931Y-68551724D01*
X73312931Y-68551724D02*
X73370074Y-68437438D01*
X73370074Y-68437438D02*
X73370074Y-68323152D01*
X73370074Y-68323152D02*
X73312931Y-68208867D01*
X73312931Y-68208867D02*
X73255789Y-68151724D01*
X73255789Y-68151724D02*
X73141503Y-68094581D01*
X73141503Y-68094581D02*
X72912931Y-68037438D01*
X72912931Y-68037438D02*
X72798646Y-67980295D01*
X72798646Y-67980295D02*
X72741503Y-67923152D01*
X72741503Y-67923152D02*
X72684360Y-67808867D01*
X72684360Y-67808867D02*
X72684360Y-67694581D01*
X72684360Y-67694581D02*
X72741503Y-67580295D01*
X72741503Y-67580295D02*
X72798646Y-67523152D01*
X72798646Y-67523152D02*
X72912931Y-67466009D01*
X72912931Y-67466009D02*
X73198646Y-67466009D01*
X73198646Y-67466009D02*
X73370074Y-67523152D01*
X73884360Y-68666009D02*
X73884360Y-67466009D01*
X73884360Y-67466009D02*
X74341503Y-67466009D01*
X74341503Y-67466009D02*
X74455788Y-67523152D01*
X74455788Y-67523152D02*
X74512931Y-67580295D01*
X74512931Y-67580295D02*
X74570074Y-67694581D01*
X74570074Y-67694581D02*
X74570074Y-67866009D01*
X74570074Y-67866009D02*
X74512931Y-67980295D01*
X74512931Y-67980295D02*
X74455788Y-68037438D01*
X74455788Y-68037438D02*
X74341503Y-68094581D01*
X74341503Y-68094581D02*
X73884360Y-68094581D01*
X75084360Y-68666009D02*
X75084360Y-67466009D01*
X75084360Y-67466009D02*
X75370074Y-67466009D01*
X75370074Y-67466009D02*
X75541503Y-67523152D01*
X75541503Y-67523152D02*
X75655788Y-67637438D01*
X75655788Y-67637438D02*
X75712931Y-67751724D01*
X75712931Y-67751724D02*
X75770074Y-67980295D01*
X75770074Y-67980295D02*
X75770074Y-68151724D01*
X75770074Y-68151724D02*
X75712931Y-68380295D01*
X75712931Y-68380295D02*
X75655788Y-68494581D01*
X75655788Y-68494581D02*
X75541503Y-68608867D01*
X75541503Y-68608867D02*
X75370074Y-68666009D01*
X75370074Y-68666009D02*
X75084360Y-68666009D01*
X76170074Y-67466009D02*
X76970074Y-68666009D01*
X76970074Y-67466009D02*
X76170074Y-68666009D01*
X77427217Y-68551724D02*
X77484360Y-68608867D01*
X77484360Y-68608867D02*
X77427217Y-68666009D01*
X77427217Y-68666009D02*
X77370074Y-68608867D01*
X77370074Y-68608867D02*
X77427217Y-68551724D01*
X77427217Y-68551724D02*
X77427217Y-68666009D01*
X77427217Y-67923152D02*
X77484360Y-67980295D01*
X77484360Y-67980295D02*
X77427217Y-68037438D01*
X77427217Y-68037438D02*
X77370074Y-67980295D01*
X77370074Y-67980295D02*
X77427217Y-67923152D01*
X77427217Y-67923152D02*
X77427217Y-68037438D01*
X79598646Y-68551724D02*
X79541503Y-68608867D01*
X79541503Y-68608867D02*
X79370075Y-68666009D01*
X79370075Y-68666009D02*
X79255789Y-68666009D01*
X79255789Y-68666009D02*
X79084360Y-68608867D01*
X79084360Y-68608867D02*
X78970075Y-68494581D01*
X78970075Y-68494581D02*
X78912932Y-68380295D01*
X78912932Y-68380295D02*
X78855789Y-68151724D01*
X78855789Y-68151724D02*
X78855789Y-67980295D01*
X78855789Y-67980295D02*
X78912932Y-67751724D01*
X78912932Y-67751724D02*
X78970075Y-67637438D01*
X78970075Y-67637438D02*
X79084360Y-67523152D01*
X79084360Y-67523152D02*
X79255789Y-67466009D01*
X79255789Y-67466009D02*
X79370075Y-67466009D01*
X79370075Y-67466009D02*
X79541503Y-67523152D01*
X79541503Y-67523152D02*
X79598646Y-67580295D01*
X80112932Y-68037438D02*
X80512932Y-68037438D01*
X80684360Y-68666009D02*
X80112932Y-68666009D01*
X80112932Y-68666009D02*
X80112932Y-67466009D01*
X80112932Y-67466009D02*
X80684360Y-67466009D01*
X81884360Y-68666009D02*
X81484360Y-68094581D01*
X81198646Y-68666009D02*
X81198646Y-67466009D01*
X81198646Y-67466009D02*
X81655789Y-67466009D01*
X81655789Y-67466009D02*
X81770074Y-67523152D01*
X81770074Y-67523152D02*
X81827217Y-67580295D01*
X81827217Y-67580295D02*
X81884360Y-67694581D01*
X81884360Y-67694581D02*
X81884360Y-67866009D01*
X81884360Y-67866009D02*
X81827217Y-67980295D01*
X81827217Y-67980295D02*
X81770074Y-68037438D01*
X81770074Y-68037438D02*
X81655789Y-68094581D01*
X81655789Y-68094581D02*
X81198646Y-68094581D01*
X82398646Y-68666009D02*
X82398646Y-67466009D01*
X82398646Y-67466009D02*
X83084360Y-68666009D01*
X83084360Y-68666009D02*
X83084360Y-67466009D01*
X83655789Y-68208867D02*
X84570075Y-68208867D01*
X85370074Y-67466009D02*
X85598646Y-67466009D01*
X85598646Y-67466009D02*
X85712931Y-67523152D01*
X85712931Y-67523152D02*
X85827217Y-67637438D01*
X85827217Y-67637438D02*
X85884360Y-67866009D01*
X85884360Y-67866009D02*
X85884360Y-68266009D01*
X85884360Y-68266009D02*
X85827217Y-68494581D01*
X85827217Y-68494581D02*
X85712931Y-68608867D01*
X85712931Y-68608867D02*
X85598646Y-68666009D01*
X85598646Y-68666009D02*
X85370074Y-68666009D01*
X85370074Y-68666009D02*
X85255789Y-68608867D01*
X85255789Y-68608867D02*
X85141503Y-68494581D01*
X85141503Y-68494581D02*
X85084360Y-68266009D01*
X85084360Y-68266009D02*
X85084360Y-67866009D01*
X85084360Y-67866009D02*
X85141503Y-67637438D01*
X85141503Y-67637438D02*
X85255789Y-67523152D01*
X85255789Y-67523152D02*
X85370074Y-67466009D01*
X86398646Y-68666009D02*
X86398646Y-67466009D01*
X86398646Y-68037438D02*
X87084360Y-68037438D01*
X87084360Y-68666009D02*
X87084360Y-67466009D01*
X88227217Y-68666009D02*
X87655789Y-68666009D01*
X87655789Y-68666009D02*
X87655789Y-67466009D01*
X88627218Y-68208867D02*
X89541504Y-68208867D01*
X90112932Y-68666009D02*
X90112932Y-67466009D01*
X90112932Y-67466009D02*
X90570075Y-67466009D01*
X90570075Y-67466009D02*
X90684360Y-67523152D01*
X90684360Y-67523152D02*
X90741503Y-67580295D01*
X90741503Y-67580295D02*
X90798646Y-67694581D01*
X90798646Y-67694581D02*
X90798646Y-67866009D01*
X90798646Y-67866009D02*
X90741503Y-67980295D01*
X90741503Y-67980295D02*
X90684360Y-68037438D01*
X90684360Y-68037438D02*
X90570075Y-68094581D01*
X90570075Y-68094581D02*
X90112932Y-68094581D01*
X91312932Y-68208867D02*
X92227218Y-68208867D01*
X92741503Y-67580295D02*
X92798646Y-67523152D01*
X92798646Y-67523152D02*
X92912932Y-67466009D01*
X92912932Y-67466009D02*
X93198646Y-67466009D01*
X93198646Y-67466009D02*
X93312932Y-67523152D01*
X93312932Y-67523152D02*
X93370074Y-67580295D01*
X93370074Y-67580295D02*
X93427217Y-67694581D01*
X93427217Y-67694581D02*
X93427217Y-67808867D01*
X93427217Y-67808867D02*
X93370074Y-67980295D01*
X93370074Y-67980295D02*
X92684360Y-68666009D01*
X92684360Y-68666009D02*
X93427217Y-68666009D01*
X93941503Y-68551724D02*
X93998646Y-68608867D01*
X93998646Y-68608867D02*
X93941503Y-68666009D01*
X93941503Y-68666009D02*
X93884360Y-68608867D01*
X93884360Y-68608867D02*
X93941503Y-68551724D01*
X93941503Y-68551724D02*
X93941503Y-68666009D01*
X94741503Y-67466009D02*
X94855789Y-67466009D01*
X94855789Y-67466009D02*
X94970075Y-67523152D01*
X94970075Y-67523152D02*
X95027218Y-67580295D01*
X95027218Y-67580295D02*
X95084360Y-67694581D01*
X95084360Y-67694581D02*
X95141503Y-67923152D01*
X95141503Y-67923152D02*
X95141503Y-68208867D01*
X95141503Y-68208867D02*
X95084360Y-68437438D01*
X95084360Y-68437438D02*
X95027218Y-68551724D01*
X95027218Y-68551724D02*
X94970075Y-68608867D01*
X94970075Y-68608867D02*
X94855789Y-68666009D01*
X94855789Y-68666009D02*
X94741503Y-68666009D01*
X94741503Y-68666009D02*
X94627218Y-68608867D01*
X94627218Y-68608867D02*
X94570075Y-68551724D01*
X94570075Y-68551724D02*
X94512932Y-68437438D01*
X94512932Y-68437438D02*
X94455789Y-68208867D01*
X94455789Y-68208867D02*
X94455789Y-67923152D01*
X94455789Y-67923152D02*
X94512932Y-67694581D01*
X94512932Y-67694581D02*
X94570075Y-67580295D01*
X94570075Y-67580295D02*
X94627218Y-67523152D01*
X94627218Y-67523152D02*
X94741503Y-67466009D01*
X73427217Y-70597942D02*
X73027217Y-70026514D01*
X72741503Y-70597942D02*
X72741503Y-69397942D01*
X72741503Y-69397942D02*
X73198646Y-69397942D01*
X73198646Y-69397942D02*
X73312931Y-69455085D01*
X73312931Y-69455085D02*
X73370074Y-69512228D01*
X73370074Y-69512228D02*
X73427217Y-69626514D01*
X73427217Y-69626514D02*
X73427217Y-69797942D01*
X73427217Y-69797942D02*
X73370074Y-69912228D01*
X73370074Y-69912228D02*
X73312931Y-69969371D01*
X73312931Y-69969371D02*
X73198646Y-70026514D01*
X73198646Y-70026514D02*
X72741503Y-70026514D01*
X74398646Y-70540800D02*
X74284360Y-70597942D01*
X74284360Y-70597942D02*
X74055789Y-70597942D01*
X74055789Y-70597942D02*
X73941503Y-70540800D01*
X73941503Y-70540800D02*
X73884360Y-70426514D01*
X73884360Y-70426514D02*
X73884360Y-69969371D01*
X73884360Y-69969371D02*
X73941503Y-69855085D01*
X73941503Y-69855085D02*
X74055789Y-69797942D01*
X74055789Y-69797942D02*
X74284360Y-69797942D01*
X74284360Y-69797942D02*
X74398646Y-69855085D01*
X74398646Y-69855085D02*
X74455789Y-69969371D01*
X74455789Y-69969371D02*
X74455789Y-70083657D01*
X74455789Y-70083657D02*
X73884360Y-70197942D01*
X74855788Y-69797942D02*
X75141502Y-70597942D01*
X75141502Y-70597942D02*
X75427217Y-69797942D01*
X75884360Y-70597942D02*
X75884360Y-69797942D01*
X75884360Y-69397942D02*
X75827217Y-69455085D01*
X75827217Y-69455085D02*
X75884360Y-69512228D01*
X75884360Y-69512228D02*
X75941503Y-69455085D01*
X75941503Y-69455085D02*
X75884360Y-69397942D01*
X75884360Y-69397942D02*
X75884360Y-69512228D01*
X76398646Y-70540800D02*
X76512932Y-70597942D01*
X76512932Y-70597942D02*
X76741503Y-70597942D01*
X76741503Y-70597942D02*
X76855789Y-70540800D01*
X76855789Y-70540800D02*
X76912932Y-70426514D01*
X76912932Y-70426514D02*
X76912932Y-70369371D01*
X76912932Y-70369371D02*
X76855789Y-70255085D01*
X76855789Y-70255085D02*
X76741503Y-70197942D01*
X76741503Y-70197942D02*
X76570075Y-70197942D01*
X76570075Y-70197942D02*
X76455789Y-70140800D01*
X76455789Y-70140800D02*
X76398646Y-70026514D01*
X76398646Y-70026514D02*
X76398646Y-69969371D01*
X76398646Y-69969371D02*
X76455789Y-69855085D01*
X76455789Y-69855085D02*
X76570075Y-69797942D01*
X76570075Y-69797942D02*
X76741503Y-69797942D01*
X76741503Y-69797942D02*
X76855789Y-69855085D01*
X77427218Y-70597942D02*
X77427218Y-69797942D01*
X77427218Y-69397942D02*
X77370075Y-69455085D01*
X77370075Y-69455085D02*
X77427218Y-69512228D01*
X77427218Y-69512228D02*
X77484361Y-69455085D01*
X77484361Y-69455085D02*
X77427218Y-69397942D01*
X77427218Y-69397942D02*
X77427218Y-69512228D01*
X78170075Y-70597942D02*
X78055790Y-70540800D01*
X78055790Y-70540800D02*
X77998647Y-70483657D01*
X77998647Y-70483657D02*
X77941504Y-70369371D01*
X77941504Y-70369371D02*
X77941504Y-70026514D01*
X77941504Y-70026514D02*
X77998647Y-69912228D01*
X77998647Y-69912228D02*
X78055790Y-69855085D01*
X78055790Y-69855085D02*
X78170075Y-69797942D01*
X78170075Y-69797942D02*
X78341504Y-69797942D01*
X78341504Y-69797942D02*
X78455790Y-69855085D01*
X78455790Y-69855085D02*
X78512933Y-69912228D01*
X78512933Y-69912228D02*
X78570075Y-70026514D01*
X78570075Y-70026514D02*
X78570075Y-70369371D01*
X78570075Y-70369371D02*
X78512933Y-70483657D01*
X78512933Y-70483657D02*
X78455790Y-70540800D01*
X78455790Y-70540800D02*
X78341504Y-70597942D01*
X78341504Y-70597942D02*
X78170075Y-70597942D01*
X79084361Y-69797942D02*
X79084361Y-70597942D01*
X79084361Y-69912228D02*
X79141504Y-69855085D01*
X79141504Y-69855085D02*
X79255789Y-69797942D01*
X79255789Y-69797942D02*
X79427218Y-69797942D01*
X79427218Y-69797942D02*
X79541504Y-69855085D01*
X79541504Y-69855085D02*
X79598647Y-69969371D01*
X79598647Y-69969371D02*
X79598647Y-70597942D01*
X80170075Y-70483657D02*
X80227218Y-70540800D01*
X80227218Y-70540800D02*
X80170075Y-70597942D01*
X80170075Y-70597942D02*
X80112932Y-70540800D01*
X80112932Y-70540800D02*
X80170075Y-70483657D01*
X80170075Y-70483657D02*
X80170075Y-70597942D01*
X80170075Y-69855085D02*
X80227218Y-69912228D01*
X80227218Y-69912228D02*
X80170075Y-69969371D01*
X80170075Y-69969371D02*
X80112932Y-69912228D01*
X80112932Y-69912228D02*
X80170075Y-69855085D01*
X80170075Y-69855085D02*
X80170075Y-69969371D01*
X81884361Y-69397942D02*
X81998647Y-69397942D01*
X81998647Y-69397942D02*
X82112933Y-69455085D01*
X82112933Y-69455085D02*
X82170076Y-69512228D01*
X82170076Y-69512228D02*
X82227218Y-69626514D01*
X82227218Y-69626514D02*
X82284361Y-69855085D01*
X82284361Y-69855085D02*
X82284361Y-70140800D01*
X82284361Y-70140800D02*
X82227218Y-70369371D01*
X82227218Y-70369371D02*
X82170076Y-70483657D01*
X82170076Y-70483657D02*
X82112933Y-70540800D01*
X82112933Y-70540800D02*
X81998647Y-70597942D01*
X81998647Y-70597942D02*
X81884361Y-70597942D01*
X81884361Y-70597942D02*
X81770076Y-70540800D01*
X81770076Y-70540800D02*
X81712933Y-70483657D01*
X81712933Y-70483657D02*
X81655790Y-70369371D01*
X81655790Y-70369371D02*
X81598647Y-70140800D01*
X81598647Y-70140800D02*
X81598647Y-69855085D01*
X81598647Y-69855085D02*
X81655790Y-69626514D01*
X81655790Y-69626514D02*
X81712933Y-69512228D01*
X81712933Y-69512228D02*
X81770076Y-69455085D01*
X81770076Y-69455085D02*
X81884361Y-69397942D01*
X82798647Y-70483657D02*
X82855790Y-70540800D01*
X82855790Y-70540800D02*
X82798647Y-70597942D01*
X82798647Y-70597942D02*
X82741504Y-70540800D01*
X82741504Y-70540800D02*
X82798647Y-70483657D01*
X82798647Y-70483657D02*
X82798647Y-70597942D01*
X83312933Y-69512228D02*
X83370076Y-69455085D01*
X83370076Y-69455085D02*
X83484362Y-69397942D01*
X83484362Y-69397942D02*
X83770076Y-69397942D01*
X83770076Y-69397942D02*
X83884362Y-69455085D01*
X83884362Y-69455085D02*
X83941504Y-69512228D01*
X83941504Y-69512228D02*
X83998647Y-69626514D01*
X83998647Y-69626514D02*
X83998647Y-69740800D01*
X83998647Y-69740800D02*
X83941504Y-69912228D01*
X83941504Y-69912228D02*
X83255790Y-70597942D01*
X83255790Y-70597942D02*
X83998647Y-70597942D01*
D12*
X75459580Y-104166666D02*
X75507200Y-104214285D01*
X75507200Y-104214285D02*
X75554819Y-104357142D01*
X75554819Y-104357142D02*
X75554819Y-104452380D01*
X75554819Y-104452380D02*
X75507200Y-104595237D01*
X75507200Y-104595237D02*
X75411961Y-104690475D01*
X75411961Y-104690475D02*
X75316723Y-104738094D01*
X75316723Y-104738094D02*
X75126247Y-104785713D01*
X75126247Y-104785713D02*
X74983390Y-104785713D01*
X74983390Y-104785713D02*
X74792914Y-104738094D01*
X74792914Y-104738094D02*
X74697676Y-104690475D01*
X74697676Y-104690475D02*
X74602438Y-104595237D01*
X74602438Y-104595237D02*
X74554819Y-104452380D01*
X74554819Y-104452380D02*
X74554819Y-104357142D01*
X74554819Y-104357142D02*
X74602438Y-104214285D01*
X74602438Y-104214285D02*
X74650057Y-104166666D01*
X74983390Y-103595237D02*
X74935771Y-103690475D01*
X74935771Y-103690475D02*
X74888152Y-103738094D01*
X74888152Y-103738094D02*
X74792914Y-103785713D01*
X74792914Y-103785713D02*
X74745295Y-103785713D01*
X74745295Y-103785713D02*
X74650057Y-103738094D01*
X74650057Y-103738094D02*
X74602438Y-103690475D01*
X74602438Y-103690475D02*
X74554819Y-103595237D01*
X74554819Y-103595237D02*
X74554819Y-103404761D01*
X74554819Y-103404761D02*
X74602438Y-103309523D01*
X74602438Y-103309523D02*
X74650057Y-103261904D01*
X74650057Y-103261904D02*
X74745295Y-103214285D01*
X74745295Y-103214285D02*
X74792914Y-103214285D01*
X74792914Y-103214285D02*
X74888152Y-103261904D01*
X74888152Y-103261904D02*
X74935771Y-103309523D01*
X74935771Y-103309523D02*
X74983390Y-103404761D01*
X74983390Y-103404761D02*
X74983390Y-103595237D01*
X74983390Y-103595237D02*
X75031009Y-103690475D01*
X75031009Y-103690475D02*
X75078628Y-103738094D01*
X75078628Y-103738094D02*
X75173866Y-103785713D01*
X75173866Y-103785713D02*
X75364342Y-103785713D01*
X75364342Y-103785713D02*
X75459580Y-103738094D01*
X75459580Y-103738094D02*
X75507200Y-103690475D01*
X75507200Y-103690475D02*
X75554819Y-103595237D01*
X75554819Y-103595237D02*
X75554819Y-103404761D01*
X75554819Y-103404761D02*
X75507200Y-103309523D01*
X75507200Y-103309523D02*
X75459580Y-103261904D01*
X75459580Y-103261904D02*
X75364342Y-103214285D01*
X75364342Y-103214285D02*
X75173866Y-103214285D01*
X75173866Y-103214285D02*
X75078628Y-103261904D01*
X75078628Y-103261904D02*
X75031009Y-103309523D01*
X75031009Y-103309523D02*
X74983390Y-103404761D01*
X75353580Y-96294166D02*
X75401200Y-96341785D01*
X75401200Y-96341785D02*
X75448819Y-96484642D01*
X75448819Y-96484642D02*
X75448819Y-96579880D01*
X75448819Y-96579880D02*
X75401200Y-96722737D01*
X75401200Y-96722737D02*
X75305961Y-96817975D01*
X75305961Y-96817975D02*
X75210723Y-96865594D01*
X75210723Y-96865594D02*
X75020247Y-96913213D01*
X75020247Y-96913213D02*
X74877390Y-96913213D01*
X74877390Y-96913213D02*
X74686914Y-96865594D01*
X74686914Y-96865594D02*
X74591676Y-96817975D01*
X74591676Y-96817975D02*
X74496438Y-96722737D01*
X74496438Y-96722737D02*
X74448819Y-96579880D01*
X74448819Y-96579880D02*
X74448819Y-96484642D01*
X74448819Y-96484642D02*
X74496438Y-96341785D01*
X74496438Y-96341785D02*
X74544057Y-96294166D01*
X74448819Y-95437023D02*
X74448819Y-95627499D01*
X74448819Y-95627499D02*
X74496438Y-95722737D01*
X74496438Y-95722737D02*
X74544057Y-95770356D01*
X74544057Y-95770356D02*
X74686914Y-95865594D01*
X74686914Y-95865594D02*
X74877390Y-95913213D01*
X74877390Y-95913213D02*
X75258342Y-95913213D01*
X75258342Y-95913213D02*
X75353580Y-95865594D01*
X75353580Y-95865594D02*
X75401200Y-95817975D01*
X75401200Y-95817975D02*
X75448819Y-95722737D01*
X75448819Y-95722737D02*
X75448819Y-95532261D01*
X75448819Y-95532261D02*
X75401200Y-95437023D01*
X75401200Y-95437023D02*
X75353580Y-95389404D01*
X75353580Y-95389404D02*
X75258342Y-95341785D01*
X75258342Y-95341785D02*
X75020247Y-95341785D01*
X75020247Y-95341785D02*
X74925009Y-95389404D01*
X74925009Y-95389404D02*
X74877390Y-95437023D01*
X74877390Y-95437023D02*
X74829771Y-95532261D01*
X74829771Y-95532261D02*
X74829771Y-95722737D01*
X74829771Y-95722737D02*
X74877390Y-95817975D01*
X74877390Y-95817975D02*
X74925009Y-95865594D01*
X74925009Y-95865594D02*
X75020247Y-95913213D01*
X113916667Y-80907200D02*
X114059524Y-80954819D01*
X114059524Y-80954819D02*
X114297619Y-80954819D01*
X114297619Y-80954819D02*
X114392857Y-80907200D01*
X114392857Y-80907200D02*
X114440476Y-80859580D01*
X114440476Y-80859580D02*
X114488095Y-80764342D01*
X114488095Y-80764342D02*
X114488095Y-80669104D01*
X114488095Y-80669104D02*
X114440476Y-80573866D01*
X114440476Y-80573866D02*
X114392857Y-80526247D01*
X114392857Y-80526247D02*
X114297619Y-80478628D01*
X114297619Y-80478628D02*
X114107143Y-80431009D01*
X114107143Y-80431009D02*
X114011905Y-80383390D01*
X114011905Y-80383390D02*
X113964286Y-80335771D01*
X113964286Y-80335771D02*
X113916667Y-80240533D01*
X113916667Y-80240533D02*
X113916667Y-80145295D01*
X113916667Y-80145295D02*
X113964286Y-80050057D01*
X113964286Y-80050057D02*
X114011905Y-80002438D01*
X114011905Y-80002438D02*
X114107143Y-79954819D01*
X114107143Y-79954819D02*
X114345238Y-79954819D01*
X114345238Y-79954819D02*
X114488095Y-80002438D01*
X114821429Y-79954819D02*
X115059524Y-80954819D01*
X115059524Y-80954819D02*
X115250000Y-80240533D01*
X115250000Y-80240533D02*
X115440476Y-80954819D01*
X115440476Y-80954819D02*
X115678572Y-79954819D01*
X116583333Y-80954819D02*
X116011905Y-80954819D01*
X116297619Y-80954819D02*
X116297619Y-79954819D01*
X116297619Y-79954819D02*
X116202381Y-80097676D01*
X116202381Y-80097676D02*
X116107143Y-80192914D01*
X116107143Y-80192914D02*
X116011905Y-80240533D01*
X111300419Y-74671619D02*
X111490895Y-74671619D01*
X111490895Y-74671619D02*
X111586133Y-74719238D01*
X111586133Y-74719238D02*
X111681371Y-74814476D01*
X111681371Y-74814476D02*
X111728990Y-75004952D01*
X111728990Y-75004952D02*
X111728990Y-75338285D01*
X111728990Y-75338285D02*
X111681371Y-75528761D01*
X111681371Y-75528761D02*
X111586133Y-75624000D01*
X111586133Y-75624000D02*
X111490895Y-75671619D01*
X111490895Y-75671619D02*
X111300419Y-75671619D01*
X111300419Y-75671619D02*
X111205181Y-75624000D01*
X111205181Y-75624000D02*
X111109943Y-75528761D01*
X111109943Y-75528761D02*
X111062324Y-75338285D01*
X111062324Y-75338285D02*
X111062324Y-75004952D01*
X111062324Y-75004952D02*
X111109943Y-74814476D01*
X111109943Y-74814476D02*
X111205181Y-74719238D01*
X111205181Y-74719238D02*
X111300419Y-74671619D01*
X112490895Y-75147809D02*
X112157562Y-75147809D01*
X112157562Y-75671619D02*
X112157562Y-74671619D01*
X112157562Y-74671619D02*
X112633752Y-74671619D01*
X113348038Y-75147809D02*
X113014705Y-75147809D01*
X113014705Y-75671619D02*
X113014705Y-74671619D01*
X113014705Y-74671619D02*
X113490895Y-74671619D01*
X117628152Y-74671619D02*
X117818628Y-74671619D01*
X117818628Y-74671619D02*
X117913866Y-74719238D01*
X117913866Y-74719238D02*
X118009104Y-74814476D01*
X118009104Y-74814476D02*
X118056723Y-75004952D01*
X118056723Y-75004952D02*
X118056723Y-75338285D01*
X118056723Y-75338285D02*
X118009104Y-75528761D01*
X118009104Y-75528761D02*
X117913866Y-75624000D01*
X117913866Y-75624000D02*
X117818628Y-75671619D01*
X117818628Y-75671619D02*
X117628152Y-75671619D01*
X117628152Y-75671619D02*
X117532914Y-75624000D01*
X117532914Y-75624000D02*
X117437676Y-75528761D01*
X117437676Y-75528761D02*
X117390057Y-75338285D01*
X117390057Y-75338285D02*
X117390057Y-75004952D01*
X117390057Y-75004952D02*
X117437676Y-74814476D01*
X117437676Y-74814476D02*
X117532914Y-74719238D01*
X117532914Y-74719238D02*
X117628152Y-74671619D01*
X118485295Y-75671619D02*
X118485295Y-74671619D01*
X118485295Y-74671619D02*
X119056723Y-75671619D01*
X119056723Y-75671619D02*
X119056723Y-74671619D01*
D13*
%TO.C,R22*%
X69620000Y-65667621D02*
X69620000Y-65332379D01*
X70380000Y-65667621D02*
X70380000Y-65332379D01*
%TO.C,R21*%
X67120000Y-65332379D02*
X67120000Y-65667621D01*
X67880000Y-65332379D02*
X67880000Y-65667621D01*
%TO.C,R20*%
X94417621Y-104630000D02*
X94082379Y-104630000D01*
X94417621Y-103870000D02*
X94082379Y-103870000D01*
%TO.C,R19*%
X94417621Y-97130000D02*
X94082379Y-97130000D01*
X94417621Y-96370000D02*
X94082379Y-96370000D01*
D10*
%TO.C,D5*%
X95535000Y-104250000D02*
G75*
G02*
X95435000Y-104250000I-50000J0D01*
G01*
X95435000Y-104250000D02*
G75*
G02*
X95535000Y-104250000I50000J0D01*
G01*
%TO.C,D4*%
X95535000Y-96750000D02*
G75*
G02*
X95435000Y-96750000I-50000J0D01*
G01*
X95435000Y-96750000D02*
G75*
G02*
X95535000Y-96750000I50000J0D01*
G01*
D13*
%TO.C,C8*%
X74260000Y-101355000D02*
X71240000Y-101355000D01*
X71240000Y-101355000D02*
X71240000Y-105750000D01*
X74260000Y-105750000D02*
X74260000Y-101355000D01*
%TO.C,C6*%
X74154000Y-97877500D02*
X74154000Y-93482500D01*
X71134000Y-93482500D02*
X71134000Y-97877500D01*
X74154000Y-93482500D02*
X71134000Y-93482500D01*
%TO.C,C3*%
X90986000Y-101247000D02*
X87966000Y-101247000D01*
X87966000Y-101247000D02*
X87966000Y-105642000D01*
X90986000Y-105642000D02*
X90986000Y-101247000D01*
%TO.C,C1*%
X90986000Y-93605000D02*
X87966000Y-93605000D01*
X87966000Y-93605000D02*
X87966000Y-98000000D01*
X90986000Y-98000000D02*
X90986000Y-93605000D01*
%TO.C,Q2*%
X101832400Y-96260646D02*
X101832400Y-95610646D01*
X101832400Y-96260646D02*
X101832400Y-96910646D01*
X104952400Y-96260646D02*
X104952400Y-95610646D01*
X104952400Y-96260646D02*
X104952400Y-96910646D01*
X105232400Y-95338146D02*
X104902400Y-95098146D01*
X105232400Y-94858146D01*
X105232400Y-95338146D01*
G36*
X105232400Y-95338146D02*
G01*
X104902400Y-95098146D01*
X105232400Y-94858146D01*
X105232400Y-95338146D01*
G37*
%TO.C,J2*%
X61475000Y-89750000D02*
X61475000Y-73750000D01*
X64075000Y-73750000D02*
X61475000Y-73750000D01*
X69075000Y-89750000D02*
X61475000Y-89750000D01*
X73075000Y-89750000D02*
X79075000Y-89750000D01*
X74075000Y-73750000D02*
X68075000Y-73750000D01*
X83075000Y-89750000D02*
X89075000Y-89750000D01*
X84075000Y-73750000D02*
X78075000Y-73750000D01*
X90075000Y-81750000D02*
X87075000Y-81750000D01*
X90075000Y-81750000D02*
X89075000Y-80750000D01*
X90075000Y-81750000D02*
X89075000Y-82750000D01*
X92775000Y-75750000D02*
X92775000Y-77750000D01*
X92775000Y-77750000D02*
X91775000Y-77750000D01*
X92775000Y-86150000D02*
X92775000Y-87750000D01*
X93075000Y-89750000D02*
X99075000Y-89750000D01*
X94075000Y-73750000D02*
X88075000Y-73750000D01*
X100975000Y-75750000D02*
X92775000Y-75750000D01*
X100975000Y-77350000D02*
X100975000Y-75750000D01*
X100975000Y-85750000D02*
X100975000Y-87750000D01*
X100975000Y-87750000D02*
X92775000Y-87750000D01*
X102375000Y-89750000D02*
X104075000Y-89750000D01*
X104075000Y-73750000D02*
X98075000Y-73750000D01*
X104075000Y-89750000D02*
X104075000Y-73750000D01*
%TO.C,C13*%
X72790267Y-99490000D02*
X72497733Y-99490000D01*
X72790267Y-100510000D02*
X72497733Y-100510000D01*
D14*
%TO.C,SW1*%
X112125800Y-76613800D02*
X112125800Y-84386200D01*
X112125800Y-84386200D02*
X118374200Y-84386200D01*
X118374200Y-76613800D02*
X112125800Y-76613800D01*
X118374200Y-84386200D02*
X118374200Y-76613800D01*
D10*
%TO.C,D2*%
X103392400Y-101995646D02*
G75*
G02*
X103292400Y-101995646I-50000J0D01*
G01*
X103292400Y-101995646D02*
G75*
G02*
X103392400Y-101995646I50000J0D01*
G01*
D13*
%TO.C,TP5*%
X94354000Y-94742000D02*
G75*
G02*
X92954000Y-94742000I-700000J0D01*
G01*
X92954000Y-94742000D02*
G75*
G02*
X94354000Y-94742000I700000J0D01*
G01*
%TO.C,R11*%
X78440936Y-93753000D02*
X78895064Y-93753000D01*
X78440936Y-95223000D02*
X78895064Y-95223000D01*
%TO.C,TP7*%
X94354000Y-102250000D02*
G75*
G02*
X92954000Y-102250000I-700000J0D01*
G01*
X92954000Y-102250000D02*
G75*
G02*
X94354000Y-102250000I700000J0D01*
G01*
%TO.C,L2*%
X85369758Y-101690000D02*
X86190242Y-101690000D01*
X85369758Y-102810000D02*
X86190242Y-102810000D01*
%TO.C,R13*%
X85947621Y-105172000D02*
X85612379Y-105172000D01*
X85947621Y-105932000D02*
X85612379Y-105932000D01*
%TO.C,R9*%
X103962400Y-92493025D02*
X103962400Y-92828267D01*
X104722400Y-92493025D02*
X104722400Y-92828267D01*
%TO.C,TP8*%
X100450000Y-102250000D02*
G75*
G02*
X99050000Y-102250000I-700000J0D01*
G01*
X99050000Y-102250000D02*
G75*
G02*
X100450000Y-102250000I700000J0D01*
G01*
%TO.C,R7*%
X113793000Y-100428267D02*
X113793000Y-100093025D01*
X114553000Y-100428267D02*
X114553000Y-100093025D01*
%TO.C,C7*%
X91770000Y-102776165D02*
X91770000Y-103007835D01*
X92490000Y-102776165D02*
X92490000Y-103007835D01*
%TO.C,R14*%
X78440936Y-101515000D02*
X78895064Y-101515000D01*
X78440936Y-102985000D02*
X78895064Y-102985000D01*
%TO.C,C5*%
X82880000Y-102642165D02*
X82880000Y-102873835D01*
X83600000Y-102642165D02*
X83600000Y-102873835D01*
%TO.C,R8*%
X114793000Y-92493025D02*
X114793000Y-92828267D01*
X115553000Y-92493025D02*
X115553000Y-92828267D01*
%TO.C,TP4*%
X82416000Y-102250000D02*
G75*
G02*
X81016000Y-102250000I-700000J0D01*
G01*
X81016000Y-102250000D02*
G75*
G02*
X82416000Y-102250000I700000J0D01*
G01*
%TO.C,R15*%
X109856000Y-92477879D02*
X109856000Y-92813121D01*
X110616000Y-92477879D02*
X110616000Y-92813121D01*
%TO.C,C2*%
X82880000Y-94880165D02*
X82880000Y-95111835D01*
X83600000Y-94880165D02*
X83600000Y-95111835D01*
%TO.C,R16*%
X108967000Y-100560121D02*
X108967000Y-100224879D01*
X109727000Y-100560121D02*
X109727000Y-100224879D01*
%TO.C,C12*%
X72920267Y-91692000D02*
X72627733Y-91692000D01*
X72920267Y-92712000D02*
X72627733Y-92712000D01*
%TO.C,R1*%
X108398934Y-76062957D02*
X108734176Y-76062957D01*
X108398934Y-76822957D02*
X108734176Y-76822957D01*
%TO.C,C14*%
X58434000Y-95907000D02*
X58434000Y-100302000D01*
X61454000Y-95907000D02*
X58434000Y-95907000D01*
X61454000Y-100302000D02*
X61454000Y-95907000D01*
%TO.C,R17*%
X96474936Y-94007000D02*
X96929064Y-94007000D01*
X96474936Y-95477000D02*
X96929064Y-95477000D01*
%TO.C,Q3*%
X107787000Y-96455500D02*
X107787000Y-95805500D01*
X107787000Y-96455500D02*
X107787000Y-97105500D01*
X110907000Y-96455500D02*
X110907000Y-95805500D01*
X110907000Y-96455500D02*
X110907000Y-97105500D01*
X111187000Y-95533000D02*
X110857000Y-95293000D01*
X111187000Y-95053000D01*
X111187000Y-95533000D01*
G36*
X111187000Y-95533000D02*
G01*
X110857000Y-95293000D01*
X111187000Y-95053000D01*
X111187000Y-95533000D01*
G37*
D10*
%TO.C,D1*%
X114223000Y-101995646D02*
G75*
G02*
X114123000Y-101995646I-50000J0D01*
G01*
X114123000Y-101995646D02*
G75*
G02*
X114223000Y-101995646I50000J0D01*
G01*
D13*
%TO.C,R4*%
X108398934Y-82032957D02*
X108734176Y-82032957D01*
X108398934Y-82792957D02*
X108734176Y-82792957D01*
%TO.C,TP3*%
X76330000Y-102250000D02*
G75*
G02*
X74930000Y-102250000I-700000J0D01*
G01*
X74930000Y-102250000D02*
G75*
G02*
X76330000Y-102250000I700000J0D01*
G01*
%TO.C,L1*%
X85339758Y-93928000D02*
X86160242Y-93928000D01*
X85339758Y-95048000D02*
X86160242Y-95048000D01*
%TO.C,R10*%
X102962400Y-100428267D02*
X102962400Y-100093025D01*
X103722400Y-100428267D02*
X103722400Y-100093025D01*
%TO.C,R2*%
X108398934Y-78052957D02*
X108734176Y-78052957D01*
X108398934Y-78812957D02*
X108734176Y-78812957D01*
%TO.C,U2*%
X64638000Y-98890000D02*
X64638000Y-100150000D01*
X64638000Y-105710000D02*
X64638000Y-104450000D01*
X68398000Y-98890000D02*
X64638000Y-98890000D01*
X68398000Y-105710000D02*
X64638000Y-105710000D01*
X69918000Y-105940000D02*
X69438000Y-105940000D01*
X69678000Y-105610000D01*
X69918000Y-105940000D01*
G36*
X69918000Y-105940000D02*
G01*
X69438000Y-105940000D01*
X69678000Y-105610000D01*
X69918000Y-105940000D01*
G37*
%TO.C,R3*%
X108398934Y-80042957D02*
X108734176Y-80042957D01*
X108398934Y-80802957D02*
X108734176Y-80802957D01*
D10*
%TO.C,D3*%
X109397000Y-102048500D02*
G75*
G02*
X109297000Y-102048500I-50000J0D01*
G01*
X109297000Y-102048500D02*
G75*
G02*
X109397000Y-102048500I50000J0D01*
G01*
D13*
%TO.C,TP2*%
X82450000Y-94488000D02*
G75*
G02*
X81050000Y-94488000I-700000J0D01*
G01*
X81050000Y-94488000D02*
G75*
G02*
X82450000Y-94488000I700000J0D01*
G01*
%TO.C,U1*%
X64614000Y-91078000D02*
X64614000Y-92338000D01*
X64614000Y-97898000D02*
X64614000Y-96638000D01*
X68374000Y-91078000D02*
X64614000Y-91078000D01*
X68374000Y-97898000D02*
X64614000Y-97898000D01*
X69894000Y-98128000D02*
X69414000Y-98128000D01*
X69654000Y-97798000D01*
X69894000Y-98128000D01*
G36*
X69894000Y-98128000D02*
G01*
X69414000Y-98128000D01*
X69654000Y-97798000D01*
X69894000Y-98128000D01*
G37*
%TO.C,Q1*%
X112663000Y-96360646D02*
X112663000Y-95710646D01*
X112663000Y-96360646D02*
X112663000Y-97010646D01*
X115783000Y-96360646D02*
X115783000Y-95710646D01*
X115783000Y-96360646D02*
X115783000Y-97010646D01*
X116063000Y-95438146D02*
X115733000Y-95198146D01*
X116063000Y-94958146D01*
X116063000Y-95438146D01*
G36*
X116063000Y-95438146D02*
G01*
X115733000Y-95198146D01*
X116063000Y-94958146D01*
X116063000Y-95438146D01*
G37*
%TO.C,TP1*%
X76450000Y-94488000D02*
G75*
G02*
X75050000Y-94488000I-700000J0D01*
G01*
X75050000Y-94488000D02*
G75*
G02*
X76450000Y-94488000I700000J0D01*
G01*
%TO.C,R18*%
X96474936Y-101515000D02*
X96929064Y-101515000D01*
X96474936Y-102985000D02*
X96929064Y-102985000D01*
%TO.C,C4*%
X91770000Y-95134165D02*
X91770000Y-95365835D01*
X92490000Y-95134165D02*
X92490000Y-95365835D01*
%TO.C,TP6*%
X100450000Y-94742000D02*
G75*
G02*
X99050000Y-94742000I-700000J0D01*
G01*
X99050000Y-94742000D02*
G75*
G02*
X100450000Y-94742000I700000J0D01*
G01*
%TO.C,R5*%
X108398934Y-84022957D02*
X108734176Y-84022957D01*
X108398934Y-84782957D02*
X108734176Y-84782957D01*
%TO.C,R12*%
X85947621Y-97410000D02*
X85612379Y-97410000D01*
X85947621Y-98170000D02*
X85612379Y-98170000D01*
%TO.C,R6*%
X108398934Y-86012957D02*
X108734176Y-86012957D01*
X108398934Y-86772957D02*
X108734176Y-86772957D01*
%TD*%
M02*
